<?xml version="1.0" encoding="UTF-8"?><svg id="Layer_1" xmlns="http://www.w3.org/2000/svg" viewBox="0 0 694.94 274.42"><defs><style>.cls-1{fill:#ccb37c;}.cls-2{fill:#fff;}</style></defs><path class="cls-1" d="M249.32,246.62c.14,0,.36.04.66.11.29.07.51.11.66.11s.07.22-.22.66c-.3.44-.66.88-1.1,1.32s-1.1.99-1.98,1.65c-.88.66-1.4.99-1.54.99s-.3-.08-.44-.22c-.15,0-.3-.08-.44-.22l.44-.22c.15,0,.29-.15.44-.44.14-.3.29-.44.44-.44.44,0,.59-.22.44-.66,0-.44-.22-.44-.66,0-.15.14-.26.33-.33.55-.08.22-.19.33-.33.33s-.37.14-.66.44c-.3.29-.59.44-.88.44s-.59.11-.88.33c-.3.22-.59.4-.88.55-.15.14-.22.36-.22.66s.07.51.22.66c0,.14.11.29.33.44.22.14.26.29.11.44,0,.29-.3.66-.88,1.1-.3.29-.77.59-1.43.88-.66.29-1.14.51-1.43.66-.15.14-.41.36-.77.66-.37.29-.55.51-.55.66l.22,1.1c0,.14-.15.36-.44.66-.3.29-.59.51-.88.66-.3.14-.7.4-1.21.77-.52.36-.77.62-.77.77-.15.15-.33.29-.55.44-.22.14-.33.29-.33.44h-.22c-.3.44-.3.73,0,.88h.22l-.66,1.1c-1.18.73-2.35,1.25-3.53,1.54-.44.14-1.21.36-2.32.66-1.1.29-1.8.51-2.1.66-.44.14-1.07.26-1.88.33-.81.07-1.36.11-1.65.11s-.81.07-1.54.22c-.74.14-1.4.29-1.99.44-.44.14-1.25.36-2.43.66-1.18.29-1.91.51-2.21.66h-1.98c-.74.29-1.47.51-2.21.66-.74.14-1.25.29-1.54.44-.15.14-.44.25-.88.33-.44.07-.74.11-.88.11h-2.87c-.59,0-1.58.14-2.98.44-1.4.29-2.39.51-2.98.66-.59.14-1.4.29-2.43.44-1.03.14-1.62.22-1.76.22-.44,0-1.4.14-2.87.44-.74.14-1.98.26-3.75.33-1.76.07-3.24.11-4.41.11h-2.87c-.44-.15-.96-.26-1.54-.33-.59-.08-1.1-.19-1.54-.33-.44-.15-1.21-.15-2.32,0-1.1.14-2.02.29-2.76.44-.59.14-1.43.14-2.54,0-1.1-.15-1.8-.3-2.1-.44-.3-.15-.81-.26-1.54-.33-.74-.08-1.25-.11-1.54-.11s-.66-.08-1.1-.22c-.44-.15-.81-.3-1.1-.44-.15-.15-.52-.26-1.1-.33-.59-.08-.96-.11-1.1-.11-.59,0-1.62-.15-3.09-.44-.74-.15-1.84-.33-3.31-.55-1.47-.22-2.35-.41-2.65-.55-.3-.15-.96-.3-1.98-.44-1.03-.15-1.91-.3-2.65-.44-.74-.15-2.24-.52-4.52-1.1-2.28-.59-3.86-1.03-4.74-1.32-1.03-.3-2.57-.92-4.63-1.87-2.06-.96-3.24-1.51-3.53-1.66-.3-.15-.92-.41-1.88-.77-.96-.37-1.58-.63-1.87-.77-.3-.15-.88-.37-1.76-.66-.88-.3-1.47-.52-1.76-.66-.3-.15-.81-.44-1.54-.88-.74-.44-1.4-.81-1.98-1.1-.74-.3-1.69-.85-2.87-1.65-1.18-.81-1.91-1.29-2.21-1.43-.44-.15-1.03-.44-1.76-.88-.74-.44-1.32-.81-1.76-1.1-.59-.3-1.51-.85-2.76-1.65-1.25-.81-2.1-1.36-2.54-1.65-.3-.3-.74-.63-1.32-.99-.59-.37-.96-.63-1.1-.77,0-.15-.22-.44-.66-.88-.44-.44-.81-.81-1.1-1.1-.44-.3-.96-.74-1.54-1.32s-.96-.96-1.1-1.1c-.3-.15-.48-.3-.55-.44-.08-.15-.19-.3-.33-.44s-.52-.44-1.1-.88c-.59-.44-1.25-.96-1.98-1.54-.59-.59-1.62-1.47-3.09-2.65-1.47-1.18-2.35-1.91-2.65-2.21-.44-.3-1.14-.99-2.1-2.1-.96-1.1-1.66-2.02-2.1-2.76-.44-.74-1.32-1.73-2.65-2.98-1.32-1.25-2.06-2.02-2.2-2.32-.44-.3-.88-.81-1.32-1.54-.44-.74-.81-1.32-1.1-1.76-.44-.44-1.03-1.07-1.76-1.87-.74-.81-1.25-1.36-1.54-1.65-.3-.29-.63-.7-.99-1.21-.37-.51-.63-.92-.77-1.21-.15-.29-.52-.66-1.1-1.1-.59-.44-.88-.73-.88-.88-.15-.14-.44-.55-.88-1.21s-.88-1.36-1.32-2.1c-.44-.73-1.18-1.8-2.21-3.2-1.03-1.4-1.76-2.24-2.2-2.54-.3-.29-.7-.88-1.21-1.76-.52-.88-.77-1.47-.77-1.76-.59-.73-1.18-1.1-1.76-1.1-.15,0-.52-.22-1.1-.66-.15-.14-.41-.55-.77-1.21-.37-.66-.77-1.36-1.21-2.1-.44-.73-1.03-1.8-1.76-3.2-.74-1.4-1.1-2.24-1.1-2.54-.3-.29-.59-.73-.88-1.32-.3-.59-.52-1.03-.66-1.32-.15-.29-.52-.92-1.1-1.88-.59-.95-.96-1.65-1.1-2.1-.3-.44-.74-1.06-1.32-1.87-.59-.81-.96-1.29-1.1-1.43-.15-.14-.37-.51-.66-1.1-.3-.59-.59-1.1-.88-1.54-.15-.44-.52-1.1-1.1-1.98-.59-.88-.96-1.4-1.1-1.54-.15-.14-.33-.36-.55-.66-.22-.29-.41-.51-.55-.66-.88-.44-1.47-.44-1.76,0-.3.15-.55,0-.77-.44s-.41-.81-.55-1.1c-.15-.29-.41-.81-.77-1.54-.37-.73-.7-1.25-.99-1.54-.3-.29-.63-.7-.99-1.21-.37-.51-.63-.84-.77-.99h-.44c-.15,0-.3.08-.44.22,0,.3-.08.52-.22.66-.15.3-.22.48-.22.55s-.08.26-.22.55c-.15.44-.26,1.07-.33,1.87-.08.81-.11,1.29-.11,1.43-.15.3.07.81.66,1.54v1.1c0,.44.07.74.22.88,0,.15-.04.66-.11,1.54-.08.88-.19,1.69-.33,2.43,0,.74-.08,1.95-.22,3.64-.15,1.69-.22,2.69-.22,2.98s-.08.66-.22,1.1c-.15.44-.22.74-.22.88-.15.15-.19.41-.11.77.07.37.11.7.11.99.14.44.22.81.22,1.1-.15.3-.22.52-.22.66-.15.15-.15.3,0,.44v.66c0,.3-.08.7-.22,1.21-.15.52-.22.85-.22.99s-.04.55-.11,1.21c-.08.66-.11,1.36-.11,2.1-.15.3-.19.74-.11,1.32.07.59.04,1.1-.11,1.54,0,.59-.08,1.18-.22,1.76l.44,1.98.88,4.41c.14.3.22.77.22,1.43s.07,1.07.22,1.21c-.15.15-.26.37-.33.66-.08.3-.19.59-.33.88-.15.3-.3.66-.44,1.1-.15.44-.22.74-.22.88s-.08.41-.22.77c-.15.37-.22.7-.22.99l-1.32,1.76c-.59.29-1.03.66-1.32,1.1-.15.14-.37.22-.66.22h-.88c-.3,0-.7.26-1.21.77-.52.51-.85.92-.99,1.21-.3.29-.66.81-1.1,1.54-.44.73-.81,1.18-1.1,1.32,0,.14-.08.22-.22.22s-.22.07-.22.22l-.44-.44h-.22l.44.22v.22l.22.66-.22.22-.88.22c-.88-.3-1.47-.44-1.76-.44-.15,0-.22-.22-.22-.66v-1.1h-.88c-.44.44-.59.73-.44.88,0,.29-.3.44-.88.44h-.66c-.15,0-.3-.08-.44-.22l-.88.44c0,.14-.11.29-.33.44-.22.14-.33.29-.33.44s-.08.33-.22.55c-.15.22-.3.4-.44.55-.59.44-1.1.51-1.54.22l-.22-.44v-.44h-.22l-.22,1.32c-.15.29-.19.77-.11,1.43.07.66.03,1.06-.11,1.21.14.44,0,.66-.44.66s-.74-.3-.88-.88c-.3-.3-.52-.74-.66-1.32.14-.15-.08-.3-.66-.44-.59-.15-.96-.22-1.1-.22v-.66c-.3,0-.59.15-.88.44l-.22.22c-.3,0-.44-.22-.44-.66l-.66-2.43c0-.44-.15-1.18-.44-2.21-.3-1.03-.44-1.69-.44-1.98v-1.1c0-.44-.08-.81-.22-1.1-.15-.3-.48-.44-.99-.44h-.99c-.15,0-.22-.08-.22-.22l-.44-.22c.14,0,.22-.07.22-.22s.07-.29.22-.44c-.15-.15-.11-.33.11-.55l.55-.55v-1.98c-.3-.29-.41-.74-.33-1.32.07-.58.11-1.03.11-1.32.14-.29.03-.73-.33-1.32-.37-.59-.63-.95-.77-1.1-.15-.59,0-1.18.44-1.76.14-.29.22-.7.22-1.21s.07-.92.22-1.21c-.15-.29-.15-.73,0-1.32.14-.59.14-1.03,0-1.32.14-.29.33-.7.55-1.21.22-.51.4-.92.55-1.21.14-.29.14-.62,0-.99-.15-.36-.15-.62,0-.77,0-.14-.08-.44-.22-.88-.15-.44-.3-.81-.44-1.1,0-.29-.04-1.03-.11-2.21-.08-1.17-.04-1.91.11-2.2v-1.54c0-.73.07-1.25.22-1.54.14-.29.18-.84.11-1.65-.08-.81-.11-1.36-.11-1.66s.03-.66.11-1.1c.07-.44.11-.74.11-.88s.07-.44.22-.88c.14-.44.37-.88.66-1.32.15-.44.29-1.21.44-2.32.14-1.1.22-1.87.22-2.32.14-.44.25-1.21.33-2.32.07-1.1.03-1.8-.11-2.1.14-.29.26-.81.33-1.54.07-.73.03-1.25-.11-1.54.14-.29.29-.66.44-1.1.14-.44.29-.73.44-.88.44-.44.51-1.03.22-1.76.14-.29.22-.74.22-1.32s.07-1.03.22-1.32c0-.29-.04-.73-.11-1.32-.08-.59-.19-1.03-.33-1.32.14-.29.22-.7.22-1.21v-.99c0-.14.15-.33.44-.55.29-.22.59-.4.88-.55.14-.15.29-.44.44-.88.14-.44.14-.73,0-.88,0-.59.14-1.62.44-3.09,0-.59.14-1.43.44-2.54.29-1.1.51-1.73.66-1.88,0-.14.03-.36.11-.66.07-.29.11-.51.11-.66.14-.14.14-.4,0-.77-.15-.37-.3-.7-.44-.99-.15-.29-.15-.7,0-1.21.15-.51.22-.84.22-.99.14-.14.26-.62.33-1.43.07-.81.11-1.65.11-2.54.14-.44.22-1.18.22-2.2s.07-2.1.22-3.2c.14-1.1.22-2.21.22-3.31v-2.76c0-.59.07-1.51.22-2.76.14-1.25.26-2.5.33-3.75.07-1.25.14-2.39.22-3.42.07-1.03.18-1.69.33-1.98.15-.73.33-1.91.55-3.53.22-1.62.4-2.65.55-3.09.14-.44,0-1.06-.44-1.87-.44-.81-.74-1.36-.88-1.65v-.99c0-.36-.08-.62-.22-.77.14-.14.29-.33.44-.55.15-.22.22-.4.22-.55s-.04-.37-.11-.66c-.08-.29-.04-.51.11-.66l-.22-1.1c0-.14.18-.36.55-.66.36-.29.7-.51.99-.66.14-.14.29-.59.44-1.32.14-.73.29-1.25.44-1.54-.15-.29-.19-.92-.11-1.87.07-.96.03-1.58-.11-1.88.14-.29.26-.84.33-1.65.07-.81.11-1.36.11-1.65,0-.14-.08-.29-.22-.44-.15-.14-.22-.29-.22-.44-.15-.14-.22-.29-.22-.44-.15,0-.22-.07-.22-.22l-.22-.66c-.15-.29-.19-.66-.11-1.1.07-.44.11-.81.11-1.1s-.04-.62-.11-.99c-.08-.36-.04-.62.11-.77-.15-.59-.08-1.32.22-2.21,0-.44.04-1.1.11-1.98.07-.88.11-1.4.11-1.54-.15-.14,0-.4.44-.77.44-.36.81-.7,1.1-.99.14-.29.37-.66.66-1.1.29-.44.44-.73.44-.88s.07-.33.22-.55c.14-.22.29-.4.44-.55.29-.14.59-.22.88-.22h2.43c.29,0,.59-.07.88-.22,0-.15.14-.29.44-.44l-.22-.66c.14-.14.29-.37.44-.66.14-.29.29-.51.44-.66l.66-.88c.14,0,.29-.07.44-.22.14-.14.22-.26.22-.33v-.33c.14-.14.44-.22.88-.22.14,0,.37.08.66.22.14.15.29.22.44.22h.44c.14,0,.33-.11.55-.33.22-.22.33-.4.33-.55.14-.14.37-.33.66-.55.29-.22.51-.33.66-.33s.37-.03.66-.11c.29-.07.51-.11.66-.11-.15,0-.08-.22.22-.66l-.22-.22c-.15,0-.22-.07-.22-.22l-.22-.22.66-1.76c.14-.44.4-1.1.77-1.98.36-.88.48-1.4.33-1.54.14-.14.36-.44.66-.88.29-.44.51-.81.66-1.1l1.98-2.43,1.32-.66c.14-.14.48,0,.99.44.51.44.84.81.99,1.1.14.3.36.99.66,2.1.29,1.1.44,1.88.44,2.32.14.44.29,1.21.44,2.32.14,1.1.29,1.8.44,2.1l.66,2.2c-.44.44-.59.88-.44,1.32,0,.15-.04.44-.11.88-.08.44-.11.88-.11,1.32s-.04,1.07-.11,1.88c-.08.81-.11,1.29-.11,1.43-.15.15-.15.33,0,.55.15.22.15.41,0,.55.15.44,0,1.1-.44,1.98-.15.3-.19.85-.11,1.66.07.81.11,1.36.11,1.65.29.3.36.74.22,1.32-.15.59-.37,1.03-.66,1.32s-.44.7-.44,1.21v.99c0,.15.04.41.11.77.07.37.26.7.55.99v3.09c-.15.44-.22,1.43-.22,2.98v4.08l-.66,1.98v1.1c-.15.74-.22,1.47-.22,2.21s-.08,1.4-.22,1.98c-.15.59-.26,1.36-.33,2.32-.08.96-.19,1.43-.33,1.43s-.22.08-.22.22c.14.15.14.22,0,.22l.22-.22c.14-.15.33-.33.55-.55l.55-.55c.29-.14.66-.48,1.1-.99.44-.51.59-.84.44-.99,0-.15.11-.26.33-.33.22-.07.26-.03.11.11.14.44.37.81.66,1.1.14.15.37.15.66,0,.29-.14.51-.29.66-.44.29-.14.51-.51.66-1.1.15-.58.22-1.03.22-1.32s.03-.88.11-1.76c.07-.88.11-1.47.11-1.76,0-.15.14-.55.44-1.21.29-.66.62-1.36.99-2.1.36-.73.7-1.4.99-1.98.29-.59.51-1.03.66-1.32.14-.44.51-1.18,1.1-2.21.59-1.03.96-1.69,1.1-1.98.14-.29.44-.66.88-1.1.44-.44.73-.81.88-1.1.14-.29.29-.73.44-1.32.15-.59.37-1.03.66-1.32.14-.29.4-.88.77-1.76.37-.88.62-1.54.77-1.98.44-.44.88-1.1,1.32-1.98.44-.88.66-1.47.66-1.76s-.15-.51-.44-.66c-.3-.14-.59-.22-.88-.22s-.63-.14-.99-.44c-.37-.29-.63-.51-.77-.66-.59-.44-.52-.88.22-1.32.14,0,.14-.07,0-.22,0-.14.07-.29.22-.44l.44-.44c.14,0,.22-.07.22-.22l.44-.44c.14-.14.4-.22.77-.22h.77c.14,0,.33.11.55.33.22.22.48.41.77.55.15.15.29.33.44.55.14.22.29.33.44.33s.4-.14.77-.44c.36-.29.62-.59.77-.88.14-.29.44-.66.88-1.1l.88-.88c.14-.15.4-.22.77-.22h.99c.14,0,.29-.07.44-.22l.22-.44c0-.14.07-.29.22-.44l.22-.88-.66-.66-.22-.22c.14-.59.36-.96.66-1.1.14-.14.4-.22.77-.22h.99c.29,0,.62-.22.99-.66.36-.44.62-.81.77-1.1.29-.29.7-.81,1.21-1.54.51-.73.77-1.18.77-1.32.14-.14.22-.4.22-.77v-.77c0-.14-.04-.36-.11-.66-.08-.29.04-.51.33-.66.14,0,.14-.07,0-.22,0-.14.07-.29.22-.44l.44-.44.22-.44c.29-.29.59-.51.88-.66.14-.29.4-.74.77-1.32.36-.58.7-1.03.99-1.32s.59-.73.88-1.32c.29-.59.44-1.03.44-1.32.14-.14.29-.33.44-.55.14-.22.29-.48.44-.77.29-.29.58-.51.88-.66l.22-.22c.15,0,.29.11.44.33.14.22.29.41.44.55.44.3.66.74.66,1.32.29.15.55.37.77.66.22.3.48.52.77.66,0,.15.29.08.88-.22.14-.14.29-.22.44-.22,0-.14.07-.29.22-.44l.44-.66c.14-.29.03-.66-.33-1.1-.37-.44-.7-.81-.99-1.1-.3-.29-.44-.73-.44-1.32s.07-.96.22-1.1l.44-.22c.14-.29.33-.55.55-.77s.4-.48.55-.77c.14-.14.29-.26.44-.33.15-.07.22-.18.22-.33l.44-.44h.22l.22.66-.88,1.1c-.44.44-.44,1.03,0,1.76.14.3.36.59.66.88.29.3.51.52.66.66.14.15.44.15.88,0,.44-.15.74-.37.88-.66.29-.29.44-.7.44-1.21s.07-.84.22-.99c0-.44.29-.66.88-.66.44,0,.81-.22,1.1-.66.29-.14.55-.37.77-.66.22-.29.4-.51.55-.66l1.54-1.99c0-.29.22-.66.66-1.1.44-.44.73-.74.88-.88s.26-.33.33-.55c.07-.22.18-.4.33-.55,0-.14.11-.44.33-.88.22-.44.55-.88.99-1.32.14-.44.62-1.03,1.43-1.76.81-.73,1.36-1.18,1.66-1.32,0-.14.22-.48.66-.99.44-.51.73-.99.88-1.43.29-.44.77-.99,1.43-1.66.66-.66,1.06-1.06,1.21-1.21.14,0,.29-.14.44-.44.14-.14.22-.29.22-.44-.15-.15-.15-.29,0-.44,0-.14.14-.37.44-.66.14-.29.48-.51.99-.66.51-.14.84-.22.99-.22.44,0,1.03-.14,1.76-.44.29-.14.66-.37,1.1-.66.44-.29.81-.51,1.1-.66.29-.14.66-.36,1.1-.66.44-.29.73-.51.88-.66.14-.14.37-.33.66-.55.29-.22.51-.33.66-.33.29,0,.51.37.66,1.1l-.44.44.22.22c-.15.15-.74.66-1.76,1.54-.15.3-.44.59-.88.88-.44.3-.74.59-.88.88-.59.44-.96.88-1.1,1.32l-.44.22c-.44,0-.59.22-.44.66,0,.15.07.19.22.11.14-.07.22-.18.22-.33l-.22-.44c0-.14.07-.22.22-.22s.22.08.22.22c.14.3.29.44.44.44.14.15.11.44-.11.88-.22.44-.41.81-.55,1.1-.3.3-.77.37-1.43.22-.66-.14-1.14-.29-1.43-.44-.15-.14-.37-.11-.66.11-.3.22-.59.48-.88.77-.15.3-.44.63-.88.99-.44.37-.81.63-1.1.77-.3.44-.59.74-.88.88-.15.15-.08.41.22.77.29.37.44.63.44.77.29.15.29.41,0,.77-.3.37-.59.7-.88.99-.3.15-.74.22-1.32.22h-1.1c-.15.15-.3.22-.44.22s-.22.08-.22.22c-.15.15-.37.37-.66.66-.3.3-.59.59-.88.88-.3.15-.48.33-.55.55-.08.22-.26.48-.55.77-.15.3-.3.59-.44.88l-.22.22.44.22c.14,0,.22-.07.22-.22s.07-.14.22,0c.29.15.44.37.44.66v.66c0,.44-.15.88-.44,1.32,0,.15-.11.33-.33.55-.22.22-.48.41-.77.55h-.44c-.3-.29-.66-.51-1.1-.66-.3-.14-.63-.03-.99.33-.37.37-.63.63-.77.77l-.88,1.1c-.44.44-.59.96-.44,1.54,0,.15-.04.48-.11.99-.08.52-.26.92-.55,1.21-.15.3-.48.63-.99.99-.52.37-.85.55-.99.55-.44,0-.96.15-1.54.44-.3.15-.59.48-.88.99-.3.52-.59.92-.88,1.21,0,.3-.08.55-.22.77-.15.22-.22.48-.22.77-.3.3-.44.59-.44.88-.15.15-.22.3-.22.44s-.04.26-.11.33c-.08.08-.04.19.11.33,0,.3-.19.59-.55.88-.37.3-.63.44-.77.44s-.33.04-.55.11c-.22.08-.41.11-.55.11s-.3.15-.44.44c-.15.3-.37.59-.66.88,0,.3-.04.7-.11,1.21-.08.52-.04.85.11.99-.3.3-.66.88-1.1,1.76-.15.3-.48.66-.99,1.1-.52.44-.85.74-.99.88-.3.15-.48.41-.55.77-.08.37-.04.63.11.77-.15.15-.37.52-.66,1.1-.3.59-.59,1.1-.88,1.54v.88h-.22c-.3,0-.74.15-1.32.44,0,.15.04.41.11.77.07.37.11.7.11.99.29.3.4.7.33,1.21-.08.52-.26.92-.55,1.21-.15.3-.37.52-.66.66-.3.15-.44.15-.44,0-.15-.59-.15-.96,0-1.1,0-.29-.3-.44-.88-.44-.15,0-.33.08-.55.22-.22.15-.48.3-.77.44-.15.15-.19.26-.11.33.07.08.04.19-.11.33-.15.15-.22.37-.22.66l.22.44c.29.3.66.22,1.1-.22.29-.14.59-.26.88-.33.29-.07.51-.04.66.11-.3.3-.52.74-.66,1.32-.3.3-.52.63-.66.99-.15.37-.15.63,0,.77-.15.15-.37.48-.66.99-.3.52-.59.99-.88,1.43v.66l-.66.22c-.3.3-.44.59-.44.88s-.08.52-.22.66l.22.44h-.44c-.3.3-.63.63-.99.99-.37.37-.63.7-.77.99-.3.3-.7.81-1.21,1.54-.52.74-.92,1.18-1.21,1.32,0,.15-.19.33-.55.55-.37.22-.63.41-.77.55,0,.15-.04.41-.11.77-.08.37-.04.7.11.99l.44,2.2c.14.3.37.44.66.44l.22-.22c.14,0,.29-.07.44-.22l.44-.44c.14-.29.29-.59.44-.88,0-.29.07-.73.22-1.32.14-.59.29-.96.44-1.1-.15-.29.14-.44.88-.44l.66.44c0,.15.07.22.22.22v1.1c-.15.3-.41.77-.77,1.43-.37.66-.63,1.14-.77,1.43-.3.3-.63.96-.99,1.98-.37,1.03-.7,1.69-.99,1.98-.15.3-.48.81-.99,1.54-.52.74-.92,1.25-1.21,1.54-.15.3-.41.77-.77,1.43-.37.66-.7,1.14-.99,1.43,0,.3-.22.66-.66,1.1-.44.44-.74.74-.88.88-.3.15-.41.44-.33.88.07.44.03.81-.11,1.1-.15.3-.37.77-.66,1.43-.3.66-.37,1.07-.22,1.21-.3.3-.66.88-1.1,1.76,0,.3-.08.77-.22,1.43-.15.66-.22,1.07-.22,1.21s-.11.48-.33.99c-.22.52-.48.92-.77,1.21-.3.3-.48.85-.55,1.65-.08.81-.11,1.29-.11,1.43s-.19.52-.55,1.1c-.37.59-.77,1.18-1.21,1.76-.3.59-.88,1.43-1.76,2.54-.88,1.1-1.47,1.8-1.76,2.1-.15.3-.41.74-.77,1.32-.37.59-.48,1.03-.33,1.32-.15.3-.15.66,0,1.1.14.44.29.81.44,1.1,0,.3.22.66.66,1.1.44.44.73.81.88,1.1.29.3.59.92.88,1.87.29.96.59,1.8.88,2.54.44.74,1.03,1.8,1.76,3.2.73,1.4,1.25,2.32,1.54,2.76.29.44.51,1.1.66,1.99.14.88.29,1.4.44,1.54.29.15.55.37.77.66.22.3.4.52.55.66.14.15.33.44.55.88s.48.81.77,1.1c0,.3.18.81.55,1.54.37.74.7,1.32.99,1.76,0,.3.18.74.55,1.32.36.59.73,1.25,1.1,1.98.37.74.74,1.4,1.1,1.99.37.59.55.96.55,1.1.14.3.33.77.55,1.43s.48,1.14.77,1.43c.29.3.66.85,1.1,1.65.44.81.73,1.36.88,1.66.14.3.4.66.77,1.1.36.44.55.81.55,1.1.14.3.37.66.66,1.1.29.44.44.81.44,1.1.29.3.59.74.88,1.32.29.59.51,1.03.66,1.32,0,.3.18.77.55,1.43.36.66.7,1.14.99,1.43.44.3.96.96,1.54,1.98.58,1.03.95,1.76,1.1,2.21.29.44.7,1.07,1.21,1.87.51.81.92,1.36,1.21,1.65.29.3.66.74,1.1,1.32.44.59.73,1.03.88,1.32l1.98,3.31c.29.3.73.92,1.32,1.88.59.96,1.1,1.73,1.54,2.32.29.59.81,1.29,1.54,2.1.73.81,1.1,1.29,1.1,1.43.59.44,1.03.96,1.32,1.54,1.03.74,1.76,1.1,2.21,1.1.14,0,.48.22.99.66.51.44.99.96,1.43,1.54.58.59,1.47,1.54,2.65,2.87,1.18,1.32,1.98,2.21,2.43,2.65.44.44,1.21,1.25,2.32,2.43,1.1,1.18,1.88,1.98,2.32,2.43.29.44.92,1.1,1.88,1.98.95.88,1.58,1.47,1.87,1.76.44.29,1.03.51,1.76.66.73.14,1.25.22,1.54.22s.62.14.99.44c.36.29.7.59.99.88.29.29.73.59,1.32.88.59.29.96.51,1.1.66.14.14.26.4.33.77.07.36.11.62.11.77.14.14.29.4.44.77.14.36.36.7.66.99.29.29.7.51,1.21.66.51.14.84.22.99.22h.22c.44.44.73.44.88,0h.44c.59,0,1.03.14,1.32.44.29.14.48.44.55.88.07.44.11.81.11,1.1.14.29.48.66.99,1.1.51.44.84.66.99.66s.51-.08,1.1-.22c.59-.15.95-.22,1.1-.22s.48.14.99.44c.51.29,1.14.59,1.87.88.59.29,1.51.81,2.76,1.54,1.25.74,2.1,1.18,2.54,1.32.29.14.73.36,1.32.66.59.29.96.51,1.1.66l2.43,1.1c.59.29,1.18.66,1.76,1.1.14.59.36,1.03.66,1.32.14.15.51.33,1.1.55.59.22,1.1.48,1.54.77l.88.22.44.22c.29-.15.74-.3,1.32-.44.58-.15,1.25-.37,1.98-.66l.88.44,1.76.66c.73.14,1.47.26,2.21.33.73.07,1.18.11,1.32.11s.48.07.99.22c.51.15.92.29,1.21.44.29.14.77.26,1.43.33.66.07,1.07.11,1.21.11s.33.11.55.33c.22.22.26.4.11.55l.44,1.32c-.15.15-.08.22.22.22h.66c.14,0,.48.11.99.33.51.22.84.33.99.33.29,0,1.03-.15,2.21-.44l.22-.66,1.54-.22c.88.14,1.73.26,2.54.33.81.07,1.29.11,1.43.11s.33.07.55.22c.22.14.4.22.55.22s.37-.04.66-.11c.29-.08.59-.11.88-.11s.58.11.88.33c.29.22.51.4.66.55l.66.66c.59,0,1.03-.15,1.32-.44.14-.3.22-.66.22-1.1.14-.15.59-.26,1.32-.33.73-.08,1.47-.11,2.21-.11s1.95.04,3.64.11c1.69.07,2.61.11,2.76.11s.18.18.11.55c-.08.36-.11.62-.11.77s.29.25.88.33c.59.07,1.25.11,1.99.11s1.84-.04,3.31-.11c1.47-.08,2.28-.11,2.43-.11s.36-.08.66-.22c.29-.15.51-.22.66-.22s.37-.04.66-.11c.29-.08.59-.11.88-.11s.77-.04,1.43-.11c.66-.08,1.21-.19,1.65-.33.44-.15,1.14-.41,2.1-.77.95-.37,1.51-.55,1.65-.55.29,0,.95-.15,1.98-.44.59-.15,1.32-.3,2.21-.44.88-.15,1.47-.22,1.76-.22h5.29c.14,0,.44-.08.88-.22.44-.15.81-.3,1.1-.44.29-.15.88-.26,1.76-.33.88-.08,1.4-.11,1.54-.11s.44-.08.88-.22c.44-.15.88-.3,1.32-.44.29-.15.77-.15,1.43,0,.66.14,1.14.29,1.43.44.44.14.88.29,1.32.44.44.14.81.29,1.1.44.29.14.66.29,1.1.44.44.14.81.22,1.1.22s.62-.11.99-.33c.36-.22.62-.41.77-.55.14-.15.44-.41.88-.77.44-.37.73-.7.88-.99.29-.3.84-.48,1.66-.55.81-.08,1.36-.19,1.65-.33.29-.15.77-.33,1.43-.55.66-.22,1.06-.33,1.21-.33.59,0,.88.07.88.22.14.14.18.36.11.66-.08.29-.19.51-.33.66-.59.44-.88.88-.88,1.32.14.14.11.26-.11.33-.22.07-.26.04-.11-.11-.15-.3-.52-.59-1.1-.88l-.44.22-.44.22c.14.59,0,.88-.44.88-.15,0-.22.07-.22.22l.22-.22h.22c.14,0,.26-.04.33-.11.07-.08.18-.11.33-.11.29,0,.62.03.99.11.36.07.55.18.55.33.15.29,0,.66-.44,1.1.14.14.33.37.55.66.22.29.48.59.77.88s.7.51,1.21.66c.51.14.84.22.99.22s.26.11.33.33c.07.22.18.4.33.55.29.14.58.18.88.11.29-.08.51-.11.66-.11h1.1c.14,0,.4.07.77.22.36.14.62.22.77.22s.48-.08.99-.22c.51-.15.84-.22.99-.22l2.65-.88ZM2.92,163.9l-.22-.22c-.15,0-.22-.07-.22-.22v-.44c0-.14.07-.22.22-.22s.29.08.44.22l.22.44c0,.15-.08.3-.22.44h-.22ZM13.95,226.55h-.22c0-.15.07-.22.22-.22h.22v.44l-.22-.22ZM32.48,106.1v1.1h.22l.44-.22c.14-.14.22-.4.22-.77s.07-.62.22-.77c-.15-.14-.3-.29-.44-.44-.15,0-.22.08-.22.22.14.15.14.3,0,.44l-.44.44ZM32.92,110.52l.44-.44v-.22l-.22-.22c-.15,0-.22.08-.22.22s-.08.3-.22.44c0,.15.15.3.44.44,0,.15.07.22.22.22l-.44-.44ZM55.2,86.25c-.15.3-.37.59-.66.88s-.37.52-.22.66c-.15.15-.11.26.11.33.22.08.4.11.55.11s.33-.14.55-.44c.22-.29.4-.51.55-.66v-.44l-.22-.22v-.22l-.22.22c-.15.3-.22.52-.22.66l-.22-.88ZM56.53,81.62c-.15.15-.19.37-.11.66.07.3.11.52.11.66s.14.22.44.22c.14,0,.26-.22.33-.66.07-.44.11-.73.11-.88l-.66-.44c-.15,0-.22.08-.22.22.14.15.14.3,0,.44v-.22ZM57.63,98.16v1.76c.14.15.29.22.44.22h.22v-1.1c0-.14.04-.33.11-.55.07-.22.03-.4-.11-.55.14-.14.14-.26,0-.33-.15-.07-.3-.04-.44.11-.44.3-.59.81-.44,1.54l.22-1.1ZM65.35,64.19c-.15.3-.15.66,0,1.1.14.44.29.74.44.88.15.15.51.22,1.1.22.14,0,.26-.18.33-.55.07-.37.11-.62.11-.77v-.66c-.15-.44-.08-.81.22-1.1h-.22c-.3.15-.66.52-1.1,1.1l-.88-.22ZM69.98,60.66l.44.22c.14,0,.22.15.22.44,0,.15.07.22.22.22l.44.22-.22-.44-.22-.22h-.22v-.22l-.66-.22ZM76.16,53.38l-.22.44c-.15.15-.22.3-.22.44h.44c.44,0,.73-.07.88-.22.14-.14.18-.29.11-.44-.08-.14-.04-.29.11-.44,0-.44-.22-.44-.66,0l-.44.22ZM182.7,250.15v-.44c0-.15-.11-.26-.33-.33-.22-.08-.41-.11-.55-.11s-.33.03-.55.11c-.22.07-.41.11-.55.11s-.19.11-.11.33c.07.22.18.33.33.33h1.1c.14,0,.29-.08.44-.22l.22.22Z"/><path class="cls-1" d="M108.14,200.52h-.66c-.3-.14-.52-.36-.66-.66-.15-.29-.52-.36-1.1-.22-.44,0-1.03.15-1.76.44h-.66c-.15.3-.19.52-.11.66.07.15-.04.37-.33.66-.3-.14-.48-.25-.55-.33-.08-.07-.33-.18-.77-.33-.3,0-.44.11-.44.33s-.15.48-.44.77c-.3,1.03-1.03,1.4-2.21,1.1-.59-.73-.99-1.51-1.21-2.32-.22-.81-.41-1.73-.55-2.76-.3.3-.44.48-.44.55s-.08.19-.22.33c-.15.15-.26.3-.33.44-.08.15-.26.3-.55.44-.3.3-.52.08-.66-.66-.15-.29-.22-.62-.22-.99v-.99c-.3-.29-.44-.51-.44-.66s-.08-.36-.22-.66l-.66.66c-.3.15-.52.37-.66.66-.59-.29-.85-.66-.77-1.1.07-.44.03-.81-.11-1.1-.3-.14-.44-.44-.44-.88-.15-.44-.37-.44-.66,0-.3.15-.44.3-.44.44v.44h-.44c0-.59-.22-1.06-.66-1.43-.44-.37-.44-.92,0-1.65-.44-1.62-.22-3.38.66-5.29-.15-.29-.26-.55-.33-.77-.08-.22-.04-.48.11-.77.14-.58.11-1.14-.11-1.65-.22-.51-.11-1.06.33-1.65v-.22c-.3-1.47-.41-2.94-.33-4.41.07-1.47.03-2.94-.11-4.41-.15-.58-.19-1.18-.11-1.76.07-.58.11-1.17.11-1.76.14-.74.14-1.51,0-2.32-.15-.81-.08-1.58.22-2.32.44-.44.44-.95,0-1.54-.44-.88-.55-1.76-.33-2.65.22-.88.33-1.76.33-2.65.59-.73.81-1.51.66-2.32-.15-.81-.22-1.58-.22-2.32.14-.44.18-.88.11-1.32-.08-.44.11-.88.55-1.32l-.22-.88c-.15-1.76-.19-3.53-.11-5.29.07-1.76.26-3.6.55-5.51l1.54-9.26v-5.29c0-1.03.22-2.13.66-3.31.14-.59.29-1.18.44-1.76.14-.59.29-1.18.44-1.76,0-.59-.04-1.14-.11-1.65-.08-.51-.04-1.06.11-1.65,0-.59.04-1.14.11-1.66.07-.51.11-1.06.11-1.65.29-1.47.44-2.57.44-3.31.14-1.18.29-2.39.44-3.64.14-1.25.22-2.46.22-3.64,0-1.32.14-2.65.44-3.97.29-1.32.37-2.65.22-3.97v-1.32c.14-.44.29-.88.44-1.32.15-.44.07-.81-.22-1.1-.15-.29-.37-.51-.66-.66-.3-.14-.52-.29-.66-.44.29-1.32.55-2.61.77-3.86.22-1.25.48-2.46.77-3.64,0-1.18-.08-2.06-.22-2.65-.15-1.03-.11-2.02.11-2.98.22-.95.11-1.95-.33-2.98.44-.59.48-1.1.11-1.54-.37-.44-.63-.95-.77-1.54l.22.66c-.59.88-.96,1.25-1.1,1.1-.3-.44-.37-.88-.22-1.32.29-1.03.44-2.02.44-2.98v-2.98c.14-1.03.22-1.62.22-1.76.73-1.03,1.03-2.5.88-4.41.14-.29.18-.62.11-.99-.08-.36-.11-.7-.11-.99.14-.88.51-1.54,1.1-1.98l1.54-1.76c.44-.59,1.1-.81,1.98-.66.59.15,1.06.26,1.43.33.36.08.92-.03,1.65-.33.14-.29.18-.66.11-1.1-.08-.44-.04-.81.11-1.1-1.03-.29-1.4-.74-1.1-1.32-.15-.44-.08-.66.22-.66.73-.14,1.25-.44,1.54-.88.29-.44.44-1.03.44-1.76.29-.14.59-.22.88-.22s.58-.07.88-.22c.29-.14.51-.29.66-.44.14-.15.37-.37.66-.66.44.59.59,1.21.44,1.88-.15.66,0,1.36.44,2.1,1.47-1.03,2.28-2.5,2.43-4.41,0-.59-.3-1.1-.88-1.54-.44-.88-.3-1.47.44-1.76.73-.29,1.18-.95,1.32-1.98.44-.88.95-1.54,1.54-1.98.14-.29.25-.62.33-.99.07-.37.25-.7.55-.99,0-.59.36-1.03,1.1-1.32.73-.14,1.32.08,1.76.66.14.15.29.52.44,1.1.29.74.55,1.4.77,1.99.22.59.48,1.18.77,1.76.88,1.47,1.18,3.31.88,5.51-.3,1.91-.08,3.53.66,4.85.14,1.18.22,2.06.22,2.65-.15.74-.08,1.4.22,1.98.29.59.44,1.25.44,1.98s-.08,1.43-.22,2.1c-.15.66-.22,1.36-.22,2.1-.15.74-.19,1.51-.11,2.32.07.81-.04,1.58-.33,2.32-.15.15-.22.44-.22.88.44.59.62,1.18.55,1.76-.08.59-.19,1.25-.33,1.98-.44,1.47-.59,2.65-.44,3.53.29.88.29,1.54,0,1.98-.44,1.18-.55,2.39-.33,3.64.22,1.25.18,2.46-.11,3.64-.44,1.32-.44,2.5,0,3.53,0,.3-.08.52-.22.66-.44,1.47-.44,3.24,0,5.29-.15.59-.15,1.03,0,1.32-.15.59-.3,1.14-.44,1.65-.15.52-.3,1.07-.44,1.65-.59,1.03-.59,1.98,0,2.87,0,.3-.04.55-.11.77-.08.22-.11.48-.11.77-.3.74-.08,1.18.66,1.32.14,0,.29.22.44.66-.3,2.06-.44,4.12-.44,6.18s-.22,4.12-.66,6.18c-.15.44-.15,1.1,0,1.98.14.15.59.37,1.32.66-.15.44-.26.92-.33,1.43-.08.52-.04.92.11,1.21.29.88.14,1.47-.44,1.76-.3.3-.55.52-.77.66-.22.15-.55.37-.99.66,0,.74-.04,1.4-.11,1.99-.08.59.11,1.18.55,1.76-.3,1.03-.55,2.02-.77,2.98-.22.96-.26,2.02-.11,3.2.29-.29.44-.62.44-.99s.07-.7.22-.99c-.15-.44-.08-.88.22-1.32,0-.44.29-.66.88-.66.44,0,.59.3.44.88-.15,1.18-.26,2.28-.33,3.31-.08,1.03-.11,2.13-.11,3.31-.15.88-.15,1.54,0,1.99.14.74-.08,1.47-.66,2.2-.15.3-.37.48-.66.55-.3.08-.59.26-.88.55.29,1.18.44,2.06.44,2.65.29.15.55.11.77-.11.22-.22.48-.11.77.33v.66c-.15,1.32-.19,2.65-.11,3.97.07,1.32.11,2.65.11,3.97v.66h-.66c-.44-.14-.81-.18-1.1-.11-.3.08-.37.19-.22.33.29.3.66.52,1.1.66,0,.44-.15.7-.44.77-.3.08-.59.26-.88.55.14.3.26.52.33.66.07.15.18.37.33.66l1.32-.66c0,.3-.04.63-.11.99-.08.37-.19.7-.33.99,0,.3.03.52.11.66.07.15.18.37.33.66,0,.3-.15.66-.44,1.1-.3.44-.15.81.44,1.1l-.22.22c0,.15-.08.22-.22.22-.3.15-.74.37-1.32.66-.59.15-.66.52-.22,1.1.44-.14.88-.36,1.32-.66.29.15.51.22.66.22-.15,1.18-.22,2.28-.22,3.31s-.08,2.13-.22,3.31c0,.3-.15.52-.44.66-.44-.59-.7-.95-.77-1.1-.08-.14-.04-.58.11-1.32-.15-.59-.3-.95-.44-1.1,0-.14-.15-.22-.44-.22s-.44.15-.44.44.07.74.22,1.32c0,.3-.04.63-.11.99-.08.37-.11.7-.11.99s.07.52.22.66c.14.15.14.37,0,.66,0,.74-.08,1.43-.22,2.1-.15.66,0,1.36.44,2.1.15.15.15.33,0,.55-.15.22-.22.48-.22.77-.15.44-.08.88.22,1.32,0,.3.07.66.22,1.1.59,1.03.77,2.02.55,2.98-.22.96-.55,1.95-.99,2.98-.15.3-.3.74-.44,1.32v.88c.14.3.29.48.44.55.14.08.14.26,0,.55-.15.59-.26,1.18-.33,1.76-.08.59-.19,1.1-.33,1.54-.74,1.32-1.84,2.2-3.31,2.65-.59.15-1.03.59-1.32,1.32.29.3.51.52.66.66.14.15.36.37.66.66.44.44.44,1.03,0,1.76-.15.44-.33.85-.55,1.21-.22.37-.33.85-.33,1.43,0,.3-.15.59-.44.88-.3.3-.52.59-.66.88-.3-.44-.52-1.1-.66-1.99.29,0,.44-.07.44-.22.29-.44.22-1.1-.22-1.98h-.22c-.59.44-.66.88-.22,1.32,0,.3.14.52.44.66l-.88.66ZM95.79,101.25c.29-.44.44-.73.44-.88.14-.14,0-.44-.44-.88-.15.3-.3.59-.44.88,0,.15.04.26.11.33.07.08.18.26.33.55ZM106.82,193.68c-.15-.14-.19-.26-.11-.33s.11-.18.11-.33h-.22c0,.15-.04.26-.11.33s-.04.19.11.33h.22ZM109.03,196.33h-.66l-.22.22h.66l.22-.22ZM109.25,193.9h-.66l-.22.22h.66l.22-.22ZM116.31,163.24v-.22h-.22v.22h.22ZM116.75,158.16l.22-.22h-.22l-.22.22h.22ZM117.19,144.49v.66h.22v-.66h-.22Z"/><path class="cls-1" d="M157.11,123.31c.44.3.66.7.66,1.21v1.65c0,.15-.11.3-.33.44-.22.15-.41.3-.55.44s-.33.22-.55.22-.48.08-.77.22l-.22.44.22.22h.66c.88,0,1.25.44,1.1,1.32.14,1.03.14,2.21,0,3.53-.44-.59-.77-1.1-.99-1.54-.22-.44-.48-.88-.77-1.32-.59.15-.81.66-.66,1.54-.15.59,0,1.03.44,1.32.88.3,1.1.66.66,1.1-.15.44-.08.81.22,1.1.29.3.29.66,0,1.1-.59,1.18-.52,2.35.22,3.53h-.66c-.74.3-1.1.74-1.1,1.32,0,.74.11,1.18.33,1.32.22.15.7.37,1.43.66-.15.88-.22,1.47-.22,1.76s-.3.81-.88,1.54c.44.3.77.52.99.66.22.15.25.44.11.88-.15.74-.26,1.47-.33,2.21-.08.74-.26,1.47-.55,2.21-.44.88-.52,1.47-.22,1.76.29.3.36.66.22,1.1-.15.44-.3.81-.44,1.1-.59.59-.59,1.03,0,1.32l.22.66c0,.15-.04.22-.11.22s-.11.08-.11.22l-.22.22c.88.59.88,1.25,0,1.99l-.22,4.63c0,1.47.07,2.57.22,3.31.29.59.36,1.18.22,1.76-.15.59-.22,1.18-.22,1.76-.15.59-.15,1.14,0,1.66.14.52.07,1.07-.22,1.65.14.74.14,1.25,0,1.54-.59.88-.74,1.98-.44,3.31.14.59.18,1.14.11,1.65-.08.52-.11,1.07-.11,1.65-.15.15-.22.3-.22.44s-.08.3-.22.44c-.59.59-.96,1.4-1.1,2.43.29.59.14,1.25-.44,1.99-.44.74-.77,1.1-.99,1.1s-.63-.29-1.21-.88l-.66.66c-1.18.44-1.62,1.25-1.32,2.43.29.59-.15.74-1.32.44l-.88,1.98c-.15.3-.33.48-.55.55-.22.08-.41.26-.55.55l-.22,1.98c-.15.3-.22.63-.22.99s-.22.7-.66.99c-.3-.29-.55-.62-.77-.99-.22-.36-.41-.7-.55-.99-.74.59-1.18.88-1.32.88s-.44-.37-.88-1.1c-.44-.29-.74-.44-.88-.44v.44c-.15.88-.44,1.47-.88,1.76-.44.44-.59,1.18-.44,2.2.29.3.37.59.22.88-.15.3-.37.59-.66.88-.74.15-1.4.37-1.98.66-.59.3-1.25.15-1.98-.44l.88-.44c.29,0,.59-.07.88-.22.14-.29.36-.51.66-.66.14-.14.14-.36,0-.66-.15-.29-.33-.36-.55-.22-.22.15-.48.22-.77.22-.88.3-1.62.22-2.21-.22-.3-.14-.55-.18-.77-.11-.22.08-.48.11-.77.11-.88,0-1.25-.37-1.1-1.1l.44-1.32c.14-.29.07-.55-.22-.77-.3-.22-.59-.18-.88.11-.3.3-.59.48-.88.55-.3.08-.59-.03-.88-.33-.3-.44-.3-.88,0-1.32.59-.44.81-.88.66-1.32-.59-.73-.81-1.18-.66-1.32.14-.73.14-1.51,0-2.32-.15-.81,0-1.58.44-2.32.14-.73-.15-1.18-.88-1.32-.15,1.03-.26,2.02-.33,2.98-.08.96-.11,2.02-.11,3.2-.59-1.03-.88-1.84-.88-2.43s.07-1.32.22-2.21c.29-.73.37-1.4.22-1.98-.59-.88-.66-1.76-.22-2.65.29-.29.51-.73.66-1.32.15-.73.29-1.1.44-1.1.59-.29.92-.7.99-1.21.07-.51.04-1.06-.11-1.65-.15-.29-.26-.51-.33-.66-.08-.14-.11-.36-.11-.66-.59-2.5-.74-4.7-.44-6.62.14-.73.22-1.54.22-2.43s-.08-1.76-.22-2.65c.14-1.18.22-2.28.22-3.31s.22-2.13.66-3.31c.29-.29.29-.59,0-.88-.44-.44-.59-.92-.44-1.43.14-.51.22-1.06.22-1.65,0-.44-.08-1.1-.22-1.98-.3-.44-.37-.88-.22-1.32.29-.29.51-.73.66-1.32.14-1.47.22-2.9.22-4.3v-4.3c.14-1.03.26-2.02.33-2.98.07-.96.18-1.95.33-2.98-.15-.14,0-.36.44-.66.59-.29.88-.22.88.22.88.74,1.1,1.54.66,2.43-.59.88-.74,1.98-.44,3.31.14.59.22,1.14.22,1.65s.07,1.07.22,1.65c-.15.44.07.81.66,1.1.14-.44.22-.88.22-1.32v-1.32c0-.73-.04-1.51-.11-2.32-.08-.81-.04-1.58.11-2.32,0-.73.03-1.4.11-1.98.07-.59.11-1.25.11-1.98,0-.59.03-1.1.11-1.54.07-.44.11-.95.11-1.54,0-.44.04-.92.11-1.43.07-.51.18-1.06.33-1.65-.15-.59-.15-1.03,0-1.32-.15-.59-.08-1.1.22-1.54.14-.73.25-1.4.33-1.98.07-.59.18-1.25.33-1.98,0-1.47.03-2.9.11-4.3.07-1.4.33-2.83.77-4.3.29-.73.44-1.47.44-2.21s.07-1.47.22-2.21c.14-.88.22-1.76.22-2.65s.07-1.76.22-2.65c-.59-.29-.88-.14-.88.44-.15.74-.3,1.36-.44,1.87-.15.52-.15,1.14,0,1.88,0,.3-.04.63-.11.99-.08.37-.04.7.11.99-.3.3-.52.44-.66.44h-.44c-.59-1.47-.81-2.94-.66-4.41.14-.88.36-1.54.66-1.98.59-1.18.95-2.06,1.1-2.65.14-.73.22-1.51.22-2.32s.07-1.58.22-2.32c-.15-.73,0-1.1.44-1.1.29,0,.51.22.66.66l.22.88c.58-1.47.81-2.65.66-3.53-.15-.73-.15-1.43,0-2.1.14-.66.29-1.36.44-2.1-.74-.58-1.03-1.17-.88-1.76,0-.29-.04-.66-.11-1.1-.08-.44-.04-.96.11-1.54,0,.3.07.52.22.66.14.15.22.37.22.66.29.3.4.55.33.77-.08.22-.04.48.11.77.59-.59.81-1.25.66-1.98-.15-1.62-.15-3.16,0-4.63.15-1.47.37-3.01.66-4.63v-2.65c.14-.88.18-1.76.11-2.65-.08-.88-.04-1.76.11-2.65.14-1.18-.15-2.06-.88-2.65-.74-.44-.88-1.1-.44-1.98.14-.44.29-.84.44-1.21.15-.37.37-.7.66-.99.29-.14.51-.07.66.22.14.3.44.59.88.88,0,.15.14.22.44.22l.22-.44c-.88-2.21-.22-3.97,1.98-5.29.29,0,.44-.14.44-.44,0-.73.26-1.21.77-1.43.51-.22.92-.7,1.21-1.43.88,1.18,1.47,2.5,1.76,3.97.14.59.14,1.03,0,1.32.44.74.81.96,1.1.66.29-.15.44-.29.44-.44s.07-.29.22-.44l-.22-1.54c-.3-.29-.48-.59-.55-.88-.08-.29-.19-.59-.33-.88-.44-.29-.52-.62-.22-.99.29-.37.29-.7,0-.99,0-.14-.22-.36-.66-.66.29-.29.59-.44.88-.44h.88c.73-.14,1.1,0,1.1.44.14.44-.08.96-.66,1.54.29,1.47.74,2.5,1.32,3.09.44-.14.62-.29.55-.44-.08-.14-.11-.29-.11-.44,0-.44-.08-.95-.22-1.54.14-.29.29-.51.44-.66.14-.14.22-.37.22-.66.29-.29.59-.4.88-.33.29.08.44-.11.44-.55.14-.29.29-.55.44-.77.14-.22.29-.48.44-.77.29-.44.58-.66.88-.66s.59-.22.88-.66c.14-.44-.15-.81-.88-1.1-.3-.14-.88-.37-1.76-.66.14-.44.33-.84.55-1.21.22-.36.18-.77-.11-1.21-.15-.73.22-1.25,1.1-1.54.44-.14.59-.51.44-1.1.74-.29,1.62-.22,2.65.22l.44-.44c.44-.73.74-1.14.88-1.21.14-.07.66.11,1.54.55.15.3.26.52.33.66.07.15.11.37.11.66.44.59.73,1.03.88,1.32,0,.74.18,1.4.55,1.99.36.59.77,1.25,1.21,1.98.74.74,1.03,1.4.88,1.98,0,.3.14.63.44.99.29.37.51.7.66.99.14.3.11.48-.11.55-.22.08-.41.26-.55.55.44.3.81.63,1.1.99.29.37.74.41,1.32.11l1.76,1.32c.15.3.29.59.44.88.14.3.37.59.66.88.44.3.7.66.77,1.1.07.44.33.81.77,1.1.14.3.33.63.55.99.22.37.4.7.55.99l.44,1.98c.14,1.18.33,2.28.55,3.31.22,1.03.33,2.13.33,3.31,0,.44-.11.88-.33,1.32-.22.44-.48.81-.77,1.1-.59.59-.81,1.32-.66,2.2.14.59.33,1.14.55,1.66.22.52.33,1.07.33,1.65.14.3.44.44.88.44.14-.15.26-.26.33-.33.07-.07.18-.18.33-.33.14-.44.11-.88-.11-1.32-.22-.44-.11-.88.33-1.32.14-.29.26-.66.33-1.1.07-.44.18-.88.33-1.32l.22-.22c.14.15.33.22.55.22s.48.08.77.22c.44.15.66.3.66.44s.22.37.66.66c.14-.44.26-.84.33-1.21.07-.37.18-.77.33-1.21.14.44.29.81.44,1.1.14.3.07.59-.22.88-.3.59-.3,1.47,0,2.65.29,1.32.62,2.65.99,3.97.36,1.32.77,2.65,1.21,3.97.29.3.51.74.66,1.32-.15,1.47.44,2.43,1.76,2.87,1.03.3,1.18.74.44,1.32-.59.44-.74,1.1-.44,1.98,0,.3.03.52.11.66.07.15.18.37.33.66.44-.29.95-.44,1.54-.44v-1.99c.29.15.51.22.66.22h.22c.73.88,1.03,1.62.88,2.2-.15.59,0,1.03.44,1.32.44.3.51.74.22,1.32,0,1.18.07,2.06.22,2.65.14.44.25.92.33,1.43.07.52.33.99.77,1.43.73.88.73,1.69,0,2.43-.44.59-.59,1.1-.44,1.54.14.44.29.96.44,1.54l.66-.88h.44c0,1.18.44,2.06,1.32,2.65.44.44.59,1.1.44,1.98-.44,1.76-.3,3.46.44,5.07-.15.15-.22.37-.22.66.59,1.47.37,2.72-.66,3.75-.44-.29-.44-.73,0-1.32,0-.14-.04-.26-.11-.33-.08-.07-.11-.18-.11-.33h-.44c-.3.15-.59.44-.88.88,0,.74.07,1.47.22,2.21.14.74.66,1.32,1.54,1.76.29-.29.4-.7.33-1.21-.08-.51.18-.84.77-.99.29.59.29,1.32,0,2.21-.44.74-.59,1.54-.44,2.43.14.59.22,1.14.22,1.65s.14,1.07.44,1.65c.14.74.44,1.25.88,1.54.73.74.81,1.69.22,2.87-.15.3,0,.59.44.88.44.3.44.88,0,1.76h-.66.66l-.22,1.1c.29.3.66.74,1.1,1.32.73-.29.95-.88.66-1.76l-.66-3.97c-.15-.73.07-1.17.66-1.32.29,0,.44-.22.44-.66.14-.44.29-1.1.44-1.98.14-.73.26-1.51.33-2.32.07-.81.33-1.58.77-2.32.59-.58.88-1.25.88-1.98.14-1.47.33-2.9.55-4.3.22-1.4.48-2.83.77-4.3.14-1.18.29-2.39.44-3.64.14-1.25.14-2.46,0-3.64.14-.29.18-.51.11-.66-.08-.14.03-.36.33-.66.44-1.18.73-2.32.88-3.42.14-1.1.36-2.24.66-3.42l1.54-5.96c.14-1.03.59-1.98,1.32-2.87,0-.14-.22-.36-.66-.66-.3-1.03.22-1.76,1.54-2.2.14-1.47-.15-2.87-.88-4.19-.44-1.03-.3-1.76.44-2.21.14,0,.29-.36.44-1.1.14-.44.29-.92.44-1.43.15-.51.29-1.06.44-1.65-.15-.59.14-.59.88,0,.14.3.33.41.55.33.22-.07.33-.26.33-.55.29-.88-.15-1.47-1.32-1.76-.3-1.18-.22-2.24.22-3.2.44-.96.66-2.02.66-3.2.29.15.59.22.88.22.88-1.18,1.18-2.35.88-3.53l-.22-.88c.14-.59.29-1.14.44-1.65.14-.51.44-1.06.88-1.65l.44-.66c.59.44,1.1,1.1,1.54,1.98-.15.3-.19.52-.11.66.07.15.03.37-.11.66,0,.3-.22.74-.66,1.32l.22.66h.22l-.22-.66-.22-.44c.59.15,1.03,0,1.32-.44.29-.59.29-1.03,0-1.32,0-.14-.3-.44-.88-.88,0-1.62.03-2.65.11-3.09.07-.44.33-1.32.77-2.65-.44-.44-.85-.48-1.21-.11s-.77.55-1.21.55l1.98-6.62c0-.29.14-.48.44-.55.29-.07.51-.26.66-.55,0-.29-.04-.51-.11-.66-.08-.14-.04-.37.11-.66,0-.73.14-1.4.44-1.99.29-.58.59-1.25.88-1.98.14-.29.33-.48.55-.55.22-.07.48-.26.77-.55.14.3.26.52.33.66.07.15.26.37.55.66-.15.15-.3.26-.44.33-.15.08-.22.19-.22.33-.59.3-.88.48-.88.55s.22.41.66.99c.88-.59,1.43-.99,1.66-1.21.22-.22.55-.77.99-1.66.59-.88.88-1.69.88-2.43.14-.73.26-1.5.33-2.32.07-.81.26-1.58.55-2.32.14-.29.18-.66.11-1.1-.08-.44-.11-.88-.11-1.32-.44.3-.7.66-.77,1.1-.08.44-.26.81-.55,1.1h-1.32c-.15.59-.15,1.1,0,1.54.14.44.22.88.22,1.32l.22.66-.66.66h-.22c-.3-.29-.63-.58-.99-.88-.37-.29-.41-.73-.11-1.32v-.66c.14-.44.18-.88.11-1.32-.08-.44-.04-.88.11-1.32.14-.44.29-.84.44-1.21.14-.37.22-.84.22-1.43.29-.44.48-.88.55-1.32.07-.44.4-.73.99-.88.14-.29.18-.51.11-.66-.08-.14-.04-.36.11-.66.14-.73.29-1.18.44-1.32.14-.14.66-.22,1.54-.22.29,0,.37-.07.22-.22.14-.14.22-.29.22-.44-.3-.29-.52-.51-.66-.66-.3-.29-.37-.59-.22-.88.14-.44.58-.66,1.32-.66h.88c0-.29-.04-.62-.11-.99-.08-.36-.04-.7.11-.99.14-.73.18-1.4.11-1.98-.08-.59.18-1.18.77-1.76.29-.29.44-.62.44-.99s.07-.77.22-1.21c-.74,0-1.32.08-1.76.22.29-.59.59-1.32.88-2.21.14-.73.81-1.1,1.99-1.1.29-.44.55-.84.77-1.21.22-.37.26-.84.11-1.43h.66c.44-.14.7-.26.77-.33s.03-.48-.11-1.21c1.47-.44,2.54-1.14,3.2-2.1.66-.95,1.43-1.95,2.32-2.98,1.32.3,2.21.52,2.65.66.59.3.96.52,1.1.66v.88c.14.3,0,.44-.44.44-.3,0-.48-.03-.55-.11-.08-.07-.26-.11-.55-.11s-.44.08-.44.22c-.15.15-.22.3-.22.44.58.59,1.25.96,1.98,1.1.29.15.59.19.88.11.29-.07.59-.11.88-.11v-1.32c.29.15.51.22.66.22s.36.08.66.22c0-.14.14-.36.44-.66-.15-.73-.22-1.32-.22-1.76,0-.73.59-1.17,1.76-1.32l-.22,1.99c-.3.44-.33.81-.11,1.1.22.3.4.59.55.88,0,.15.29.22.88.22.29,0,.36-.29.22-.88.14-.14.14-.37,0-.66.29.88.51,1.54.66,1.98.14.59.26,1.18.33,1.76.07.59.26,1.1.55,1.54.14.15.18.3.11.44-.08.15.03.15.33,0-.15-.29-.15-.51,0-.66.29-1.03.29-1.91,0-2.65-.3-1.03-.22-1.84.22-2.43.29-.29.36-.51.22-.66-.15-.15-.3-.29-.44-.44-.15-.14-.44-.07-.88.22-.3.3-.37.66-.22,1.1-.59.3-1.03.22-1.32-.22-.15-.14-.22-.44-.22-.88.29-.88.44-1.76.44-2.65V0c1.03.74,1.98,1.47,2.87,2.2.88.74,1.69,1.62,2.43,2.65-.44.15-.96.37-1.54.66.14-.59.03-.96-.33-1.1-.37-.14-.7-.36-.99-.66-.3-.14-.66-.22-1.1-.22-.59,0-.59.37,0,1.1.44.59.88.88,1.32.88h1.32c.15.44.26.88.33,1.32.07.44.04.96-.11,1.54v.66c0,1.03.44,1.54,1.32,1.54h1.32c.29.3.14.74-.44,1.32l.22.44c.88.59,1.14,1.29.77,2.1-.37.81-.41,1.58-.11,2.32,0,.15-.04.26-.11.33s-.11.19-.11.33c-.3.3-.59.52-.88.66-.3.44-.37.96-.22,1.54.29.3.44.52.44.66.44.74.07,1.1-1.1,1.1-.59,0-.96.22-1.1.66.14.59.22,1.03.22,1.32,0,.44-.15.74-.44.88-.3.74-.41,1.18-.33,1.32.07.15.48.37,1.21.66.29.15.44.33.44.55s-.15.41-.44.55c-1.03.59-1.25,1.47-.66,2.65v.77c0,.22.07.48.22.77.29.74.29,1.4,0,1.99-.3.59-.74,1.25-1.32,1.98-.15-.29-.3-.59-.44-.88,0-.29.07-.51.22-.66s.22-.36.22-.66c0-.14-.22-.36-.66-.66,0-.14-.11-.18-.33-.11-.22.08-.33.26-.33.55,0,.15-.04.26-.11.33s-.04.19.11.33c-.15.3-.22.52-.22.66v.66c-.3-.14-.55-.4-.77-.77-.22-.36-.55-.7-.99-.99-.3-.29-.55-.51-.77-.66-.22-.14-.48-.29-.77-.44-.74-.29-1.18,0-1.32.88-.15.3-.19.63-.11.99.07.37.11.7.11.99.14.59-.08.88-.66.88-.88,0-1.4.52-1.54,1.54.14.88-.08,1.76-.66,2.65-.44.59-.66,1.03-.66,1.32-.15.74-.3,1.51-.44,2.32-.15.81-.52,1.58-1.1,2.32-.44.59-.77,1.21-.99,1.88-.22.66-.11,1.36.33,2.1-.15.3-.22.52-.22.66-.44-.29-.81-.74-1.1-1.32-.3-.14-.59-.22-.88-.22v.66c0,.15-.08.3-.22.44.29.3.44.52.44.66s.14.37.44.66c-.44.44-.59.66-.44.66-.15.15-.44,0-.88-.44l-.22-.88-.66.88c-.15.88-.19,1.76-.11,2.65.07.88-.11,1.76-.55,2.65-.3.3-.08.44.66.44.59,0,.88.22.88.66l-.22,1.98-1.32,3.31c-.15-.14-.52-.36-1.1-.66,0-.73.03-1.47.11-2.2.07-.73.04-1.47-.11-2.21,0,.15-.08.22-.22.22-.74.59-1.14.88-1.21.88-.08,0-.26-.14-.55-.44-.3-.29-.48-.55-.55-.77-.08-.22.18-.62.77-1.21v-.66c0-.29-.15-.44-.44-.44-.3-.14-.55-.03-.77.33-.22.37-.48.55-.77.55-.3.59-.55,1.14-.77,1.65-.22.52-.04,1.07.55,1.65.14.3.37.81.66,1.54-.3.59-.41,1.14-.33,1.65.07.52.04,1.07-.11,1.65,0,.44-.08.81-.22,1.1-.74.44-1.18,1.03-1.32,1.76.14.3.07.66-.22,1.1-1.18.88-1.62,1.99-1.32,3.31-.15.59-.22,1.14-.22,1.65s-.08,1.07-.22,1.65l-.44,7.28c0,.15-.08.37-.22.66-.88,1.47-1.18,2.87-.88,4.19-.3.74-.48,1.4-.55,1.98-.08.59-.11,1.25-.11,1.99l-.66,2.65c-.15.74.14,1.32.88,1.76h.66c.29,0,.36-.14.22-.44.14-.59.22-1.03.22-1.32-.3-.88-.3-1.76,0-2.65.29-.88.59-1.76.88-2.65.14-.44.29-.84.44-1.21.14-.37.14-.77,0-1.21-.15-.29-.08-.59.22-.88.59-.59.88-1.18.88-1.76s.07-1.25.22-1.98c.14-.73.29-1.1.44-1.1.29-.44.4-.92.33-1.43-.08-.51-.04-.99.11-1.43.29-.59.48-1.1.55-1.54.07-.44.11-.96.11-1.54.14-.73.37-1.51.66-2.32.29-.81.51-1.58.66-2.32.14-.14.37-.22.66-.22.14.3.18.55.11.77-.08.22-.11.48-.11.77-.74,2.5-1.32,4.93-1.76,7.28v2.65c-.15.88-.37,1.54-.66,1.98l-.66.66c-.15,1.18-.3,2.28-.44,3.31-.15,1.03-.3,2.13-.44,3.31-.15.88-.15,1.54,0,1.98.29.3.29.59,0,.88-1.03,1.47-1.25,3.31-.66,5.51.29.3.7.52,1.21.66.51.15.92.37,1.21.66l-2.21,1.98c0,.44.04.88.11,1.32.07.44.11.88.11,1.32.15.3.22.63.22.99s-.3.7-.88.99c-.3.3-.37.96-.22,1.98,0,.15.07.22.22.22s.29.08.44.22c.29.3.44.52.44.66l.22.44c-.3.15-.55.26-.77.33-.22.08-.41.19-.55.33-.15.74-.26,1.36-.33,1.87-.08.52-.19,1.07-.33,1.65l.22,1.1c.14.44.22,1.1.22,1.98-.15.74-.22,1.47-.22,2.21s.22,1.47.66,2.21c.14.59.14,1.03,0,1.32,0,1.32-.04,2.65-.11,3.97-.08,1.32-.26,2.65-.55,3.97-.59,1.91-.88,4.12-.88,6.62.14.59.26,1.14.33,1.65.07.52-.19,1.07-.77,1.65,0,.44-.04.88-.11,1.32-.08.44-.04.88.11,1.32.14.59.26,1.1.33,1.54.07.44.04.96-.11,1.54-.15-.14-.59-.36-1.32-.66v3.31c-.15.44-.19.88-.11,1.32.07.44.03.88-.11,1.32-.15,1.32-.19,2.65-.11,3.97.07,1.32.11,2.65.11,3.97,0,1.62-.3,3.24-.88,4.85-.44,1.18-.66,2.32-.66,3.42s.07,2.24.22,3.42c0,1.03-.04,2.02-.11,2.98-.08.96-.11,1.95-.11,2.98l-.22,2.65h1.32c0,.59-.08,1.32-.22,2.21-.15.15-.33.26-.55.33-.22.08-.48.26-.77.55,0,.74.03,1.4.11,1.98.07.59.18,1.25.33,1.99v2.65c-.3.74-.08,1.1.66,1.1.14,0,.25-.11.33-.33.07-.22.25-.48.55-.77.44,1.18.66,2.06.66,2.65-.3.88-.74,1.4-1.32,1.54-.74.15-1.1.52-1.1,1.1,0,.3-.08.52-.22.66.44,1.03.55,2.02.33,2.98-.22.96-.33,1.95-.33,2.98-.15,1.32-.59,2.8-1.32,4.41-.15.3-.3.52-.44.66-.15.15-.37.3-.66.44-.15.15-.37.19-.66.11-.3-.07-.59-.11-.88-.11-.15.3-.33.63-.55.99-.22.37-.41.77-.55,1.21-.44.44-.81.66-1.1.66-.88,0-1.47.37-1.76,1.1,0,.15-.15.44-.44.88-.15-.29-.26-.55-.33-.77-.08-.22-.19-.48-.33-.77-1.03,0-1.69.52-1.98,1.54v1.76h-.66l-.22.44h.66c.44-.59.88-.73,1.32-.44.29.3.58.52.88.66.29.15.59.37.88.66-.15.44-.44.81-.88,1.1-.44.15-.96.22-1.54.22-1.03.3-1.69.96-1.98,1.99.14.15.07.36-.22.66-.44.59-.88.59-1.32,0-.88-.59-1.69-.37-2.43.66-.15.14-.26.29-.33.44-.08.14-.19.29-.33.44,0,.14-.22.22-.66.22-.3,0-.52-.22-.66-.66.29-.3.36-.52.22-.66-.88,0-1.47-.08-1.76-.22-.3-.15-.74,0-1.32.44l-.88.88c-.15,0-.26-.04-.33-.11-.08-.08-.19-.11-.33-.11v-.22c.14-.88.07-1.47-.22-1.76-.3-.29-.63-.51-.99-.66-.37-.15-.7-.15-.99,0-.59.15-1.18,0-1.76-.44-1.91-1.47-2.57-3.45-1.98-5.96.14-.29.18-.51.11-.66-.08-.14-.26-.07-.55.22-.59-.14-1.1-.44-1.54-.88-.44-.44-.59-.96-.44-1.54,0-.14.14-.36.44-.66h.44c.88-.44,1.18-1.03.88-1.76-.15-.58-.3-1.14-.44-1.65-.15-.51-.44-1.06-.88-1.65-.15-.44-.37-.88-.66-1.32-.3-.44-.52-.96-.66-1.54-.3-.73-.55-1.4-.77-1.98-.22-.59-.41-1.25-.55-1.98-.59-1.76-1.1-3.53-1.54-5.29-.44-1.76-.96-3.6-1.54-5.51-.3-.14-.48-.25-.55-.33-.08-.07-.26-.18-.55-.33-.44-.14-.74-.51-.88-1.1.14-.88.29-1.47.44-1.76,0-1.03-.15-1.69-.44-1.99-.88-.88-1.1-1.76-.66-2.65,0-.44-.08-.66-.22-.66-.59,0-.88.15-.88.44-.15.3-.22.52-.22.66s-.08.37-.22.66l.44,1.98c-.44-.59-.81-1.03-1.1-1.32-.3-.29-.44-.73-.44-1.32.14-1.03.51-1.84,1.1-2.43.29-.14.59-.37.88-.66v-.22c0-.29.07-.88.22-1.76,0-.88-.37-1.84-1.1-2.87-.15-.29-.33-.62-.55-.99-.22-.37-.33-.7-.33-.99,0-.73-.11-1.36-.33-1.87-.22-.51-.55-1.06-.99-1.65-.88-1.03-.96-2.06-.22-3.09,0-.29-.08-.96-.22-1.99,0-.88-.11-1.76-.33-2.65-.22-.88-.41-1.76-.55-2.65,0-.29-.04-.51-.11-.66-.08-.14-.11-.29-.11-.44-.74-.88-1.18-1.84-1.32-2.87-.15-1.03-.37-2.06-.66-3.09,0-.29.07-.73.22-1.32.14-.44.07-.81-.22-1.1-.74-.88-1.21-1.87-1.43-2.98s-.48-2.24-.77-3.42c0-.14-.04-.26-.11-.33-.08-.07-.11-.18-.11-.33-1.03-.44-1.25-1.1-.66-1.98,0-.15.03-.26.11-.33.07-.07.04-.18-.11-.33-.15-1.17-.11-2.43.11-3.75.22-1.32.18-2.57-.11-3.75l-1.54-7.28-.44-1.1c-.15.74-.19,1.36-.11,1.87.07.52-.04.99-.33,1.43,0,.44-.08.88-.22,1.32-.15.44-.22.88-.22,1.32-.15.44-.15.88,0,1.32.14.44.14,1.03,0,1.76-.74-.88-1.14-1.69-1.21-2.43-.08-.73-.19-1.47-.33-2.2-.15-.73-.33-1.43-.55-2.1-.22-.66-.41-1.36-.55-2.1-.15-.73-.33-1.47-.55-2.21-.22-.73-.26-1.54-.11-2.43h.88c.14-.44.29-.88.44-1.32.14-.44.29-.81.44-1.1.73-1.17.81-2.5.22-3.97h-.22c-.74,1.18-1.18,2.02-1.32,2.54-.15.52-.22,1.51-.22,2.98-.44-.44-.74-.84-.88-1.21-.15-.36-.37-.7-.66-.99.14-.14.07-.22-.22-.22-.44,0-.66.15-.66.44-.3.74-.37,1.4-.22,1.98-.15.88-.44,1.4-.88,1.54-.44,0-.59.3-.44.88.58.74.92,1.47.99,2.2.07.74.03,1.47-.11,2.21-.15.59-.26,1.14-.33,1.65-.08.52.03,1.07.33,1.65,0,.3-.22.59-.66.88-1.62.59-2.06,1.4-1.32,2.43.14-.44.33-.88.55-1.32.22-.44.4-.88.55-1.32l-.66-1.54ZM130.42,186.18c0-.29.07-.51.22-.66-.44.3-.66.52-.66.66l.22.44c.29-.14.51-.36.66-.66l-.44.22ZM131.53,172.5c0-.14-.15-.36-.44-.66,0,.15-.04.26-.11.33-.08.08-.11.19-.11.33l.22.66.22-.22.22-.44ZM136.6,102.13c0-.29-.08-.51-.22-.66,0,.15-.08.26-.22.33-.15.08-.22.19-.22.33l.22.66c0-.15.07-.37.22-.66h.22ZM136.82,99.04c.14.15.18.26.11.33-.08.08-.11.19-.11.33,0-.15.07-.26.22-.33.14-.07.14-.18,0-.33v-.66c0,.15-.04.26-.11.33-.08.08-.11.19-.11.33ZM145.42,195.22c-.59-.29-.96-.44-1.1-.44-.3,0-.59.15-.88.44l.22.22h.66c.14,0,.36-.14.66-.44l.44.22ZM145.42,62.43c-.15.15-.15.3,0,.44.14,0,.22-.03.22-.11s.07-.11.22-.11c0-.14-.15-.36-.44-.66h-.66l.66.44ZM153.59,136.55c.14-.59.14-.96,0-1.1-.59-.14-1.03,0-1.32.44-.44.88-.66,1.54-.66,1.98-.3.74-.08,1.18.66,1.32h.88v-.22c.59.3.88.22.88-.22l.22-1.98c0-.29-.08-.48-.22-.55-.15-.07-.3-.26-.44-.55v.88ZM153.59,146.91c.14-.29.36-.51.66-.66-.3.3-.44.37-.44.22s-.08-.22-.22-.22v.66ZM153.59,146.69c0,.59.03.92.11.99.07.08.48-.03,1.21-.33-.15-.14-.59-.36-1.32-.66ZM153.59,158.16h.66c.14-.44.22-.88.22-1.32s.07-.88.22-1.32c0-.14-.08-.26-.22-.33-.15-.07-.22-.18-.22-.33h-.44l-.22.22c.14.59.25,1.14.33,1.65.07.52.18,1.07.33,1.65l-.66-.22ZM154.47,139.85h-.66c-.15.3-.15.74,0,1.32,0-.14.22,0,.66.44,0-.14.14-.37.44-.66-.3-.29-.44-.51-.44-.66s-.08-.37-.22-.66l.22.22ZM155.13,150l.44-.66-.22-.66c-.3,0-.59.08-.88.22v.33c0,.08-.08.19-.22.33v.22h.66l.22.22ZM155.57,161.69v.66c-.15.15-.37.37-.66.66h-.22c-.3-.44-.15-.81.44-1.1h.22l.22-.22ZM155.35,130.37c.29.3.4.52.33.66-.08.15-.04.37.11.66h-.44c0-.14-.08-.26-.22-.33-.15-.07-.22-.18-.22-.33.14-.29.36-.66.66-1.1l-.22.44ZM157.34,114.71c-.15,0-.37-.07-.66-.22l-.22.44c.14,0,.29.08.44.22l.44-.44ZM156.89,112.72l1.54-.88c.29-.14.48-.33.55-.55.07-.22.03-.33-.11-.33-.3,0-.59.08-.88.22-.3.15-.52.3-.66.44s-.22.52-.22,1.1h-.22ZM159.1,48.75c.14.44.29.66.44.66l-.22-.66c.29-.29.29-.44,0-.44h-.44v.22h.66l-.44.22ZM163.07,121.77c.44-.44.51-1.25.22-2.43-.15-.44-.44-.66-.88-.66-.59,0-.81.22-.66.66,0,.44.11.81.33,1.1.22.3.48.59.77.88l.22.44ZM163.51,52.5c-.15.74-.19,1.21-.11,1.43.07.22.33.55.77.99-.15-.44-.3-.84-.44-1.21-.15-.36-.22-.77-.22-1.21ZM167.7,60.22h.22v-.22h-.22v.22ZM169.69,114.49c.14.15.26.22.33.22s.03-.07-.11-.22h-.22ZM170.57,63.31l-.22.22h.66l.22-.22h-.66ZM185.13,95.07c0,.15-.08.3-.22.44s-.08.22.22.22l.44-.44c0-.14-.15-.22-.44-.22ZM187.34,99.93c-.3-.29-.44-.51-.44-.66l-.44.22.88.66h.22l-.22-.22ZM191.53,142.5h.66c-.59.88-.52,1.84.22,2.87.59-.59.96-.95,1.1-1.1.14-.14,0-.51-.44-1.1-.44.15-.66.44-.66.88-.3-.29-.44-.51-.44-.66s-.08-.37-.22-.66l-.22-.22ZM192.85,127.06c.29.44.22.96-.22,1.54-.59-.59-.59-1.1,0-1.54h.22ZM194.17,137.65v.22h.22v-.22h-.22ZM194.39,134.78h.22c-.15.15-.15.37,0,.66-.15.15-.26.22-.33.22-.08,0-.04-.07.11-.22-.15-.29-.15-.51,0-.66ZM202.12,126.62c-.44.74-.66,1.32-.66,1.76s.07.88.22,1.32c.14.44.37.52.66.22-.15-.59-.22-1.18-.22-1.76v-1.98.44ZM204.54,112.06l-.22-.66-.44.66.22.66h.44c.14-.14.22-.37.22-.66h-.22ZM206.97,215.52l-.22-.22h-.66l.44.22c.14,0,.14-.07,0-.22l.44.22ZM208.95,95.07c-.15.3-.3.48-.44.55-.15.08-.3.19-.44.33.14,0,.36.08.66.22l.44-.66-.44-.44h.22ZM210.28,80.52c-.44-.14-.66-.26-.66-.33s-.08-.18-.22-.33c-.15-.14-.3-.14-.44,0s-.22.3-.22.44l.88.66c.29-.29.59-.59.88-.88l-.22.44ZM209.62,78.09c.14-.14.22-.36.22-.66l-.22.66ZM210.06,71.03c.14.74.14,1.54,0,2.43,0,.3.14.44.44.44l.22-.44c.29-1.18.07-2.06-.66-2.65v.22ZM211.16,112.28c-.15.44-.26.88-.33,1.32-.08.44-.04,1.03.11,1.76.14-.73.22-1.32.22-1.76v-1.32ZM213.59,89.34h-.66c-.15.3-.37.74-.66,1.32-.3,1.76-.59,3.53-.88,5.29-.3,1.76-.37,3.61-.22,5.51.44-.73.81-1.47,1.1-2.2.29-.73.44-1.47.44-2.21-.15-.29-.19-.59-.11-.88.07-.29.18-.59.33-.88,0-.44.03-.88.11-1.32.07-.44.11-.88.11-1.32.14-.59.29-1.47.44-2.65v-.66ZM212.04,81.62c-.15-.29-.19-.51-.11-.66.07-.14.04-.37-.11-.66.14.3.18.52.11.66-.08.15-.04.37.11.66h-.66.66ZM212.48,78.53v-2.65c.14.3.07.74-.22,1.32.15.3.18.52.11.66-.08.15-.04.37.11.66h-.66.66ZM213.59,85.59c-.44.59-.66,1.03-.66,1.32,0,.15-.04.26-.11.33s-.11.19-.11.33l.22.66c.29,0,.44-.07.44-.22.14-.44.14-1.1,0-1.98h.22-.22l.22-.44ZM214.91,125.96c0-.14.03-.25.11-.33.07-.07.11-.18.11-.33h-.22c0,.15-.04.26-.11.33-.08.08-.11.19-.11.33h.22ZM218.88,77.87c-.59-.14-1.03.04-1.32.55-.3.52-.66.63-1.1.33-.3-.29-.37-.7-.22-1.21.14-.51-.08-.92-.66-1.21-.15.88-.22,1.4-.22,1.54-.15.59-.22,1.03-.22,1.32.44.3.77.52.99.66.22.15.55.37.99.66.44-.59.59-.88.44-.88.29-.14.73-.22,1.32-.22h.88c-.15-.29-.19-.51-.11-.66.07-.14.03-.36-.11-.66v-.66l-.66.44ZM216.67,81.4c.44-.14.73-.33.88-.55.14-.22.29-.48.44-.77,0-.14-.04-.25-.11-.33-.08-.07-.11-.18-.11-.33-.59-.44-.96-.29-1.1.44-.15.3-.19.52-.11.66.07.15.03.37-.11.66l.22.22ZM216.67,59.56c.14-.14.22-.36.22-.66,0,.3-.08.52-.22.66ZM217.78,71.03c-.3.59-.44,1.14-.44,1.65s-.08,1.14-.22,1.87c.59-.73.92-1.25.99-1.54.07-.29-.04-.96-.33-1.98ZM219.54,81.18c.14-.14.22-.36.22-.66s-.22-.59-.66-.88c-.15-.14-.33-.18-.55-.11-.22.08-.33.26-.33.55-.15.3,0,.59.44.88l.44.44.44-.22ZM218.66,48.97c0,.3-.08.48-.22.55-.15.08-.22.19-.22.33,0,.3.14.52.44.66-.15-.14-.15-.26,0-.33.14-.07.22-.18.22-.33s.04-.26.11-.33-.04-.26-.33-.55ZM220.64,61.99c-.74-.29-1.1-.22-1.1.22-.3,1.18-.52,2.06-.66,2.65v.55c0,.22.22.26.66.11.14-.73.37-1.4.66-1.99.29-.58.59-1.25.88-1.98l-.44.44ZM219.76,109.85c-.3,1.03-.08,1.91.66,2.65,0-.88-.3-1.69-.88-2.43l.22-.22ZM219.98,105c.73-.14,1.18-.4,1.32-.77.14-.36.22-.77.22-1.21-.15-.59-.22-.81-.22-.66-.3.15-.59.37-.88.66-.44.59-.52,1.4-.22,2.43l-.22-.44ZM220.64,99.27c-.15.44-.22.77-.22.99v.77c.14.3.44.44.88.44.14,0,.29-.14.44-.44.29-.14.44-.37.44-.66,0-.59-.04-1.14-.11-1.66-.08-.51.11-1.06.55-1.65l-.44-.22c-.44,0-.59.08-.44.22-.3.44-.52.88-.66,1.32-.15.44-.3.81-.44,1.1v-.22ZM220.64,56.03h1.32c-.74,1.62-.96,2.94-.66,3.97.59-.73.92-1.29.99-1.65.07-.37-.04-1.14-.33-2.32-.15,0-.26-.03-.33-.11-.08-.07-.19-.11-.33-.11-.3-.14-.52,0-.66.44v-.22.22-.22ZM221.53,68.38c0,.15-.08.26-.22.33-.15.08-.15.19,0,.33,0,.3.07.44.22.44.44,0,.58-.29.44-.88l-.88-.66.44.44ZM221.53,52.28c-.15.74-.08,1.25.22,1.54,0,.3.14.44.44.44.44,0,.66-.14.66-.44.14-.44.18-.88.11-1.32-.08-.44-.04-.88.11-1.32.44-.44.59-.95.44-1.54,0-.29.07-.88.22-1.76,0-.29-.15-.44-.44-.44h-.44l-.66.66c-.74.3-1.03.96-.88,1.99.14.3.14.88,0,1.76l.22.44ZM222.85,32.21c.14-1.03-.15-1.62-.88-1.76h-.22c-.15.3,0,.81.44,1.54h.22c.14,0,.29-.03.44-.11.14-.07.29-.11.44-.11l-.44.44ZM222.41,108.75v.22h-.22v-.22h.22ZM223.07,62.87c0,.3-.08.52-.22.66l.44-.22h-.22v-.44ZM223.51,125.74c.14-.14.22-.36.22-.66h.22c0,.3-.08.52-.22.66h-.22ZM228.14,38.38v-.22h-.22c.29-.44.51-.81.66-1.1-.15-.44-.37-.59-.66-.44-.3,0-.37.15-.22.44-.15.15-.22.37-.22.66-.88,0-1.25.37-1.1,1.1.14.3.18.52.11.66-.08.15-.04.37.11.66,0,.15-.08.22-.22.22h-.44c-1.18,0-1.47-.59-.88-1.76v-.66c.44-.14.73-.59.88-1.32,0-.29-.08-.51-.22-.66-.15.15-.26.22-.33.22s-.19.08-.33.22c.14.3.18.52.11.66-.08.15-.11.37-.11.66h-1.32c0,1.32.04,2.61.11,3.86.07,1.25.4,2.47.99,3.64.14-.14.4-.26.77-.33.36-.07.7-.18.99-.33.44.44.51.92.22,1.43-.3.52-.22,1.07.22,1.66.14-.74.22-1.32.22-1.76v-1.32c0-.44.18-.84.55-1.21.37-.36.4-.84.11-1.43h-1.32c-.15-.73-.19-1.36-.11-1.87.07-.51.18-1.07.33-1.66.29,0,.29.15,0,.44l1.32-.44ZM224.17,58.24c.14.3.07.74-.22,1.32.29-.59.36-1.03.22-1.32ZM224.84,122.87c.14.3,0,.52-.44.66l-.22-.66c0-.14.07-.25.22-.33.14-.07.22-.18.22-.33v.66h.22ZM225.28,28.24c0,.3-.08.52-.22.66s-.08.37.22.66c.14-.14.22-.36.22-.66l-.22-.66ZM226.16,61.32c.59.44.81.92.66,1.43-.15.52-.3.99-.44,1.43.14-.59.22-1.47.22-2.65-.3-.29-.37-.51-.22-.66v-.44l.22.66.22.66-.66-.44ZM227.04,49.63c.14-.14.14-.37,0-.66h-.22c.14.3.14.52,0,.66h.22ZM227.26,65.07c0,.3-.08.52-.22.66,0-.14-.04-.26-.11-.33-.08-.07-.11-.18-.11-.33.14-.29.22-.51.22-.66v.66h.22ZM229.69,54.49c-.15-.73-.15-1.54,0-2.43,0-.73-.3-1.18-.88-1.32,0,1.47.07,2.35.22,2.65.14.3.44.66.88,1.1h-.22ZM230.13,51.62h.22v1.76c0,.59.29,1.1.88,1.54.44-.14.59-.36.44-.66.59-.73,1.06-1.43,1.43-2.1.36-.66.33-1.36-.11-2.09-.15-.15-.15-.29,0-.44s.14-.37,0-.66c.14-.29.18-.51.11-.66-.08-.14-.04-.37.11-.66-.15-.74-.44-.81-.88-.22-.3.3-.52.55-.66.77-.15.22-.44.26-.88.11-.59-.29-.96-.14-1.1.44,0,.3.29.44.88.44.29,0,.51.15.66.44l-.33.66c-.08.15-.19.37-.33.66l-.44.66ZM230.35,26.47c.29,0,.44-.07.44-.22l-.22-.22c-.15,0-.3.08-.44.22l.22.66v-.44ZM233,45.22v-1.66c0-.22-.22-.7-.66-1.43,0,.59-.08,1.1-.22,1.54-.15.44-.08.88.22,1.32h.44l.22.22ZM235.2,43.01c.44-.59.77-1.1.99-1.54.22-.44.55-.88.99-1.32-.15-.14-.3-.29-.44-.44-.15-.14-.22-.29-.22-.44-.74-.29-1.18-.14-1.32.44,0,.74-.3,1.69-.88,2.87l.44.44h.44ZM234.98,5.96c.14.15.22.26.22.33s.07.19.22.33c.14,0,.37-.14.66-.44l-.22-.66c-.15.15-.37.37-.66.66l-.22-.22ZM235.65,7.5h.22v.22h-.22v-.22ZM238.95,35.96c-.15-.14-.19-.25-.11-.33.07-.07.11-.18.11-.33h-.22c0,.15-.04.26-.11.33-.08.08-.04.19.11.33h.22ZM239.62,40.15l-.22-.22h.22v.22ZM246.68,28.68c0-.29.07-.51.22-.66.14-.15.22-.37.22-.66h-.44c.14.3.18.52.11.66-.08.15-.04.37.11.66,0,.59-.15,1.03-.44,1.32-.59.44-.96.81-1.1,1.1.15.88.37,1.4.66,1.54,1.17-.29,1.73-.77,1.65-1.43-.08-.66-.11-1.36-.11-2.1h-.66l-.22-.44ZM248,8.82v-.66h.22v.66h-.22ZM251.31,28.46h.22v-.22.22h-.22Z"/><path class="cls-1" d="M306.89,175.15c.29.3.48.52.55.66.07.15.26.3.55.44.29.3.59.59.88.88.29.3.66.59,1.1.88.44.3,1.03.88,1.76,1.76.59-1.03,1.18-1.32,1.76-.88l.88-1.98-.22-.22c-.88,0-1.47-.29-1.76-.88,0-.59-.37-.88-1.1-.88v-2.2c.44.3.73.52.88.66.14.15.44.3.88.44.29.15.48.33.55.55.07.22.26.48.55.77.29.3.66.48,1.1.55.44.08.96.26,1.54.55,0,.15.03.26.11.33.07.08.11.26.11.55-.59.88-.44,1.1.44.66.88-.44,1.4-.22,1.54.66l.22.66c.29.3.58.55.88.77.29.22.73.19,1.32-.11h.66c.29,0,.51.08.66.22.59.15.66.52.22,1.1v.66h.66c.73-.44,1.03-.29.88.44,0,1.47.07,2.57.22,3.31-.15.59-.37.88-.66.88s-.59.11-.88.33c-.3.22-.59.48-.88.77-.44-.29-.66-.51-.66-.66,0-.73-.26-1.36-.77-1.88-.52-.51-.92-1.14-1.21-1.87-.74,1.47-.66,2.57.22,3.31.29.59.51,1.18.66,1.76.14.59.29,1.25.44,1.98-.15.15-.22.3-.22.44s-.08.3-.22.44c-.44.15-.81.15-1.1,0-.3-.15-.66-.37-1.1-.66-.3-.29-.55-.51-.77-.66-.22-.14-.55-.36-.99-.66-.15,0-.44.15-.88.44-.44.44-.44.66,0,.66.14.15.59.37,1.32.66.59.44.81.81.66,1.1,0,.44.11.7.33.77.22.08.48.19.77.33.88.3,1.03,1.03.44,2.2-.3.59-.44.96-.44,1.1s.29.44.88.88c.14-.59.22-1.03.22-1.32,0-.44.22-.66.66-.66s.73.15.88.44c.29.44.37.81.22,1.1-.3.3-.48.63-.55.99-.08.37-.19.7-.33.99-.59,0-.88.15-.88.44v1.1c.14.3.14.66,0,1.1-.15.44-.15.81,0,1.1.14.88.14,1.54,0,1.99-.59.3-1.07.26-1.43-.11-.37-.37-.77-.4-1.21-.11-.15-.14-.59-.36-1.32-.66-.44-.44-.92-.92-1.43-1.43-.52-.51-1.07-.99-1.65-1.43-.74-.29-1.1-.14-1.1.44-.3.15-.52.22-.66.22-.15.15-.3.22-.44.22h-.22c-.15.44-.04.77.33.99.37.22.48.48.33.77-.3.3-.59.33-.88.11-.3-.22-.59-.11-.88.33h-.22c-.3,0-.44-.07-.44-.22-.15-.29-.33-.51-.55-.66-.22-.14-.41-.36-.55-.66,0-.29.07-.48.22-.55.14-.07.29-.26.44-.55,0-.14-.22-.36-.66-.66-.15-.29-.37-.4-.66-.33-.3.08-.44.26-.44.55v1.32c-.15.44-.33.7-.55.77-.22.08-.48.19-.77.33.15,1.18.29,1.84.44,1.99.14.15.44.37.88.66.14.3.07.55-.22.77-.3.22-.22.48.22.77.29.15.36.33.22.55-.15.22-.37.41-.66.55-.59.3-.66.59-.22.88v-.22c-.44-.14-.7-.26-.77-.33-.08-.07-.26-.18-.55-.33-.44-.14-1.03-.36-1.76-.66-.3.59-.55,1.1-.77,1.54-.22.44.03.81.77,1.1-.3.3-.59.52-.88.66-.44-.44-.99-.88-1.65-1.32s-1.43-.88-2.32-1.32c-.44-.29-.59-.51-.44-.66,0-.73-.19-1.14-.55-1.21-.37-.07-.85-.11-1.43-.11-.3,0-.59-.11-.88-.33-.3-.22-.59-.4-.88-.55-.59-.14-1.1-.51-1.54-1.1-.74-.59-1.4-1.07-1.98-1.43-.59-.37-1.32-.62-2.21-.77-.59,0-1.03-.14-1.32-.44-.15-.73-.74-1.25-1.76-1.54-.3-.14-.55-.33-.77-.55-.22-.22-.48-.48-.77-.77-1.03-1.18-2.13-2.21-3.31-3.09-.44-.14-.81-.14-1.1,0v-.22h-.22l.44,2.65-.88-.44c-.59-.44-1.14-.88-1.66-1.32-.52-.44-.99-.88-1.43-1.32-.59-.58-1.18-1.1-1.76-1.54-.59-.44-.81-1.18-.66-2.21-.88-.29-1.36-.73-1.43-1.32-.08-.59-.19-1.1-.33-1.54h-1.32c-.3-.29-.44-.51-.44-.66s-.22-.37-.66-.66c.14.15.14.22,0,.22h-.66c-.88-.88-1.62-1.76-2.21-2.65-.59-.88-1.32-1.76-2.21-2.65s-1.62-1.8-2.2-2.76c-.59-.95-1.4-1.87-2.43-2.76-.15.44-.3.96-.44,1.54-.44,1.62-.77,3.27-.99,4.96-.22,1.69-.48,3.35-.77,4.96-.15,1.47-.26,2.91-.33,4.3-.08,1.4-.11,2.83-.11,4.3-.15.59-.22,1.14-.22,1.65s-.15,1.07-.44,1.65c-.3.15-.37.33-.22.55.14.22.14.48,0,.77-.15.3-.15.52,0,.66.14.15.14.37,0,.66,0,.74-.11,1.4-.33,1.98-.22.59-.26,1.25-.11,1.98-.3.44-.48.92-.55,1.43-.08.52-.19,1.07-.33,1.65,0,.15-.08.37-.22.66.44,1.32.48,2.69.11,4.08-.37,1.4-.33,2.76.11,4.08.14.59.22,1.14.22,1.65s.22.99.66,1.43c.14.29.29.58.44.88.14.29-.08.59-.66.88l.22.44c.44.59.62.96.55,1.1-.08.14-.33.44-.77.88-.44.44-.59.81-.44,1.1-.15.59-.3,1.14-.44,1.65-.15.51-.3,1.07-.44,1.66-.88.44-1.54,1.1-1.98,1.98-.44.59-.96.44-1.54-.44-.88.73-1.62,1.58-2.2,2.54-.59.95-.88,2.02-.88,3.2,0,.58-.22.95-.66,1.1v-1.32c-.15-.3-.26-.55-.33-.77-.08-.22-.19-.48-.33-.77-.15.29-.3.48-.44.55-.15.07-.3.18-.44.33.59,1.03,1.18,1.54,1.76,1.54-.15.88-.22,1.54-.22,1.98-.44,0-.66-.15-.66-.44s-.22-.59-.66-.88c-.15-.3-.33-.52-.55-.66-.22-.15-.41-.37-.55-.66.14-.3.14-.74,0-1.32l-.22-.66c-.59.29-.96.26-1.1-.11-.15-.37-.37-.63-.66-.77l-.22.22c.29-.59.37-1.03.22-1.32,0-.3-.08-.44-.22-.44-.44,0-.66.14-.66.44.14.29.07.73-.22,1.32l.22-.22c-.44,0-.74.07-.88.22.14.44.14.96,0,1.54,0,.14-.08.36-.22.66l-.44-.44c-.15-.15-.3-.37-.44-.66-.59,0-.81.22-.66.66l.22,1.32c-.15.29-.44.51-.88.66-.44.14-.74.37-.88.66-.3-.44-.48-.85-.55-1.21-.08-.37-.19-.7-.33-.99h-.22c-.44,0-.66.14-.66.44l.44,1.98c-.3.29-.33.62-.11.99.22.36.25.7.11.99l.44.22c.29.29.14.59-.44.88l-.66.66c-.44-.74-.7-1.43-.77-2.1-.08-.66-.19-1.36-.33-2.1h-1.32c0-.3-.04-.52-.11-.66-.08-.15-.19-.37-.33-.66h-.22v.44c-.15.73.22,1.1,1.1,1.1-.15.44-.22.88-.22,1.32s-.08.88-.22,1.32c.14.29,0,.44-.44.44l-.44-.22c.14-.74.07-1.4-.22-1.98-.3-.59-.59-1.18-.88-1.76-.44-.44-.52-.88-.22-1.32,0-.74-.11-1.43-.33-2.1-.22-.66-.63-1.36-1.21-2.1v-.66c.14-.74.14-1.47,0-2.21-.15-.74-.22-1.47-.22-2.2-.88.58-1.4.88-1.54.88-.44.29-.74.22-.88-.22-.44-.3-.52-.66-.22-1.1.14-.15.33-.26.55-.33.22-.08.4-.19.55-.33v-.44c0-.15.07-.3.22-.44-.44-.3-.7-.59-.77-.88-.08-.3-.11-.59-.11-.88.44-1.03.51-1.91.22-2.65-.44-.44-.59-.66-.44-.66-.74-.15-1.1-.44-1.1-.88s.14-.81.44-1.1c.44-.59.66-1.1.66-1.54s-.08-.95-.22-1.54c0-.44.03-.92.11-1.43.07-.51.11-1.06.11-1.65.14-.14.22-.29.22-.44s.14-.29.44-.44c.44-.44.73-1.25.88-2.43,0-.14-.08-.25-.22-.33-.15-.07-.22-.18-.22-.33l-.88-.66c.44-.59.48-1.06.11-1.43-.37-.36-.55-.92-.55-1.65.58-1.91.88-3.89.88-5.95,0-.15.03-.29.11-.44.07-.14.03-.29-.11-.44-.44-.44-.59-.92-.44-1.43.14-.51.14-.99,0-1.43-.15-1.03.14-1.84.88-2.43.14-.29.36-.73.66-1.32-.3-.88-.26-1.73.11-2.54.37-.81.62-1.66.77-2.54-.15-.29-.15-.51,0-.66s.07-.37-.22-.66c-.3-.88-.33-1.76-.11-2.65.22-.88.33-1.76.33-2.65.14-.29.44-.73.88-1.32.14-.29.25-.51.33-.66.07-.14.18-.36.33-.66-.15-.73-.19-1.36-.11-1.88.07-.51.11-1.14.11-1.87l.22-1.1c-.59-.73-.77-1.54-.55-2.43.22-.88.18-1.69-.11-2.43,1.32-.29,2.1-.55,2.32-.77.22-.22.33-.84.33-1.87-.3-1.47-.26-2.83.11-4.08.36-1.25.84-2.54,1.43-3.86.29-.44.36-.88.22-1.32-.59-.59-.66-1.4-.22-2.43.14-.59.18-1.1.11-1.54-.08-.44-.04-.95.11-1.54,0-1.18.07-2.28.22-3.31.14-1.03.22-2.13.22-3.31.29-2.06.55-4.15.77-6.29.22-2.13.48-4.23.77-6.29.15-1.76.29-3.53.44-5.29.14-1.76.44-3.53.88-5.29.14-.73.18-1.43.11-2.1-.08-.66-.04-1.36.11-2.1-.3-.14-.52-.26-.66-.33-.15-.07-.37-.18-.66-.33-.3-.59-.22-1.47.22-2.65.14-.29.37-.44.66-.44s.59-.14.88-.44l-.22-.88c-.15-.14-.59-.37-1.32-.66v-1.98h.88c.29.3.51.3.66,0,.73,0,1.18-.44,1.32-1.32,0-.44-.37-.81-1.1-1.1h-.66c1.03,0,1.47-.29,1.32-.88,0-.59.14-1.14.44-1.65.29-.51.29-1.06,0-1.65-.15-.29-.19-.55-.11-.77.07-.22.18-.48.33-.77v-2.65c0-.59-.22-.73-.66-.44-.59-.88-.81-1.54-.66-1.98,0-.29.22-.73.66-1.32-.44-1.18-.66-2.39-.66-3.64v-3.64c0-.59.36-1.03,1.1-1.32.44-.29.81-.51,1.1-.66.29-.14.66-.37,1.1-.66-.15-.29-.08-.74.22-1.32.14-1.47.73-1.91,1.76-1.32,1.03.44,2.35.3,3.97-.44.14-.88.14-1.54,0-1.99,0-.44.37-.66,1.1-.66.29-.14.4-.33.33-.55-.08-.22.03-.48.33-.77.29-.44.51-.66.66-.66.73,0,1.18-.51,1.32-1.54.44.44.59.96.44,1.54-.15.59,0,1.1.44,1.54.73-.29,1.4-.51,1.98-.66l-.44-2.2,3.53.66c.29-.44.22-.88-.22-1.32,0-.29-.11-.4-.33-.33-.22.08-.48.04-.77-.11-.15,0-.22-.14-.22-.44l-.22-.44c.59-.74.96-1.54,1.1-2.43.14-.88.36-1.76.66-2.65.29-.73.51-1.18.66-1.32.73-.29,1.18-.73,1.32-1.32.14-.59.44-1.18.88-1.76.14-.29.25-.51.33-.66.07-.14.18-.36.33-.66.73-1.03,1.54-1.03,2.43,0,.44.74.88,1.43,1.32,2.1s.59,1.43.44,2.32c0,.44.07,1.1.22,1.98.29.59.51,1.18.66,1.76.14.59.22,1.25.22,1.99,0,.88.29,1.69.88,2.43l-1.1,1.32v1.76c0,1.18-.15,2.06-.44,2.65.14.3.14.63,0,.99-.15.37.14.63.88.77l.22.44c0,.15-.04.22-.11.22s-.11.08-.11.22v.22c-.59.74-.85,1.4-.77,1.98.07.59.26,1.25.55,1.98.14.59.14,1.1,0,1.54,0,.74-.11,1.51-.33,2.32-.22.81-.48,1.58-.77,2.32-.15.3-.08.52.22.66.59.44.81,1.18.66,2.21-.3.74-.44,1.51-.44,2.32v2.32c0,.59-.08,1.14-.22,1.66-.15.52-.08,1.07.22,1.65.29.15.33.33.11.55s-.26.48-.11.77c-.15.74-.37,1.4-.66,1.98-.3.59-.37,1.25-.22,1.98.14,1.47.14,2.58,0,3.31-.15.59-.22,1.1-.22,1.54s-.22.88-.66,1.32c-.44.59-.37,1.18.22,1.76.59-.29.92-.62.99-.99.07-.36.26-.7.55-.99.29-.29.55-.55.77-.77.22-.22.33-.55.33-.99.14-1.18.59-1.91,1.32-2.2l.22.66c-.44.88-.66,1.54-.66,1.98-.15.15-.15.44,0,.88.44.3.95.22,1.54-.22.59-.88,1.03-1.91,1.32-3.09-.15-.73-.15-1.4,0-1.98.14-.59.22-1.25.22-1.99-.15-.58-.11-1.14.11-1.65.22-.51.48-1.06.77-1.65l3.75-6.62c.29-.73.59-1.18.88-1.32.58-.44.99-.99,1.21-1.65s.4-1.36.55-2.1c.88-1.76,2.06-3.6,3.53-5.51.14-.44.37-.88.66-1.32.29-.44.51-.96.66-1.54-.74-.14-1.51-.18-2.32-.11-.81.08-1.58-.26-2.32-.99.29-.44.51-.88.66-1.32.14-.44.36-.88.66-1.32.14-.73.66-1.1,1.54-1.1,1.17.3,1.91.81,2.2,1.54.14.59.29,1.03.44,1.32h.66c.14-.88.48-1.62.99-2.21.51-.58.92-1.25,1.21-1.98.58-.73,1.03-.73,1.32,0,.29,0,.62-.03.99-.11.36-.07.7-.04.99.11l.44-.22c-.3-.44-.22-.84.22-1.21.44-.36.59-.77.44-1.21l-.88-.44c0,.3-.11.55-.33.77-.22.22-.41.55-.55.99,0-1.32.18-2.24.55-2.76.37-.51,1.06-1.06,2.1-1.65,0,.44.14.74.44.88.44.44.81.3,1.1-.44.29-.74.66-1.36,1.1-1.88.44-.51.88-1.14,1.32-1.88.14-.44.44-.81.88-1.1,0-.29-.08-.51-.22-.66-.3-.44-.48-.88-.55-1.32-.08-.44.18-.95.77-1.54.14-.14.22-.29.22-.44s.15-.36.44-.66c.14-.59.29-.95.44-1.1.88-.88,1.62-1.8,2.2-2.76.59-.95,1.1-1.95,1.54-2.98.59-.44,1.06-.88,1.43-1.32.36-.44.7-.88.99-1.32.14.15.22.3.22.44-.15,1.03.07,1.99.66,2.87.44.44.59,1.25.44,2.43.29,0,.59.08.88.22.44.15.81,0,1.1-.44l1.54-2.65-.22-.44c-.3-.14-.63-.26-.99-.33-.37-.07-.7-.33-.99-.77-.44-.88-.3-1.76.44-2.65.29.3.51.15.66-.44.59-.73,1.1-1.43,1.54-2.1.44-.66.95-1.36,1.54-2.1h-.22c.14,1.18-.15,2.35-.88,3.53-.59.74-.81,1.4-.66,1.98.29.44.37.96.22,1.54h2.2c.29-.44.59-.88.88-1.32.29-.44.51-.88.66-1.32.88-.88,1.73-1.76,2.54-2.65.81-.88,1.43-1.91,1.88-3.09.29-.59.62-1.03.99-1.32.36-.29.84-.59,1.43-.88,0,.3-.08.52-.22.66.14.3.14.52,0,.66.14-.14.14-.36,0-.66l.88-1.98c.73-.29,1.25-.81,1.54-1.54.29-.73.74-1.32,1.32-1.76.73-.44,1.4-.96,1.98-1.54s1.03-1.25,1.32-1.98c.29-.73.88-1.4,1.76-1.98.44-.14.88-.37,1.32-.66l.44-.22c0-1.18.11-1.87.33-2.1s.84-.48,1.87-.77c.44-.14.74-.14.88,0,.14.15.29.37.44.66h-.44.44c.29-.15.4-.29.33-.44-.08-.14-.04-.22.11-.22.44-.14.96-.22,1.54-.22s1.03-.29,1.32-.88l3.75-2.87h.66c.29,0,.44.22.44.66-.3.44-.59.92-.88,1.43-.3.52-.74.77-1.32.77-1.03,0-1.62.37-1.76,1.1-.3,1.18-.96,1.91-1.98,2.21-.15.15-.44.52-.88,1.1-.3.3-.3.59,0,.88.14.44.36.44.66,0,.29-.14.51-.29.66-.44s.36-.29.66-.44c.14-.29.44-.44.88-.44.44.3.44.66,0,1.1-.74.88-1.32,1.54-1.76,1.98-.44.59-.96.52-1.54-.22l-1.32-1.1c-.44.88-.74,1.43-.88,1.65-.15.22-.59.55-1.32.99-.3.3-.66.55-1.1.77-.44.22-.81.55-1.1.99.29.3.66.37,1.1.22.44-.14.66.08.66.66.14.44.03.81-.33,1.1-.37.3-.63.59-.77.88-.3.74-.96.81-1.99.22.15,0,.07-.14-.22-.44h-.22c-.88.59-1.43,1.25-1.65,1.98-.22.74-.48,1.47-.77,2.2-.44-.29-.74-.44-.88-.44-.3,0-.66.15-1.1.44-.74.59-.88,1.03-.44,1.32.29-.29,1.03-.74,2.2-1.32-.3.59-.44.96-.44,1.1-.59.74-.66,1.62-.22,2.65-.44.3-1.03.74-1.76,1.32-.44-.14-.59-.29-.44-.44-.59-1.18-.88-2.06-.88-2.65-.3.3-.52.66-.66,1.1-.15.44-.3.81-.44,1.1-.74.88-1.18,1.54-1.32,1.98-.59.59-.74,1.18-.44,1.76.14.3.18.66.11,1.1-.08.44-.11.88-.11,1.32-.59.15-1.1.48-1.54.99-.44.52-1.03.63-1.76.33-.74.3-1.32.77-1.76,1.43-.44.66-.66,1.36-.66,2.1.14.88.04,1.69-.33,2.43-.37.74-.77,1.47-1.21,2.21-.44-.14-.74-.37-.88-.66-.88.3-1.36.77-1.43,1.43-.08.66-.33,1.21-.77,1.65.29.74.25,1.29-.11,1.65s-.77.7-1.21.99c-.15-.14-.15-.26,0-.33.14-.07.22-.18.22-.33s.03-.26.11-.33c.07-.07.03-.18-.11-.33h-.22l.22.66c.59.44.59.66,0,.66-1.03.3-1.54.81-1.54,1.54,0,.88-.37,1.62-1.1,2.2-.3.44-.44.81-.44,1.1,0,.44-.15.77-.44.99-.3.22-.59.48-.88.77l-.22-.66-.44.66-.22.22v-.22h.66c-.15.3-.22.63-.22.99s.29.7.88.99c.15,0,.26.11.33.33.07.22.04.41-.11.55l-1.98,3.31c-.44.59-.74,1.03-.88,1.32-.15.3-.22.52-.22.66s.07.37.22.66c.14.15.14.3,0,.44s-.15.37,0,.66c-.15,0-.37-.07-.66-.22-.15.3-.22.55-.22.77s.07.48.22.77c.29.3.51.44.66.44.29,0,.59-.03.88-.11.29-.07.58-.11.88-.11v-3.09c.44-.15,1.18-.37,2.21-.66.44,0,.66-.22.66-.66-.15-.73.07-1.36.66-1.87.59-.51.66-1.14.22-1.88.14-.14.22-.36.22-.66-.15-.44,0-.66.44-.66.73-.14,1.21-.51,1.43-1.1.22-.58.7-.95,1.43-1.1.59,0,.95.44,1.1,1.32h-1.32c-.15.88-.15,1.54,0,1.98-.3-.14-.66-.37-1.1-.66l-.22.44c0,.88-.19,1.73-.55,2.54-.37.81-.77,1.58-1.21,2.32-.3.74-.63,1.47-.99,2.21-.37.74-.77,1.47-1.21,2.21,0,.3-.15.44-.44.44-.59.3-.99.74-1.21,1.32-.22.59-.48,1.18-.77,1.76-.44.88-.74,1.47-.88,1.76-.59.15-.96,0-1.1-.44-.15-.44-.52-.44-1.1,0-.3-1.62.29-3.31,1.76-5.07-.3-.14-.44-.29-.44-.44s-.08-.29-.22-.44c-.3-.14-.52-.18-.66-.11-.15.08-.22.26-.22.55-.15.88-.44,1.4-.88,1.54-.59,0-.88.22-.88.66-.15.74-.59,1.62-1.32,2.65l-1.54,2.65h-1.32c-.15.44-.3.85-.44,1.21-.15.37,0,.77.44,1.21.14.3.18.63.11.99-.08.37-.04.7.11.99,0,.44.14.66.44.66.44,0,.81-.14,1.1-.44.29-.44.44-.73.44-.88-.15-.44-.08-.77.22-.99.29-.22.51-.48.66-.77.29-.44.44-1.1.44-1.98.14-.59.51-.73,1.1-.44.14.15.29.26.44.33.14.08.36.26.66.55-.3.3-.41.63-.33.99.07.37.03.7-.11.99-.3.44-.59.88-.88,1.32-.3.44-.59.81-.88,1.1-.59.3-.85.66-.77,1.1.07.44-.04.81-.33,1.1l-1.32,2.65c-.3.3-.59.52-.88.66-1.18,1.47-2.06,3.02-2.65,4.63-.15.74-.52,1.18-1.1,1.32-1.18.15-1.62.88-1.32,2.21.14.3.25.52.33.66.07.15.03.37-.11.66.14.3.07.66-.22,1.1-.59.74-1.18,1.54-1.76,2.43-.59.88-.96,1.69-1.1,2.43.14.3.36.74.66,1.32-.15.3-.3.52-.44.66-.15.15-.3.3-.44.44-.88.44-1.25,1.1-1.1,1.98.14,1.76-.44,3.16-1.76,4.19l-.44.66c.29.44.37.88.22,1.32-.15.44-.3.88-.44,1.32-.3.44-.37.88-.22,1.32.15.44.15.88,0,1.32l.44,1.98c-.44-.14-.96-.22-1.54-.22-.74.88-.74,1.98,0,3.31.29.3.51.59.66.88.14.3.22.66.22,1.1,0,1.18.51,1.84,1.54,1.98-.15,0,.07.22.66.66.29.44.51.66.66.66s.59-.22,1.32-.66c.14.15.22.26.22.33s.14.26.44.55c.44-.88.73-1.4.88-1.54.29-.14.48-.14.55,0,.07.15.26.3.55.44.44.3.66.52.66.66-.15.15-.22.3-.22.44-.59.15-.96.26-1.1.33-.15.08-.3.33-.44.77,0,.88.22,1.76.66,2.65.14.74.44.88.88.44.73.59,1.25,1.03,1.54,1.32,0,.74.44,1.25,1.32,1.54.29.15.81.52,1.54,1.1.14-.58.14-1.1,0-1.54-.15-.44-.08-.88.22-1.32.29.88.62,1.73.99,2.54.36.81.55,1.65.55,2.54.14.3.29.55.44.77.14.22.36.48.66.77.88.74,1.69.44,2.43-.88.88,0,1.4.37,1.54,1.1.14.3.44.44.88.44.59,0,.95.44,1.1,1.32-.15.74-.19,1.18-.11,1.32.07.15.33.44.77.88.29.15.51.04.66-.33.14-.36.36-.55.66-.55.44,0,.77.19.99.55.22.37.62.41,1.21.11-.3.44-.48.85-.55,1.21-.08.37-.19.77-.33,1.21-.3.74,0,1.1.88,1.1.14-.29.26-.51.33-.66.07-.14.11-.37.11-.66,0-.44-.08-1.1-.22-1.99-.3-.29-.44-.51-.44-.66v-.44h.22c.29.3.51.52.66.66.15.3.22.52.22.66s.14.37.44.66h.22-.22c.44-.29.73-.44.88-.44.59.3.88.66.88,1.1l-.22,1.32h-1.32c0,1.18.51,2.28,1.54,3.31.29.3.62.44.99.44s.77.22,1.21.66c.29-.14.51-.36.66-.66.14-.14.29-.26.44-.33.14-.07.29-.18.44-.33l-4.41,5.29ZM233.22,162.79c-.15.3-.37.63-.66.99-.3.37-.15.7.44.99h.22c.29-.44.22-1.1-.22-1.99h.22ZM233.88,230.52c.14.29.18.48.11.55-.08.07-.11.18-.11.33s.14.22.44.22c0-.15.14-.37.44-.66l-.66-.66-.22.22ZM237.41,108.53h-.22l-.22.22h.22l.22-.22ZM245.79,226.11c-.15.14-.3.26-.44.33-.15.07-.22.18-.22.33v.44c.29-.15.51-.37.66-.66v-.44ZM248.22,224.56c-.15.73-.19,1.18-.11,1.32.07.15.33.44.77.88.44-.59.44-1.03,0-1.32-.3-.3-.44-.52-.44-.66l-.22-.22ZM248.88,226.99l-.22.22h.22l.22-.22h-.22ZM254.84,210.88h.22c-.15.15-.15.37,0,.66h-.22c-.15-.29-.15-.51,0-.66ZM262.11,114.71c-.15-.29-.15-.51,0-.66h-.22c-.15.15-.15.37,0,.66h.22ZM261.89,112.28c.44,0,.81-.22,1.1-.66-.15-.29-.19-.51-.11-.66.07-.14.03-.37-.11-.66.14-.44.18-.88.11-1.32-.08-.44.11-.88.55-1.32.29-.44.37-.95.22-1.54-.15-.29-.3-.81-.44-1.54-.3.3-.48.55-.55.77-.08.22-.19.48-.33.77.44.44.44,1.1,0,1.98-.44,1.18-.59,2.28-.44,3.31v.88ZM263.44,91.77h.22v.22-.22h-.22ZM275.13,97.94l-.22.44c-.44-.29-.66-.51-.66-.66.14,0,.26-.03.33-.11s.18-.11.33-.11c.29,0,.44.15.44.44h-.22ZM276.23,102.8l-.44-.44c-.44,0-.66.22-.66.66.14.3.29.52.44.66l.33-.33.33-.33v-.22ZM278.66,186.18v-.66h-.22l-.44.22c0,.15.22.37.66.66l.22-.22h-.22ZM279.32,93.97c-.59.59-.96,1.1-1.1,1.54-.15.15,0,.37.44.66v-.22c.59-.73.81-1.4.66-1.98h.22-.22ZM278.44,98.6h.22l-.22-.66c-.15.15-.22.44-.22.88l.22-.22ZM281.09,92.21c.44.15.73-.14.88-.88,0-.29-.08-.44-.22-.44h-.44c-.59.15-.81.52-.66,1.1l.44.22ZM281.53,95.07c-.15-.14-.37-.36-.66-.66,0,.15-.08.37-.22.66v.66c.29-.14.58-.36.88-.66ZM287.48,162.35c-.44-1.03-.77-1.95-.99-2.76-.22-.81-.48-1.58-.77-2.32-.15-.58-.59-.73-1.32-.44-.44.3-.59.59-.44.88.29.74.59,1.47.88,2.21.29.74.66,1.4,1.1,1.98l.88.44h.66ZM290.13,82.5c-.74-.29-1.32-.14-1.76.44-.15.44-.41.88-.77,1.32-.37.44-.33.96.11,1.54.14.44-.15.81-.88,1.1h-.66c0,.59-.04,1.14-.11,1.65-.08.52-.41.92-.99,1.21.14,0,0,.22-.44.66h1.76c.29-.29.51-.62.66-.99.14-.36.22-.7.22-.99.14-1.47.51-2.65,1.1-3.53.29-.44.37-.88.22-1.32-.15-.73.22-1.4,1.1-1.98-.15-.29-.15-.51,0-.66-.15.15-.15.37,0,.66l.44.88ZM287.48,153.31l.66.88h.22v-.44c0-.29-.44-.37-1.32-.22l.44-.22ZM289.91,100.15c-.15-.29-.19-.51-.11-.66.07-.14.03-.36-.11-.66.29-.29.22-.44-.22-.44s-.66.08-.66.22c-.15.59-.33,1.14-.55,1.65-.22.52-.41,1.07-.55,1.65.14.44.36.66.66.66.44.3.73.15.88-.44l.44-1.98h.22ZM289.47,78.09h-.66c-.3,0-.37.15-.22.44-.15.15-.11.26.11.33.22.08.48.04.77-.11.14,0,.29-.14.44-.44l-.44-.22ZM290.79,167.21c.14-.14.07-.37-.22-.66,0-.29-.15-.22-.44.22.14-.59,0-.96-.44-1.1-.15.3-.19.48-.11.55.07.08.11.19.11.33.73.3,1.18.52,1.32.66h-.22ZM290.13,78.09h-.22v.22l.22-.22ZM291.01,191.25c.59.59,1.1,1.1,1.54,1.54.44.44,1.03.66,1.76.66.44.74.84,1.21,1.21,1.43.37.22.92.41,1.66.55-.74-1.32-1.69-1.98-2.87-1.98-.59-1.32-1.69-2.06-3.31-2.21ZM294.32,73.46c.14-.14.14-.29,0-.44h-.22l-.44.66.22.22c.29-.29.59-.51.88-.66l-.44.22ZM294.98,73.46c.44-.14.7-.37.77-.66.07-.29.18-.59.33-.88.29-.29.51-.48.66-.55.14-.07.29-.26.44-.55.14,0,.29-.07.44-.22.14.15.22.26.22.33s.14.19.44.33c.44-.59.66-.95.66-1.1s-.08-.44-.22-.88c-.3-.29-.37-.73-.22-1.32.44-.29.51-.51.22-.66h-.66c-1.18.88-1.62,2.13-1.32,3.75-.74-.14-1.18-.18-1.32-.11-.15.08-.22.48-.22,1.21-.15.3-.22.52-.22.66v.66h-.66v.22c.14-.14.29-.26.44-.33.14-.07.22-.18.22-.33v.44ZM294.98,82.5h-.22l-.22.22h.22l.22-.22ZM296.97,196.11h-.66l-.22.22v.22l.44-.22.44-.22ZM298.95,76.1c-.15.3-.26.52-.33.66-.08.15-.26.3-.55.44-.15.3-.22.63-.22.99s-.08.7-.22.99l.22.44c.44,0,.81-.07,1.1-.22l1.99-2.65.22-.44h-1.32l-.88-.22ZM298.07,160.37h.22c0,.3-.08.52-.22.66.14-.14.22-.37.22-.66h.22-.44ZM298.73,57.35h.44c.14.3.14.52,0,.66h-.44c.14-.14.14-.36,0-.66ZM300.06,56.69h.22c0,.3-.08.52-.22.66h-.22c.14-.14.22-.36.22-.66ZM300.28,61.54h.22c.29-.29.29-.59,0-.88h-.22c-.3.3-.37.66-.22,1.1l.22-.22ZM301.82,65.29c.73-.73,1.1-1.17,1.1-1.32s-.15-.44-.44-.88c-.44-.29-.66-.51-.66-.66-.59.44-.81.88-.66,1.32.14.44.29.96.44,1.54h.22ZM301.6,197.87l-.22-.66h-.22l.22.66h.22ZM302.04,53.82h-.66v-.22h.66v.22ZM304.69,190.59l-.22-.22h.66c.44.74.7,1.14.77,1.21.07.08.33-.03.77-.33,0-.44-.44-.66-1.32-.66h-.66ZM305.35,64.41h.66v-.22h-.22l-.44.22ZM306.89,59.56c.44-.29.84-.48,1.21-.55.36-.07.62-.26.77-.55.44-.44.66-.81.66-1.1.14-.14.14-.29,0-.44-.44,0-.66.08-.66.22-.44.44-.81.88-1.1,1.32-.3.44-.59.88-.88,1.32v-.22ZM307.34,192.58h-.22l.66.66.22-.22c-.3-.29-.52-.51-.66-.66v.22ZM309.32,52.72v.22h-.22v-.22h.22ZM310.64,56.91c-.44.44-.59.74-.44.88v.22c.29,0,.51-.07.66-.22-.15-.29-.15-.51,0-.66l-.44-.22h.22ZM313.51,192.58c.14-.44,0-.59-.44-.44h.66c0,.3.29.59.88.88h.22v-.44c-.15-.59-.44-.81-.88-.66l-.44.66ZM317.26,173.38h-.66c.14-.14.14-.37,0-.66h.66v.66ZM319.25,178.9c.14-.29.33-.66.55-1.1s.03-.81-.55-1.1c-.3,0-.22-.22.22-.66.59-.59.73-1.32.44-2.21-.3-.29-.41-.55-.33-.77.07-.22.18-.48.33-.77.14,0,.25-.03.33-.11.07-.07.18-.11.33-.11.73.3,1.18.63,1.32.99.14.37,0,.92-.44,1.65-.15.3-.33.59-.55.88-.22.3-.48.59-.77.88.14.3.26.52.33.66.07.15.18.37.33.66.29.88-.15,1.32-1.32,1.32l-.22-.22ZM321.9,190.15c0,.44.22.74.66.88.44.15.59.59.44,1.32-.44-.14-.88-.59-1.32-1.32.29-.29.37-.51.22-.66h-.22l.22-.22Z"/><path class="cls-2" d="M391.91,69.42h-27.48v-26.22h84.2v26.22h-27.23v131.6h-29.5V69.42Z"/><path class="cls-2" d="M458.21,43.2h74.12v26.22h-44.37v33.28h36.81v24.71h-36.81v47.65h44.37v25.97h-74.12V43.2Z"/><path class="cls-2" d="M543.17,43.2h29.75v131.85h41.35v25.97h-71.09V43.2Z"/><path class="cls-2" d="M623.84,43.2h29.75v131.85h41.35v25.97h-71.09V43.2Z"/><path d="M343.87,141.03c-5.23.53-8.43-1.07-9.92-4.27-.43-.96-.32-1.71,1.07-1.71,6.72.11,15.25-3.09,21.87-3.52,5.12-.32,8.11,1.92,9.6,5.12.32,1.17.11,1.81-1.07,1.71-3.52-.43-7.25,0-10.77.64.75,2.99-.21,7.04-3.63,11.52-6.08,7.89-19.73,13.97-29.87,5.12-11.52-10.03-2.24-29.01,14.61-33.81-3.41-1.17-6.08-3.73-6.29-8.32-.53-10.45,11.41-19.73,18.56-21.97,5.44-1.71,10.24-2.56,15.04,1.6,4.59,3.95,4.91,7.25,2.35,12.59-1.49,3.2-3.41,7.68-4.37,10.35-.32.85-.96,1.17-2.24.53-2.45-1.28-4.27-4.8-2.35-10.24,2.03-5.87,5.33-9.07,3.41-10.88-3.2-3.09-23.57,8.75-22.83,19.41.32,4.27,3.63,4.91,7.79,4.8,5.23-.11,7.25,2.67,7.89,4.48.43,1.07-.11,1.39-1.17,1.49-15.79,1.28-28.91,10.99-29.23,21.23-.11,4.37,2.45,7.68,7.15,8,5.23.32,14.51-4.27,19.31-14.72-1.81.32-3.41.75-4.91.85Z"/></svg>