<?xml version="1.0" encoding="UTF-8"?>
<svg id="Layer_1" xmlns="http://www.w3.org/2000/svg" version="1.1" viewBox="0 0 694.9 274.4">
  <!-- Generator: Adobe Illustrator 29.2.0, SVG Export Plug-In . SVG Version: 2.1.0 Build 108)  -->
  <defs>
    <style>
      .st0 {
        fill: #fff;
      }
    </style>
  </defs>
  <path class="st0" d="M249.3,246.6c.1,0,.4,0,.7.1.3,0,.5.1.7.1s0,.2-.2.7c-.3.4-.7.9-1.1,1.3s-1.1,1-2,1.6c-.9.7-1.4,1-1.5,1s-.3,0-.4-.2c-.1,0-.3,0-.4-.2l.4-.2c.1,0,.3-.1.4-.4.1-.3.3-.4.4-.4.4,0,.6-.2.4-.7,0-.4-.2-.4-.7,0-.1.1-.3.3-.3.6,0,.2-.2.3-.3.3s-.4.1-.7.4c-.3.3-.6.4-.9.4s-.6.1-.9.3c-.3.2-.6.4-.9.6-.1.1-.2.4-.2.7s0,.5.2.7c0,.1.1.3.3.4.2.1.3.3.1.4,0,.3-.3.7-.9,1.1-.3.3-.8.6-1.4.9-.7.3-1.1.5-1.4.7-.1.1-.4.4-.8.7-.4.3-.6.5-.6.7l.2,1.1c0,.1-.1.4-.4.7-.3.3-.6.5-.9.7-.3.1-.7.4-1.2.8-.5.4-.8.6-.8.8-.1.1-.3.3-.6.4-.2.1-.3.3-.3.4h-.2c-.3.4-.3.7,0,.9h.2l-.7,1.1c-1.2.7-2.4,1.2-3.5,1.5-.4.1-1.2.4-2.3.7-1.1.3-1.8.5-2.1.7-.4.1-1.1.3-1.9.3-.8,0-1.4.1-1.6.1s-.8,0-1.5.2c-.7.1-1.4.3-2,.4-.4.1-1.2.4-2.4.7-1.2.3-1.9.5-2.2.7h-2c-.7.3-1.5.5-2.2.7-.7.1-1.2.3-1.5.4-.1.1-.4.2-.9.3-.4,0-.7.1-.9.1h-2.9c-.6,0-1.6.1-3,.4-1.4.3-2.4.5-3,.7-.6.1-1.4.3-2.4.4-1,.1-1.6.2-1.8.2-.4,0-1.4.1-2.9.4-.7.1-2,.3-3.8.3-1.8,0-3.2.1-4.4.1h-2.9c-.4-.1-1-.3-1.5-.3-.6,0-1.1-.2-1.5-.3-.4-.1-1.2-.1-2.3,0-1.1.1-2,.3-2.8.4-.6.1-1.4.1-2.5,0-1.1-.1-1.8-.3-2.1-.4-.3-.1-.8-.3-1.5-.3-.7,0-1.2-.1-1.5-.1s-.7,0-1.1-.2c-.4-.1-.8-.3-1.1-.4-.1-.1-.5-.3-1.1-.3-.6,0-1-.1-1.1-.1-.6,0-1.6-.1-3.1-.4-.7-.1-1.8-.3-3.3-.5s-2.4-.4-2.6-.5c-.3-.1-1-.3-2-.4-1-.1-1.9-.3-2.6-.4-.7-.1-2.2-.5-4.5-1.1-2.3-.6-3.9-1-4.7-1.3-1-.3-2.6-.9-4.6-1.9-2.1-1-3.2-1.5-3.5-1.7-.3-.1-.9-.4-1.9-.8-1-.4-1.6-.6-1.9-.8-.3-.1-.9-.4-1.8-.7-.9-.3-1.5-.5-1.8-.7-.3-.1-.8-.4-1.5-.9-.7-.4-1.4-.8-2-1.1-.7-.3-1.7-.9-2.9-1.6-1.2-.8-1.9-1.3-2.2-1.4-.4-.1-1-.4-1.8-.9-.7-.4-1.3-.8-1.8-1.1-.6-.3-1.5-.9-2.8-1.6-1.2-.8-2.1-1.4-2.5-1.6-.3-.3-.7-.6-1.3-1-.6-.4-1-.6-1.1-.8,0-.1-.2-.4-.7-.9s-.8-.8-1.1-1.1c-.4-.3-1-.7-1.5-1.3s-1-1-1.1-1.1c-.3-.1-.5-.3-.6-.4,0-.1-.2-.3-.3-.4s-.5-.4-1.1-.9c-.6-.4-1.2-1-2-1.5-.6-.6-1.6-1.5-3.1-2.6-1.5-1.2-2.3-1.9-2.7-2.2-.4-.3-1.1-1-2.1-2.1-1-1.1-1.7-2-2.1-2.8-.4-.7-1.3-1.7-2.7-3-1.3-1.2-2.1-2-2.2-2.3-.4-.3-.9-.8-1.3-1.5-.4-.7-.8-1.3-1.1-1.8-.4-.4-1-1.1-1.8-1.9-.7-.8-1.2-1.4-1.5-1.6-.3-.3-.6-.7-1-1.2-.4-.5-.6-.9-.8-1.2-.2-.3-.5-.7-1.1-1.1-.6-.4-.9-.7-.9-.9-.2-.1-.4-.6-.9-1.2s-.9-1.4-1.3-2.1c-.4-.7-1.2-1.8-2.2-3.2s-1.8-2.2-2.2-2.5c-.3-.3-.7-.9-1.2-1.8-.5-.9-.8-1.5-.8-1.8-.6-.7-1.2-1.1-1.8-1.1s-.5-.2-1.1-.7c-.2-.1-.4-.6-.8-1.2-.4-.7-.8-1.4-1.2-2.1-.4-.7-1-1.8-1.8-3.2-.7-1.4-1.1-2.2-1.1-2.5-.3-.3-.6-.7-.9-1.3-.3-.6-.5-1-.7-1.3-.2-.3-.5-.9-1.1-1.9-.6-.9-1-1.6-1.1-2.1-.3-.4-.7-1.1-1.3-1.9-.6-.8-1-1.3-1.1-1.4-.2-.1-.4-.5-.7-1.1-.3-.6-.6-1.1-.9-1.5-.2-.4-.5-1.1-1.1-2-.6-.9-1-1.4-1.1-1.5-.2-.1-.3-.4-.5-.7-.2-.3-.4-.5-.5-.7-.9-.4-1.5-.4-1.8,0-.3.1-.5,0-.8-.4s-.4-.8-.5-1.1c-.2-.3-.4-.8-.8-1.5-.4-.7-.7-1.2-1-1.5-.3-.3-.6-.7-1-1.2-.4-.5-.6-.8-.8-1h-.4c-.2,0-.3,0-.4.2,0,.3,0,.5-.2.7-.2.3-.2.5-.2.6s0,.3-.2.6c-.2.4-.3,1.1-.3,1.9,0,.8-.1,1.3-.1,1.4-.1.3,0,.8.7,1.5v1.1c0,.4,0,.7.2.9,0,.1,0,.7-.1,1.5,0,.9-.2,1.7-.3,2.4,0,.7,0,1.9-.2,3.6-.1,1.7-.2,2.7-.2,3s0,.7-.2,1.1c-.1.4-.2.7-.2.9-.1.1-.2.4-.1.8,0,.4.1.7.1,1,.1.4.2.8.2,1.1-.1.3-.2.5-.2.7-.1.1-.1.3,0,.4v.7c0,.3,0,.7-.2,1.2-.1.5-.2.9-.2,1s0,.6-.1,1.2c0,.7-.1,1.4-.1,2.1-.1.3-.2.7-.1,1.3,0,.6,0,1.1-.1,1.5,0,.6,0,1.2-.2,1.8l.4,2,.9,4.4c.1.3.2.8.2,1.4s0,1.1.2,1.2c-.1.1-.3.4-.3.7,0,.3-.2.6-.3.9-.1.3-.3.7-.4,1.1-.1.4-.2.7-.2.9s0,.4-.2.8c-.1.4-.2.7-.2,1l-1.3,1.8c-.6.3-1,.7-1.3,1.1-.1.1-.4.2-.7.2h-.9c-.3,0-.7.3-1.2.8-.5.5-.9.9-1,1.2-.3.3-.7.8-1.1,1.5s-.8,1.2-1.1,1.3c0,.1,0,.2-.2.2s-.2,0-.2.2l-.4-.4h-.2l.4.2v.2l.2.7-.2.2-.9.2c-.9-.3-1.5-.4-1.8-.4s-.2-.2-.2-.7v-1.1h-.9c-.4.4-.6.7-.4.9,0,.3-.3.4-.9.4h-.7c-.1,0-.3,0-.4-.2l-.9.4c0,.1-.1.3-.3.4-.2.1-.3.3-.3.4s0,.3-.2.6c-.1.2-.3.4-.4.6-.6.4-1.1.5-1.5.2l-.2-.4v-.4h-.2l-.2,1.3c-.1.3-.2.8-.1,1.4,0,.7,0,1.1-.1,1.2.1.4,0,.7-.4.7s-.7-.3-.9-.9c-.3-.3-.5-.7-.7-1.3.1-.1,0-.3-.7-.4-.6-.1-1-.2-1.1-.2v-.7c-.3,0-.6.1-.9.4l-.2.2c-.3,0-.4-.2-.4-.7l-.7-2.4c0-.4-.2-1.2-.4-2.2-.3-1-.4-1.7-.4-2v-1.1c0-.4,0-.8-.2-1.1-.2-.3-.5-.4-1-.4h-1c-.1,0-.2,0-.2-.2l-.4-.2c.1,0,.2,0,.2-.2s0-.3.2-.4c-.1-.1-.1-.3.1-.6l.6-.6v-2c-.3-.3-.4-.7-.3-1.3,0-.6.1-1,.1-1.3.1-.3,0-.7-.3-1.3-.4-.6-.6-.9-.8-1.1-.2-.6,0-1.2.4-1.8.1-.3.2-.7.2-1.2s0-.9.2-1.2c-.1-.3-.1-.7,0-1.3.1-.6.1-1,0-1.3.1-.3.3-.7.5-1.2.2-.5.4-.9.5-1.2.1-.3.1-.6,0-1-.2-.4-.2-.6,0-.8,0-.1,0-.4-.2-.9-.1-.4-.3-.8-.4-1.1,0-.3,0-1-.1-2.2,0-1.2,0-1.9.1-2.2v-1.5c0-.7,0-1.2.2-1.5.1-.3.2-.8.1-1.6,0-.8-.1-1.4-.1-1.7s0-.7.1-1.1c0-.4.1-.7.1-.9s0-.4.2-.9c.1-.4.4-.9.7-1.3.2-.4.3-1.2.4-2.3.1-1.1.2-1.9.2-2.3.1-.4.2-1.2.3-2.3,0-1.1,0-1.8-.1-2.1.1-.3.3-.8.3-1.5,0-.7,0-1.2-.1-1.5.1-.3.3-.7.4-1.1.1-.4.3-.7.4-.9.4-.4.5-1,.2-1.8.1-.3.2-.7.2-1.3s0-1,.2-1.3c0-.3,0-.7-.1-1.3,0-.6-.2-1-.3-1.3.1-.3.2-.7.2-1.2v-1c0-.1.2-.3.4-.6s.6-.4.9-.6c.1-.1.3-.4.4-.9.1-.4.1-.7,0-.9,0-.6.1-1.6.4-3.1,0-.6.1-1.4.4-2.5.3-1.1.5-1.7.7-1.9,0-.1,0-.4.1-.7,0-.3.1-.5.1-.7.1-.1.1-.4,0-.8-.1-.4-.3-.7-.4-1-.1-.3-.1-.7,0-1.2.1-.5.2-.8.2-1,.1-.1.3-.6.3-1.4s.1-1.6.1-2.5c.1-.4.2-1.2.2-2.2s0-2.1.2-3.2c.1-1.1.2-2.2.2-3.3v-2.8c0-.6,0-1.5.2-2.8.1-1.2.3-2.5.3-3.8s.1-2.4.2-3.4c0-1,.2-1.7.3-2,.1-.7.3-1.9.6-3.5.2-1.6.4-2.7.6-3.1.1-.4,0-1.1-.4-1.9-.4-.8-.7-1.4-.9-1.7v-1c0-.4,0-.6-.2-.8.1-.1.3-.3.4-.6s.2-.4.2-.6,0-.4-.1-.7c0-.3,0-.5.1-.7l-.2-1.1c0-.1.2-.4.6-.7.4-.3.7-.5,1-.7.1-.1.3-.6.4-1.3.1-.7.3-1.2.4-1.5-.1-.3-.2-.9-.1-1.9,0-1,0-1.6-.1-1.9.1-.3.3-.8.3-1.7,0-.8.1-1.4.1-1.7s0-.3-.2-.4c-.1-.1-.2-.3-.2-.4-.1-.1-.2-.3-.2-.4-.1,0-.2,0-.2-.2l-.2-.7c-.1-.3-.2-.7-.1-1.1,0-.4.1-.8.1-1.1s0-.6-.1-1c0-.4,0-.6.1-.8-.1-.6,0-1.3.2-2.2,0-.4,0-1.1.1-2,0-.9.1-1.4.1-1.5-.1-.1,0-.4.4-.8.4-.4.8-.7,1.1-1,.1-.3.4-.7.7-1.1.3-.4.4-.7.4-.9s0-.3.2-.6c.1-.2.3-.4.4-.6.3-.1.6-.2.9-.2h2.4c.3,0,.6,0,.9-.2,0-.2.1-.3.4-.4l-.2-.7c.1-.1.3-.4.4-.7.1-.3.3-.5.4-.7l.7-.9c.1,0,.3,0,.4-.2.1-.1.2-.3.2-.3v-.3c.1-.1.4-.2.9-.2s.4,0,.7.2c.1.2.3.2.4.2h.4c.1,0,.3-.1.5-.3s.3-.4.3-.6c.1-.1.4-.3.7-.6.3-.2.5-.3.7-.3s.4,0,.7-.1c.3,0,.5-.1.7-.1-.1,0,0-.2.2-.7l-.2-.2c-.1,0-.2,0-.2-.2l-.2-.2.7-1.8c.1-.4.4-1.1.8-2,.4-.9.5-1.4.3-1.5.1-.1.4-.4.7-.9.3-.4.5-.8.7-1.1l2-2.4,1.3-.7c.1-.1.5,0,1,.4.5.4.8.8,1,1.1.1.3.4,1,.7,2.1.3,1.1.4,1.9.4,2.3.1.4.3,1.2.4,2.3.1,1.1.3,1.8.4,2.1l.7,2.2c-.4.4-.6.9-.4,1.3,0,.2,0,.4-.1.9,0,.4-.1.9-.1,1.3s0,1.1-.1,1.9c0,.8-.1,1.3-.1,1.4-.2.2-.2.3,0,.6s.2.4,0,.6c.2.4,0,1.1-.4,2-.2.3-.2.8-.1,1.7,0,.8.1,1.4.1,1.7.3.3.4.7.2,1.3-.2.6-.4,1-.7,1.3s-.4.7-.4,1.2v1c0,.2,0,.4.1.8,0,.4.3.7.5,1v3.1c-.2.4-.2,1.4-.2,3v4.1l-.7,2v1.1c-.2.7-.2,1.5-.2,2.2s0,1.4-.2,2c-.2.6-.3,1.4-.3,2.3,0,1-.2,1.4-.3,1.4s-.2,0-.2.2c.1.2.1.2,0,.2l.2-.2c.1-.2.3-.3.5-.6l.5-.6c.3-.1.7-.5,1.1-1,.4-.5.6-.8.4-1,0-.2.1-.3.3-.3s.3,0,.1.1c.1.4.4.8.7,1.1.1.2.4.2.7,0,.3-.1.5-.3.7-.4.3-.1.5-.5.7-1.1.2-.6.2-1,.2-1.3s0-.9.1-1.8c0-.9.1-1.5.1-1.8s.1-.6.4-1.2c.3-.7.6-1.4,1-2.1.4-.7.7-1.4,1-2,.3-.6.5-1,.7-1.3.1-.4.5-1.2,1.1-2.2s1-1.7,1.1-2,.4-.7.9-1.1c.4-.4.7-.8.9-1.1.1-.3.3-.7.4-1.3.2-.6.4-1,.7-1.3.1-.3.4-.9.8-1.8.4-.9.6-1.5.8-2,.4-.4.9-1.1,1.3-2,.4-.9.7-1.5.7-1.8s-.2-.5-.4-.7c-.3-.1-.6-.2-.9-.2s-.6-.1-1-.4c-.4-.3-.6-.5-.8-.7-.6-.4-.5-.9.2-1.3.1,0,.1,0,0-.2,0-.1,0-.3.2-.4l.4-.4c.1,0,.2,0,.2-.2l.4-.4c.1-.1.4-.2.8-.2h.8c.1,0,.3.1.5.3.2.2.5.4.8.6.2.2.3.3.4.6.1.2.3.3.4.3s.4-.1.8-.4c.4-.3.6-.6.8-.9.1-.3.4-.7.9-1.1l.9-.9c.1-.2.4-.2.8-.2h1c.1,0,.3,0,.4-.2l.2-.4c0-.1,0-.3.2-.4l.2-.9-.7-.7-.2-.2c.1-.6.4-1,.7-1.1.1-.1.4-.2.8-.2h1c.3,0,.6-.2,1-.7.4-.4.6-.8.8-1.1.3-.3.7-.8,1.2-1.5s.8-1.2.8-1.3c.1-.1.2-.4.2-.8v-.8c0-.1,0-.4-.1-.7,0-.3,0-.5.3-.7.1,0,.1,0,0-.2,0-.1,0-.3.2-.4l.4-.4.2-.4c.3-.3.6-.5.9-.7.1-.3.4-.7.8-1.3.4-.6.7-1,1-1.3s.6-.7.9-1.3.4-1,.4-1.3c.1-.1.3-.3.4-.5.1-.2.3-.5.4-.8.3-.3.6-.5.9-.7l.2-.2c.2,0,.3.1.4.3.1.2.3.4.4.5.4.3.7.7.7,1.3.3.2.6.4.8.7.2.3.5.5.8.7,0,.2.3,0,.9-.2.1-.1.3-.2.4-.2,0-.1,0-.3.2-.4l.4-.7c.1-.3,0-.7-.3-1.1-.4-.4-.7-.8-1-1.1-.3-.3-.4-.7-.4-1.3s0-1,.2-1.1l.4-.2c.1-.3.3-.5.6-.8s.4-.5.6-.8c.1-.1.3-.3.4-.3.2,0,.2-.2.2-.3l.4-.4h.2l.2.7-.9,1.1c-.4.4-.4,1,0,1.8.1.3.4.6.7.9.3.3.5.5.7.7.1.2.4.2.9,0,.4-.2.7-.4.9-.7.3-.3.4-.7.4-1.2s0-.8.2-1c0-.4.3-.7.9-.7s.8-.2,1.1-.7c.3-.1.6-.4.8-.7.2-.3.4-.5.6-.7l1.5-2c0-.3.2-.7.7-1.1s.7-.7.9-.9.3-.3.3-.5c0-.2.2-.4.3-.5,0-.1.1-.4.3-.9.2-.4.6-.9,1-1.3.1-.4.6-1,1.4-1.8s1.4-1.2,1.7-1.3c0-.1.2-.5.7-1s.7-1,.9-1.4c.3-.4.8-1,1.4-1.7.7-.7,1.1-1.1,1.2-1.2.1,0,.3-.1.4-.4.1-.1.2-.3.2-.4-.2-.1-.2-.3,0-.4,0-.1.1-.4.4-.7.1-.3.5-.5,1-.7.5-.1.8-.2,1-.2.4,0,1-.1,1.8-.4.3-.1.7-.4,1.1-.7.4-.3.8-.5,1.1-.7.3-.1.7-.4,1.1-.7.4-.3.7-.5.9-.7.1-.1.4-.3.7-.5s.5-.3.7-.3c.3,0,.5.4.7,1.1l-.4.4.2.2c-.2.1-.7.7-1.8,1.5-.2.3-.4.6-.9.9-.4.3-.7.6-.9.9-.6.4-1,.9-1.1,1.3l-.4.2c-.4,0-.6.2-.4.7,0,.1,0,.2.2.1.1,0,.2-.2.2-.3l-.2-.4c0-.1,0-.2.2-.2s.2,0,.2.2c.1.3.3.4.4.4.1.1.1.4-.1.9-.2.4-.4.8-.6,1.1-.3.3-.8.4-1.4.2-.7-.1-1.1-.3-1.4-.4-.2-.1-.4-.1-.7.1-.3.2-.6.5-.9.8-.2.3-.4.6-.9,1-.4.4-.8.6-1.1.8-.3.4-.6.7-.9.9-.2.2,0,.4.2.8.3.4.4.6.4.8.3.2.3.4,0,.8-.3.4-.6.7-.9,1-.3.2-.7.2-1.3.2h-1.1c-.2.2-.3.2-.4.2s-.2,0-.2.2c-.2.2-.4.4-.7.7-.3.3-.6.6-.9.9-.3.2-.5.3-.6.5,0,.2-.3.5-.6.8-.2.3-.3.6-.4.9l-.2.2.4.2c.1,0,.2,0,.2-.2s0-.1.2,0c.3.2.4.4.4.7v.7c0,.4-.2.9-.4,1.3,0,.2-.1.3-.3.5-.2.2-.5.4-.8.5h-.4c-.3-.3-.7-.5-1.1-.7-.3-.1-.6,0-1,.3-.4.4-.6.6-.8.8l-.9,1.1c-.4.4-.6,1-.4,1.5,0,.2,0,.5-.1,1,0,.5-.3.9-.6,1.2-.2.3-.5.6-1,1-.5.4-.8.5-1,.5-.4,0-1,.2-1.5.4-.3.2-.6.5-.9,1-.3.5-.6.9-.9,1.2,0,.3,0,.5-.2.8-.2.2-.2.5-.2.8-.3.3-.4.6-.4.9-.2.2-.2.3-.2.4s0,.3-.1.3c0,0,0,.2.1.3,0,.3-.2.6-.6.9-.4.3-.6.4-.8.4s-.3,0-.6.1c-.2,0-.4.1-.6.1s-.3.2-.4.4c-.2.3-.4.6-.7.9,0,.3,0,.7-.1,1.2,0,.5,0,.8.1,1-.3.3-.7.9-1.1,1.8-.2.3-.5.7-1,1.1-.5.4-.8.7-1,.9-.3.2-.5.4-.6.8,0,.4,0,.6.1.8-.2.2-.4.5-.7,1.1-.3.6-.6,1.1-.9,1.5v.9h-.2c-.3,0-.7.2-1.3.4,0,.2,0,.4.1.8,0,.4.1.7.1,1,.3.3.4.7.3,1.2,0,.5-.3.9-.6,1.2-.2.3-.4.5-.7.7-.3.2-.4.2-.4,0-.2-.6-.2-1,0-1.1,0-.3-.3-.4-.9-.4s-.3,0-.6.2c-.2.2-.5.3-.8.4-.2.2-.2.3-.1.3,0,0,0,.2-.1.3-.2.2-.2.4-.2.7l.2.4c.3.3.7.2,1.1-.2.3-.1.6-.3.9-.3s.5,0,.7.1c-.3.3-.5.7-.7,1.3-.3.3-.5.6-.7,1-.2.4-.2.6,0,.8-.2.2-.4.5-.7,1-.3.5-.6,1-.9,1.4v.7l-.7.2c-.3.3-.4.6-.4.9s0,.5-.2.7l.2.4h-.4c-.3.3-.6.6-1,1-.4.4-.6.7-.8,1-.3.3-.7.8-1.2,1.5-.5.7-.9,1.2-1.2,1.3,0,.2-.2.3-.5.6-.4.2-.6.4-.8.6,0,.2,0,.4-.1.8,0,.4,0,.7.1,1l.4,2.2c.1.3.4.4.7.4l.2-.2c.1,0,.3,0,.4-.2l.4-.4c.1-.3.3-.6.4-.9,0-.3,0-.7.2-1.3.1-.6.3-1,.4-1.1-.2-.3.1-.4.9-.4l.7.4c0,.2,0,.2.2.2v1.1c-.2.3-.4.8-.8,1.4-.4.7-.6,1.1-.8,1.4-.3.3-.6,1-1,2-.4,1-.7,1.7-1,2-.2.3-.5.8-1,1.5-.5.7-.9,1.2-1.2,1.5-.2.3-.4.8-.8,1.4-.4.7-.7,1.1-1,1.4,0,.3-.2.7-.7,1.1-.4.4-.7.7-.9.9-.3.2-.4.4-.3.9,0,.4,0,.8-.1,1.1-.2.3-.4.8-.7,1.4-.3.7-.4,1.1-.2,1.2-.3.3-.7.9-1.1,1.8,0,.3,0,.8-.2,1.4-.2.7-.2,1.1-.2,1.2s-.1.5-.3,1c-.2.5-.5.9-.8,1.2-.3.3-.5.8-.5,1.7,0,.8-.1,1.3-.1,1.4s-.2.5-.5,1.1c-.4.6-.8,1.2-1.2,1.8-.3.6-.9,1.4-1.8,2.5-.9,1.1-1.5,1.8-1.8,2.1-.2.3-.4.7-.8,1.3-.4.6-.5,1-.3,1.3-.2.3-.2.7,0,1.1.1.4.3.8.4,1.1,0,.3.2.7.7,1.1s.7.8.9,1.1c.3.3.6.9.9,1.9.3,1,.6,1.8.9,2.5.4.7,1,1.8,1.8,3.2s1.2,2.3,1.5,2.8c.3.4.5,1.1.7,2,.1.9.3,1.4.4,1.5.3.1.5.4.8.7.2.3.4.5.5.7.1.1.3.4.5.9s.5.8.8,1.1c0,.3.2.8.5,1.5.4.7.7,1.3,1,1.8,0,.3.2.7.5,1.3.4.6.7,1.2,1.1,2,.4.7.7,1.4,1.1,2,.4.6.5,1,.5,1.1.1.3.3.8.5,1.4s.5,1.1.8,1.4c.3.3.7.9,1.1,1.6.4.8.7,1.4.9,1.7.1.3.4.7.8,1.1.4.4.5.8.5,1.1.1.3.4.7.7,1.1s.4.8.4,1.1c.3.3.6.7.9,1.3.3.6.5,1,.7,1.3,0,.3.2.8.6,1.4.4.7.7,1.1,1,1.4.4.3,1,1,1.5,2,.6,1,.9,1.8,1.1,2.2.3.4.7,1.1,1.2,1.9.5.8.9,1.4,1.2,1.6.3.3.7.7,1.1,1.3.4.6.7,1,.9,1.3l2,3.3c.3.3.7.9,1.3,1.9s1.1,1.7,1.5,2.3c.3.6.8,1.3,1.5,2.1.7.8,1.1,1.3,1.1,1.4.6.4,1,1,1.3,1.5,1,.7,1.8,1.1,2.2,1.1s.5.2,1,.7c.5.4,1,1,1.4,1.5.6.6,1.5,1.5,2.7,2.9,1.2,1.3,2,2.2,2.4,2.6.4.4,1.2,1.2,2.3,2.4,1.1,1.2,1.9,2,2.3,2.4.3.4.9,1.1,1.9,2,.9.9,1.6,1.5,1.9,1.8.4.3,1,.5,1.8.7.7.1,1.2.2,1.5.2s.6.1,1,.4c.4.3.7.6,1,.9.3.3.7.6,1.3.9.6.3,1,.5,1.1.7.1.1.3.4.3.8,0,.4.1.6.1.8.1.1.3.4.4.8.1.4.4.7.7,1,.3.3.7.5,1.2.7.5.1.8.2,1,.2h.2c.4.4.7.4.9,0h.4c.6,0,1,.1,1.3.4.3.1.5.4.6.9s.1.8.1,1.1c.1.3.5.7,1,1.1.5.4.8.7,1,.7s.5,0,1.1-.2c.6-.1.9-.2,1.1-.2s.5.1,1,.4c.5.3,1.1.6,1.9.9.6.3,1.5.8,2.8,1.5,1.2.7,2.1,1.2,2.5,1.3.3.1.7.4,1.3.7.6.3,1,.5,1.1.7l2.4,1.1c.6.3,1.2.7,1.8,1.1.1.6.4,1,.7,1.3.1.1.5.3,1.1.6.6.2,1.1.5,1.5.8l.9.2.4.2c.3-.1.7-.3,1.3-.4.6-.1,1.2-.4,2-.7l.9.4,1.8.7c.7.1,1.5.3,2.2.3.7,0,1.2.1,1.3.1s.5,0,1,.2c.5.1.9.3,1.2.4.3.1.8.3,1.4.3.7,0,1.1.1,1.2.1s.3.1.6.3.3.4.1.6l.4,1.3c-.1.1,0,.2.2.2h.7c.1,0,.5.1,1,.3.5.2.8.3,1,.3.3,0,1-.1,2.2-.4l.2-.7,1.5-.2c.9.1,1.7.3,2.5.3s1.3.1,1.4.1.3,0,.6.2c.2.1.4.2.6.2s.4,0,.7-.1c.3,0,.6-.1.9-.1s.6.1.9.3c.3.2.5.4.7.6l.7.7c.6,0,1-.1,1.3-.4.1-.3.2-.7.2-1.1.1-.1.6-.3,1.3-.3.7,0,1.5-.1,2.2-.1s1.9,0,3.6.1,2.6.1,2.8.1.2.2.1.6c0,.4-.1.6-.1.8s.3.2.9.3c.6,0,1.2.1,2,.1s1.8,0,3.3-.1c1.5,0,2.3-.1,2.4-.1s.4,0,.7-.2c.3-.1.5-.2.7-.2s.4,0,.7-.1c.3,0,.6-.1.9-.1s.8,0,1.4-.1c.7,0,1.2-.2,1.6-.3.4-.1,1.1-.4,2.1-.8.9-.4,1.5-.6,1.6-.6.3,0,.9-.1,2-.4.6-.1,1.3-.3,2.2-.4.9-.1,1.5-.2,1.8-.2h5.3c.1,0,.4,0,.9-.2.4-.1.8-.3,1.1-.4.3-.1.9-.3,1.8-.3.9,0,1.4-.1,1.5-.1s.4,0,.9-.2c.4-.1.9-.3,1.3-.4.3-.1.8-.1,1.4,0,.7.1,1.1.3,1.4.4.4.1.9.3,1.3.4.4.1.8.3,1.1.4.3.1.7.3,1.1.4.4.1.8.2,1.1.2s.6-.1,1-.3c.4-.2.6-.4.8-.6.1-.1.4-.4.9-.8.4-.4.7-.7.9-1,.3-.3.8-.5,1.7-.6.8,0,1.4-.2,1.6-.3.3-.1.8-.3,1.4-.6.7-.2,1.1-.3,1.2-.3.6,0,.9,0,.9.2.1.1.2.4.1.7,0,.3-.2.5-.3.7-.6.4-.9.9-.9,1.3.1.1.1.3-.1.3s-.3,0-.1-.1c-.1-.3-.5-.6-1.1-.9l-.4.2-.4.2c.1.6,0,.9-.4.9s-.2,0-.2.2l.2-.2h.2c.1,0,.3,0,.3-.1,0,0,.2-.1.3-.1.3,0,.6,0,1,.1.4,0,.6.2.6.3.1.3,0,.7-.4,1.1.1.1.3.4.6.7.2.3.5.6.8.9s.7.5,1.2.7c.5.1.8.2,1,.2s.3.1.3.3.2.4.3.6c.3.1.6.2.9.1.3,0,.5-.1.7-.1h1.1c.1,0,.4,0,.8.2.4.1.6.2.8.2s.5,0,1-.2c.5-.1.8-.2,1-.2l2.6-.9h.1ZM2.9,163.9l-.2-.2c-.2,0-.2,0-.2-.2v-.4c0-.1,0-.2.2-.2s.3,0,.4.2l.2.4c0,.1,0,.3-.2.4h-.2ZM13.9,226.6h-.2c0-.1,0-.2.2-.2h.2v.4l-.2-.2ZM32.5,106.1v1.1h.2l.4-.2c.1-.1.2-.4.2-.8s0-.6.2-.8c-.2-.1-.3-.3-.4-.4-.2,0-.2,0-.2.2.1.2.1.3,0,.4,0,0-.4.4-.4.4ZM32.9,110.5l.4-.4v-.2l-.2-.2c-.2,0-.2,0-.2.2s0,.3-.2.4c0,.2.2.3.4.4,0,.2,0,.2.2.2,0,0-.4-.4-.4-.4ZM55.2,86.2c-.2.3-.4.6-.7.9s-.4.5-.2.7c-.2.2-.1.3.1.3.2,0,.4.1.5.1s.3-.1.5-.4c.2-.3.4-.5.5-.7v-.4l-.2-.2v-.2l-.2.2c-.2.3-.2.5-.2.7,0,0-.2-.9-.2-.9ZM56.5,81.6c-.2.2-.2.4-.1.7,0,.3.1.5.1.7s.1.2.4.2.3-.2.3-.7c0-.4.1-.7.1-.9l-.7-.4c-.2,0-.2,0-.2.2.1.2.1.3,0,.4v-.2ZM57.6,98.2v1.8c.1.2.3.2.4.2h.2v-1.1c0-.1,0-.3.1-.6s0-.4-.1-.6c.1-.1.1-.3,0-.3-.2,0-.3,0-.4.1-.4.3-.6.8-.4,1.5,0,0,.2-1.1.2-1.1ZM65.3,64.2c-.2.3-.2.7,0,1.1.1.4.3.7.4.9.2.2.5.2,1.1.2s.3-.2.3-.6.1-.6.1-.8v-.7c-.2-.4,0-.8.2-1.1h-.2c-.3.2-.7.5-1.1,1.1,0,0-.9-.2-.9-.2ZM70,60.7l.4.2c.1,0,.2.2.2.4s0,.2.2.2l.4.2-.2-.4-.2-.2h-.2v-.2l-.7-.2ZM76.2,53.4l-.2.4c-.2.2-.2.3-.2.4h.4c.4,0,.7,0,.9-.2.1-.1.2-.3.1-.4,0-.1,0-.3.1-.4,0-.4-.2-.4-.7,0,0,0-.4.2-.4.2ZM182.7,250.1v-.4c0-.1-.1-.3-.3-.3-.2,0-.4-.1-.6-.1s-.3,0-.6.1c-.2,0-.4.1-.6.1s-.2.1-.1.3c0,.2.2.3.3.3h1.1c.1,0,.3,0,.4-.2l.2.2Z"/>
  <path class="st0" d="M108.1,200.5h-.7c-.3-.1-.5-.4-.7-.7-.2-.3-.5-.4-1.1-.2-.4,0-1,.1-1.8.4h-.7c-.2.3-.2.5-.1.7,0,.1,0,.4-.3.7-.3-.1-.5-.2-.6-.3,0,0-.3-.2-.8-.3-.3,0-.4.1-.4.3s-.2.5-.4.8c-.3,1-1,1.4-2.2,1.1-.6-.7-1-1.5-1.2-2.3-.2-.8-.4-1.7-.6-2.8-.3.3-.4.5-.4.6s0,.2-.2.3c-.2.1-.3.3-.3.4,0,.1-.3.3-.6.4-.3.3-.5,0-.7-.7-.2-.3-.2-.6-.2-1v-1c-.3-.3-.4-.5-.4-.7s0-.4-.2-.7l-.7.7c-.3.1-.5.4-.7.7-.6-.3-.8-.7-.8-1.1,0-.4,0-.8-.1-1.1-.3-.1-.4-.4-.4-.9-.2-.4-.4-.4-.7,0-.3.1-.4.3-.4.4v.4h-.4c0-.6-.2-1.1-.7-1.4s-.4-.9,0-1.6c-.4-1.6-.2-3.4.7-5.3-.2-.3-.3-.6-.3-.8,0-.2,0-.5.1-.8.1-.6.1-1.1-.1-1.6s-.1-1.1.3-1.6v-.2c-.3-1.5-.4-2.9-.3-4.4,0-1.5,0-2.9-.1-4.4-.2-.6-.2-1.2-.1-1.8,0-.6.1-1.2.1-1.8.1-.7.1-1.5,0-2.3-.2-.8,0-1.6.2-2.3.4-.4.4-.9,0-1.5-.4-.9-.6-1.8-.3-2.6.2-.9.3-1.8.3-2.6.6-.7.8-1.5.7-2.3-.2-.8-.2-1.6-.2-2.3.1-.4.2-.9.1-1.3,0-.4.1-.9.6-1.3l-.2-.9c-.2-1.8-.2-3.5-.1-5.3,0-1.8.3-3.6.6-5.5l1.5-9.3v-5.3c0-1,.2-2.1.7-3.3.1-.6.3-1.2.4-1.8.1-.6.3-1.2.4-1.8,0-.6,0-1.1-.1-1.7,0-.5,0-1.1.1-1.7,0-.6,0-1.1.1-1.7,0-.5.1-1.1.1-1.7.3-1.5.4-2.6.4-3.3.1-1.2.3-2.4.4-3.6.1-1.2.2-2.5.2-3.6s.1-2.7.4-4c.3-1.3.4-2.7.2-4v-1.3c.1-.4.3-.9.4-1.3s0-.8-.2-1.1c-.2-.3-.4-.5-.7-.7-.3-.1-.5-.3-.7-.4.3-1.3.6-2.6.8-3.9.2-1.2.5-2.5.8-3.6,0-1.2,0-2.1-.2-2.7-.2-1-.1-2,.1-3,.2-.9.1-1.9-.3-3,.4-.6.5-1.1.1-1.5s-.6-.9-.8-1.5l.2.7c-.6.9-1,1.2-1.1,1.1-.3-.4-.4-.9-.2-1.3.3-1,.4-2,.4-3v-3c.1-1,.2-1.6.2-1.8.7-1,1-2.5.9-4.4.1-.3.2-.6.1-1,0-.4-.1-.7-.1-1,.1-.9.5-1.5,1.1-2l1.5-1.8c.4-.6,1.1-.8,2-.7.6.2,1.1.3,1.4.3.4,0,.9,0,1.7-.3.1-.3.2-.7.1-1.1,0-.4,0-.8.1-1.1-1-.3-1.4-.7-1.1-1.3-.2-.4,0-.7.2-.7.7-.1,1.2-.4,1.5-.9.3-.4.4-1,.4-1.8.3-.1.6-.2.9-.2s.6,0,.9-.2c.3-.1.5-.3.7-.4.1-.2.4-.4.7-.7.4.6.6,1.2.4,1.9-.2.7,0,1.4.4,2.1,1.5-1,2.3-2.5,2.4-4.4,0-.6-.3-1.1-.9-1.5-.4-.9-.3-1.5.4-1.8.7-.3,1.2-1,1.3-2,.4-.9.9-1.5,1.5-2,.1-.3.2-.6.3-1,0-.4.2-.7.6-1,0-.6.4-1,1.1-1.3.7-.1,1.3,0,1.8.7.1.1.3.5.4,1.1.3.7.6,1.4.8,2,.2.6.5,1.2.8,1.8.9,1.5,1.2,3.3.9,5.5-.3,1.9,0,3.5.7,4.8.1,1.2.2,2.1.2,2.7-.2.7,0,1.4.2,2,.3.6.4,1.2.4,2s0,1.4-.2,2.1c-.2.7-.2,1.4-.2,2.1-.2.7-.2,1.5-.1,2.3,0,.8,0,1.6-.3,2.3-.2.2-.2.4-.2.9.4.6.6,1.2.6,1.8,0,.6-.2,1.2-.3,2-.4,1.5-.6,2.7-.4,3.5.3.9.3,1.5,0,2-.4,1.2-.6,2.4-.3,3.6s.2,2.5-.1,3.6c-.4,1.3-.4,2.5,0,3.5,0,.3,0,.5-.2.7-.4,1.5-.4,3.2,0,5.3-.2.6-.2,1,0,1.3-.2.6-.3,1.1-.4,1.7-.2.5-.3,1.1-.4,1.7-.6,1-.6,2,0,2.9,0,.3,0,.6-.1.8,0,.2-.1.5-.1.8-.3.7,0,1.2.7,1.3.1,0,.3.2.4.7-.3,2.1-.4,4.1-.4,6.2s-.2,4.1-.7,6.2c-.2.4-.2,1.1,0,2,.1.2.6.4,1.3.7-.2.4-.3.9-.3,1.4,0,.5,0,.9.1,1.2.3.9.1,1.5-.4,1.8-.3.3-.6.5-.8.7-.2.2-.6.4-1,.7,0,.7,0,1.4-.1,2,0,.6.1,1.2.6,1.8-.3,1-.6,2-.8,3-.2,1-.3,2-.1,3.2.3-.3.4-.6.4-1s0-.7.2-1c-.2-.4,0-.9.2-1.3,0-.4.3-.7.9-.7s.6.3.4.9c-.2,1.2-.3,2.3-.3,3.3,0,1-.1,2.1-.1,3.3-.2.9-.2,1.5,0,2,.1.7,0,1.5-.7,2.2-.2.3-.4.5-.7.6-.3,0-.6.3-.9.6.3,1.2.4,2.1.4,2.6.3.1.6.1.8-.1.2-.2.5-.1.8.3v.7c-.2,1.3-.2,2.6-.1,4,0,1.3.1,2.6.1,4v.7h-.7c-.4-.1-.8-.2-1.1-.1-.3,0-.4.2-.2.3.3.3.7.5,1.1.7,0,.4-.2.7-.4.8-.3,0-.6.3-.9.6.1.3.3.5.3.7,0,.1.2.4.3.7l1.3-.7c0,.3,0,.6-.1,1,0,.4-.2.7-.3,1,0,.3,0,.5.1.7,0,.1.2.4.3.7,0,.3-.2.7-.4,1.1-.3.4-.2.8.4,1.1l-.2.2c0,.1,0,.2-.2.2-.3.1-.7.4-1.3.7-.6.1-.7.5-.2,1.1.4-.1.9-.4,1.3-.7.3.1.5.2.7.2-.2,1.2-.2,2.3-.2,3.3s0,2.1-.2,3.3c0,.3-.2.5-.4.7-.4-.6-.7-.9-.8-1.1,0-.1,0-.6.1-1.3-.2-.6-.3-.9-.4-1.1,0-.1-.2-.2-.4-.2s-.4.1-.4.4,0,.7.2,1.3c0,.3,0,.6-.1,1,0,.4-.1.7-.1,1s0,.5.2.7c.1.1.1.4,0,.7,0,.7,0,1.4-.2,2.1-.2.7,0,1.4.4,2.1.2.1.2.3,0,.6s-.2.5-.2.8c-.2.4,0,.9.2,1.3,0,.3,0,.7.2,1.1.6,1,.8,2,.6,3-.2,1-.6,1.9-1,3-.2.3-.3.7-.4,1.3v.9c.1.3.3.5.4.6.1,0,.1.3,0,.6-.2.6-.3,1.2-.3,1.8,0,.6-.2,1.1-.3,1.5-.7,1.3-1.8,2.2-3.3,2.6-.6.1-1,.6-1.3,1.3.3.3.5.5.7.7.1.1.4.4.7.7.4.4.4,1,0,1.8-.2.4-.3.9-.6,1.2-.2.4-.3.9-.3,1.4s-.2.6-.4.9c-.3.3-.5.6-.7.9-.3-.4-.5-1.1-.7-2,.3,0,.4,0,.4-.2.3-.4.2-1.1-.2-2h-.2c-.6.4-.7.9-.2,1.3,0,.3.1.5.4.7l-.9.7h0ZM95.8,101.2c.3-.4.4-.7.4-.9.1-.1,0-.4-.4-.9-.2.3-.3.6-.4.9,0,.2,0,.3.1.3,0,0,.2.3.3.5ZM106.8,193.7c-.2-.1-.2-.3-.1-.3s.1-.2.1-.3h-.2c0,.1,0,.3-.1.3s0,.2.1.3h.2ZM109,196.3h-.7l-.2.2h.7l.2-.2ZM109.2,193.9h-.7l-.2.2h.7l.2-.2ZM116.3,163.2v-.2h-.2v.2h.2ZM116.8,158.2l.2-.2h-.2l-.2.2h.2ZM117.2,144.5v.7h.2v-.7h-.2Z"/>
  <path class="st0" d="M157.1,123.3c.4.3.7.7.7,1.2v1.7c0,.2-.1.3-.3.4-.2.2-.4.3-.6.4s-.3.2-.6.2-.5,0-.8.2l-.2.4.2.2h.7c.9,0,1.2.4,1.1,1.3.1,1,.1,2.2,0,3.5-.4-.6-.8-1.1-1-1.5-.2-.4-.5-.9-.8-1.3-.6.1-.8.7-.7,1.5-.1.6,0,1,.4,1.3.9.3,1.1.7.7,1.1-.1.4,0,.8.2,1.1.3.3.3.7,0,1.1-.6,1.2-.5,2.4.2,3.5h-.7c-.7.3-1.1.7-1.1,1.3s.1,1.2.3,1.3c.2.1.7.4,1.4.7-.1.9-.2,1.5-.2,1.8s-.3.8-.9,1.5c.4.3.8.5,1,.7.2.1.2.4.1.9-.1.7-.3,1.5-.3,2.2,0,.7-.3,1.5-.6,2.2-.4.9-.5,1.5-.2,1.8.3.3.4.7.2,1.1-.1.4-.3.8-.4,1.1-.6.6-.6,1,0,1.3l.2.7c0,.1,0,.2-.1.2s-.1,0-.1.2l-.2.2c.9.6.9,1.2,0,2l-.2,4.6c0,1.5,0,2.6.2,3.3.3.6.4,1.2.2,1.8-.1.6-.2,1.2-.2,1.8-.1.6-.1,1.1,0,1.7.1.5,0,1.1-.2,1.6.1.7.1,1.2,0,1.5-.6.9-.7,2-.4,3.3.1.6.2,1.1.1,1.6,0,.5-.1,1.1-.1,1.6-.1.1-.2.3-.2.4s0,.3-.2.4c-.6.6-1,1.4-1.1,2.4.3.6.1,1.2-.4,2-.4.7-.8,1.1-1,1.1s-.6-.3-1.2-.9l-.7.7c-1.2.4-1.6,1.2-1.3,2.4.3.6-.1.7-1.3.4l-.9,2c-.1.3-.3.5-.6.6-.2,0-.4.3-.6.6l-.2,2c-.1.3-.2.6-.2,1s-.2.7-.7,1c-.3-.3-.6-.6-.8-1-.2-.4-.4-.7-.6-1-.7.6-1.2.9-1.3.9s-.4-.4-.9-1.1c-.4-.3-.7-.4-.9-.4v.4c-.1.9-.4,1.5-.9,1.8-.4.4-.6,1.2-.4,2.2.3.3.4.6.2.9-.1.3-.4.6-.7.9-.7.1-1.4.4-2,.7-.6.3-1.2.1-2-.4l.9-.4c.3,0,.6,0,.9-.2.1-.3.4-.5.7-.7.1-.1.1-.4,0-.7-.1-.3-.3-.4-.6-.2-.2.1-.5.2-.8.2-.9.3-1.6.2-2.2-.2-.3-.1-.6-.2-.8-.1-.2,0-.5.1-.8.1-.9,0-1.2-.4-1.1-1.1l.4-1.3c.1-.3,0-.6-.2-.8-.3-.2-.6-.2-.9.1-.3.3-.6.5-.9.6-.3,0-.6,0-.9-.3-.3-.4-.3-.9,0-1.3.6-.4.8-.9.7-1.3-.6-.7-.8-1.2-.7-1.3.1-.7.1-1.5,0-2.3-.2-.8,0-1.6.4-2.3.1-.7-.2-1.2-.9-1.3-.2,1-.3,2-.3,3,0,1-.1,2-.1,3.2-.6-1-.9-1.8-.9-2.4s0-1.3.2-2.2c.3-.7.4-1.4.2-2-.6-.9-.7-1.8-.2-2.6.3-.3.5-.7.7-1.3.2-.7.3-1.1.4-1.1.6-.3.9-.7,1-1.2,0-.5,0-1.1-.1-1.6-.2-.3-.3-.5-.3-.7,0-.1-.1-.4-.1-.7-.6-2.5-.7-4.7-.4-6.6.1-.7.2-1.5.2-2.4s0-1.8-.2-2.6c.1-1.2.2-2.3.2-3.3s.2-2.1.7-3.3c.3-.3.3-.6,0-.9-.4-.4-.6-.9-.4-1.4.1-.5.2-1.1.2-1.6s0-1.1-.2-2c-.3-.4-.4-.9-.2-1.3.3-.3.5-.7.7-1.3.1-1.5.2-2.9.2-4.3v-4.3c.1-1,.3-2,.3-3,0-1,.2-1.9.3-3-.1-.1,0-.4.4-.7.6-.3.9-.2.9.2.9.7,1.1,1.5.7,2.4-.6.9-.7,2-.4,3.3.1.6.2,1.1.2,1.6s0,1.1.2,1.6c-.1.4,0,.8.7,1.1.1-.4.2-.9.2-1.3v-1.3c0-.7,0-1.5-.1-2.3,0-.8,0-1.6.1-2.3,0-.7,0-1.4.1-2,0-.6.1-1.2.1-2s0-1.1.1-1.5c0-.4.1-.9.1-1.5s0-.9.1-1.4.2-1.1.3-1.6c-.1-.6-.1-1,0-1.3-.1-.6,0-1.1.2-1.5.1-.7.2-1.4.3-2,0-.6.2-1.2.3-2,0-1.5,0-2.9.1-4.3,0-1.4.3-2.8.8-4.3.3-.7.4-1.5.4-2.2s0-1.5.2-2.2c.1-.9.2-1.8.2-2.7s0-1.8.2-2.7c-.6-.3-.9-.1-.9.4-.1.7-.3,1.4-.4,1.9-.1.5-.1,1.1,0,1.9,0,.3,0,.6-.1,1,0,.4,0,.7.1,1-.3.3-.5.4-.7.4h-.4c-.6-1.5-.8-2.9-.7-4.4.1-.9.4-1.5.7-2,.6-1.2.9-2.1,1.1-2.7.1-.7.2-1.5.2-2.3s0-1.6.2-2.3c-.1-.7,0-1.1.4-1.1s.5.2.7.7l.2.9c.6-1.5.8-2.7.7-3.5-.1-.7-.1-1.4,0-2.1.1-.7.3-1.4.4-2.1-.7-.6-1-1.2-.9-1.8,0-.3,0-.7-.1-1.1,0-.4,0-1,.1-1.5,0,.3,0,.5.2.7.1.2.2.4.2.7.3.3.4.6.3.8,0,.2,0,.5.1.8.6-.6.8-1.2.7-2-.1-1.6-.1-3.2,0-4.6.1-1.5.4-3,.7-4.6v-2.7c.1-.9.2-1.8.1-2.7,0-.9,0-1.8.1-2.7.1-1.2-.1-2.1-.9-2.7-.7-.4-.9-1.1-.4-2,.1-.4.3-.8.4-1.2.1-.4.4-.7.7-1,.3-.1.5,0,.7.2.1.3.4.6.9.9,0,.2.1.2.4.2l.2-.4c-.9-2.2-.2-4,2-5.3.3,0,.4-.1.4-.4,0-.7.3-1.2.8-1.4.5-.2.9-.7,1.2-1.4.9,1.2,1.5,2.5,1.8,4,.1.6.1,1,0,1.3.4.7.8,1,1.1.7.3-.2.4-.3.4-.4s0-.3.2-.4l-.2-1.5c-.3-.3-.5-.6-.6-.9,0-.3-.2-.6-.3-.9-.4-.3-.5-.6-.2-1,.3-.4.3-.7,0-1,0-.1-.2-.4-.7-.7.3-.3.6-.4.9-.4h.9c.7-.1,1.1,0,1.1.4.1.4,0,1-.7,1.5.3,1.5.7,2.5,1.3,3.1.4-.1.6-.3.6-.4,0-.1-.1-.3-.1-.4,0-.4,0-1-.2-1.5.1-.3.3-.5.4-.7.1-.1.2-.4.2-.7.3-.3.6-.4.9-.3.3,0,.4-.1.4-.5.1-.3.3-.5.4-.8.1-.2.3-.5.4-.8.3-.4.6-.7.9-.7s.6-.2.9-.7c.1-.4-.1-.8-.9-1.1-.3-.1-.9-.4-1.8-.7.1-.4.3-.8.6-1.2.2-.4.2-.8-.1-1.2-.1-.7.2-1.2,1.1-1.5.4-.1.6-.5.4-1.1.7-.3,1.6-.2,2.6.2l.4-.4c.4-.7.7-1.1.9-1.2s.7.1,1.5.5c.1.3.3.5.3.7,0,.2.1.4.1.7.4.6.7,1,.9,1.3,0,.7.2,1.4.6,2,.4.6.8,1.2,1.2,2,.7.7,1,1.4.9,2,0,.3.1.6.4,1,.3.4.5.7.7,1,.1.3.1.5-.1.5-.2,0-.4.3-.6.5.4.3.8.6,1.1,1,.3.4.7.4,1.3.1l1.8,1.3c.1.3.3.6.4.9.1.3.4.6.7.9.4.3.7.7.8,1.1s.3.8.8,1.1c.1.3.3.6.6,1,.2.4.4.7.6,1l.4,2c.1,1.2.3,2.3.6,3.3s.3,2.1.3,3.3-.1.9-.3,1.3-.5.8-.8,1.1c-.6.6-.8,1.3-.7,2.2.1.6.3,1.1.6,1.7.2.5.3,1.1.3,1.7.1.3.4.4.9.4.1-.2.3-.3.3-.3s.2-.2.3-.3c.1-.4.1-.9-.1-1.3s-.1-.9.3-1.3c.1-.3.3-.7.3-1.1,0-.4.2-.9.3-1.3l.2-.2c.1.2.3.2.6.2s.5,0,.8.2c.4.2.7.3.7.4s.2.4.7.7c.1-.4.3-.8.3-1.2s.2-.8.3-1.2c.1.4.3.8.4,1.1.1.3,0,.6-.2.9-.3.6-.3,1.5,0,2.7.3,1.3.6,2.7,1,4,.4,1.3.8,2.7,1.2,4,.3.3.5.7.7,1.3-.1,1.5.4,2.4,1.8,2.9,1,.3,1.2.7.4,1.3-.6.4-.7,1.1-.4,2,0,.3,0,.5.1.7,0,.2.2.4.3.7.4-.3.9-.4,1.5-.4v-2c.3.2.5.2.7.2h.2c.7.9,1,1.6.9,2.2-.1.6,0,1,.4,1.3.4.3.5.7.2,1.3,0,1.2,0,2.1.2,2.7.1.4.2.9.3,1.4,0,.5.3,1,.8,1.4.7.9.7,1.7,0,2.4-.4.6-.6,1.1-.4,1.5.1.4.3,1,.4,1.5l.7-.9h.4c0,1.2.4,2.1,1.3,2.7.4.4.6,1.1.4,2-.4,1.8-.3,3.5.4,5.1-.1.2-.2.4-.2.7.6,1.5.4,2.7-.7,3.8-.4-.3-.4-.7,0-1.3,0-.1,0-.3-.1-.3,0,0-.1-.2-.1-.3h-.4c-.3.2-.6.4-.9.9,0,.7,0,1.5.2,2.2.1.7.7,1.3,1.5,1.8.3-.3.4-.7.3-1.2,0-.5.2-.8.8-1,.3.6.3,1.3,0,2.2-.4.7-.6,1.5-.4,2.4.1.6.2,1.1.2,1.7s.1,1.1.4,1.6c.1.7.4,1.2.9,1.5.7.7.8,1.7.2,2.9-.1.3,0,.6.4.9.4.3.4.9,0,1.8h-.7.7l-.2,1.1c.3.3.7.7,1.1,1.3.7-.3.9-.9.7-1.8l-.7-4c-.1-.7,0-1.2.7-1.3.3,0,.4-.2.4-.7.1-.4.3-1.1.4-2,.1-.7.3-1.5.3-2.3,0-.8.3-1.6.8-2.3.6-.6.9-1.2.9-2,.1-1.5.3-2.9.6-4.3s.5-2.8.8-4.3c.1-1.2.3-2.4.4-3.6.1-1.2.1-2.5,0-3.6.1-.3.2-.5.1-.7,0-.1,0-.4.3-.7.4-1.2.7-2.3.9-3.4.1-1.1.4-2.2.7-3.4l1.5-6c.1-1,.6-2,1.3-2.9,0-.1-.2-.4-.7-.7-.3-1,.2-1.8,1.5-2.2.1-1.5-.1-2.9-.9-4.2-.4-1-.3-1.8.4-2.2.1,0,.3-.4.4-1.1.1-.4.3-.9.4-1.4.1-.5.3-1.1.4-1.7-.1-.6.1-.6.9,0,.1.3.3.4.6.3.2,0,.3-.3.3-.6.3-.9-.1-1.5-1.3-1.8-.3-1.2-.2-2.2.2-3.2s.7-2,.7-3.2c.3.2.6.2.9.2.9-1.2,1.2-2.3.9-3.5l-.2-.9c.1-.6.3-1.1.4-1.7.1-.5.4-1.1.9-1.7l.4-.7c.6.4,1.1,1.1,1.5,2-.1.3-.2.5-.1.7,0,.2,0,.4-.1.7,0,.3-.2.7-.7,1.3l.2.7h.2l-.2-.7-.2-.4c.6.2,1,0,1.3-.4.3-.6.3-1,0-1.3,0-.1-.3-.4-.9-.9,0-1.6,0-2.7.1-3.1,0-.4.3-1.3.8-2.7-.4-.4-.9-.5-1.2-.1s-.8.5-1.2.5l2-6.6c0-.3.1-.5.4-.5.3,0,.5-.3.7-.5,0-.3,0-.5-.1-.7,0-.1,0-.4.1-.7,0-.7.1-1.4.4-2,.3-.6.6-1.2.9-2,.1-.3.3-.5.6-.5s.5-.3.8-.5c.1.3.3.5.3.7,0,.2.3.4.6.7-.1.2-.3.3-.4.3-.1,0-.2.2-.2.3-.6.3-.9.5-.9.5s.2.4.7,1c.9-.6,1.4-1,1.7-1.2.2-.2.6-.8,1-1.7.6-.9.9-1.7.9-2.4.1-.7.3-1.5.3-2.3,0-.8.3-1.6.6-2.3.1-.3.2-.7.1-1.1,0-.4-.1-.9-.1-1.3-.4.3-.7.7-.8,1.1,0,.4-.3.8-.6,1.1h-1.3c-.1.6-.1,1.1,0,1.5.1.4.2.9.2,1.3l.2.7-.7.7h-.2c-.3-.3-.6-.6-1-.9-.4-.3-.4-.7-.1-1.3v-.7c.1-.4.2-.9.1-1.3,0-.4,0-.9.1-1.3.1-.4.3-.8.4-1.2.1-.4.2-.8.2-1.4.3-.4.5-.9.6-1.3s.4-.7,1-.9c.1-.3.2-.5.1-.7,0-.1,0-.4.1-.7.1-.7.3-1.2.4-1.3.1-.1.7-.2,1.5-.2s.4,0,.2-.2c.1-.1.2-.3.2-.4-.3-.3-.5-.5-.7-.7-.3-.3-.4-.6-.2-.9.1-.4.6-.7,1.3-.7h.9c0-.3,0-.6-.1-1,0-.4,0-.7.1-1,.1-.7.2-1.4.1-2,0-.6.2-1.2.8-1.8.3-.3.4-.6.4-1s0-.8.2-1.2c-.7,0-1.3,0-1.8.2.3-.6.6-1.3.9-2.2.1-.7.8-1.1,2-1.1.3-.4.6-.8.8-1.2s.3-.8.1-1.4h.7c.4-.1.7-.3.8-.3s0-.5-.1-1.2c1.5-.4,2.5-1.1,3.2-2.1.7-.9,1.4-2,2.3-3,1.3.3,2.2.5,2.6.7.6.3,1,.5,1.1.7v.9c.1.3,0,.4-.4.4s-.5,0-.6-.1c0,0-.3-.1-.6-.1s-.4,0-.4.2c-.1.2-.2.3-.2.4.6.6,1.2,1,2,1.1.3.1.6.2.9.1.3,0,.6-.1.9-.1v-1.3c.3.2.5.2.7.2s.4,0,.7.2c0-.1.1-.4.4-.7-.1-.7-.2-1.3-.2-1.8,0-.7.6-1.2,1.8-1.3l-.2,2c-.3.4-.3.8-.1,1.1.2.3.4.6.6.9,0,.2.3.2.9.2s.4-.3.2-.9c.1-.1.1-.4,0-.7.3.9.5,1.5.7,2,.1.6.3,1.2.3,1.8,0,.6.3,1.1.6,1.5.1.1.2.3.1.4,0,.1,0,.1.3,0-.1-.3-.1-.5,0-.7.3-1,.3-1.9,0-2.6-.3-1-.2-1.8.2-2.4.3-.3.4-.5.2-.7-.1-.2-.3-.3-.4-.4-.1-.1-.4,0-.9.2-.3.3-.4.7-.2,1.1-.6.3-1,.2-1.3-.2-.1-.1-.2-.4-.2-.9.3-.9.4-1.8.4-2.7V0c1,.7,2,1.5,2.9,2.2.9.7,1.7,1.6,2.4,2.7-.4.2-1,.4-1.5.7.1-.6,0-1-.3-1.1-.4-.1-.7-.4-1-.7-.3-.1-.7-.2-1.1-.2s-.6.4,0,1.1c.4.6.9.9,1.3.9h1.3c.1.4.3.9.3,1.3s0,1-.1,1.5v.7c0,1,.4,1.5,1.3,1.5h1.3c.3.3.1.7-.4,1.3l.2.4c.9.6,1.1,1.3.8,2.1s-.4,1.6-.1,2.3c0,.1,0,.3-.1.3s-.1.2-.1.3c-.3.3-.6.5-.9.7-.3.4-.4,1-.2,1.5.3.3.4.5.4.7.4.7,0,1.1-1.1,1.1s-1,.2-1.1.7c.1.6.2,1,.2,1.3,0,.4-.1.7-.4.9-.3.7-.4,1.2-.3,1.3,0,.1.5.4,1.2.7.3.1.4.3.4.5s-.1.4-.4.5c-1,.6-1.2,1.5-.7,2.6v.8c0,.2,0,.5.2.8.3.7.3,1.4,0,2-.3.6-.7,1.2-1.3,2-.1-.3-.3-.6-.4-.9,0-.3,0-.5.2-.7s.2-.4.2-.7-.2-.4-.7-.7c0-.1-.1-.2-.3-.1-.2,0-.3.3-.3.5s0,.3-.1.3,0,.2.1.3c-.1.3-.2.5-.2.7v.7c-.3-.1-.6-.4-.8-.8-.2-.4-.6-.7-1-1-.3-.3-.6-.5-.8-.7-.2-.1-.5-.3-.8-.4-.7-.3-1.2,0-1.3.9-.1.3-.2.6-.1,1,0,.4.1.7.1,1,.1.6,0,.9-.7.9-.9,0-1.4.5-1.5,1.5.1.9,0,1.8-.7,2.7-.4.6-.7,1-.7,1.3-.1.7-.3,1.5-.4,2.3-.1.8-.5,1.6-1.1,2.3-.4.6-.8,1.2-1,1.9-.2.7-.1,1.4.3,2.1-.1.3-.2.5-.2.7-.4-.3-.8-.7-1.1-1.3-.3-.1-.6-.2-.9-.2v.7c0,.2,0,.3-.2.4.3.3.4.5.4.7s.1.4.4.7c-.4.4-.6.7-.4.7-.1.2-.4,0-.9-.4l-.2-.9-.7.9c-.1.9-.2,1.8-.1,2.7,0,.9-.1,1.8-.6,2.7-.3.3,0,.4.7.4s.9.2.9.7l-.2,2-1.3,3.3c-.1-.1-.5-.4-1.1-.7,0-.7,0-1.5.1-2.2,0-.7,0-1.5-.1-2.2,0,.2,0,.2-.2.2-.7.6-1.1.9-1.2.9s-.3-.1-.6-.4c-.3-.3-.5-.5-.6-.8,0-.2.2-.6.8-1.2v-.7c0-.3-.1-.4-.4-.4-.3-.1-.6,0-.8.3-.2.4-.5.5-.8.5-.3.6-.6,1.1-.8,1.7-.2.5,0,1.1.6,1.7.1.3.4.8.7,1.5-.3.6-.4,1.1-.3,1.7,0,.5,0,1.1-.1,1.7,0,.4,0,.8-.2,1.1-.7.4-1.2,1-1.3,1.8.1.3,0,.7-.2,1.1-1.2.9-1.6,2-1.3,3.3-.1.6-.2,1.1-.2,1.7s0,1.1-.2,1.7l-.4,7.3c0,.2,0,.4-.2.7-.9,1.5-1.2,2.9-.9,4.2-.3.7-.5,1.4-.6,2,0,.6-.1,1.2-.1,2l-.7,2.7c-.1.7.1,1.3.9,1.8h.7c.3,0,.4-.1.2-.4.1-.6.2-1,.2-1.3-.3-.9-.3-1.8,0-2.7.3-.9.6-1.8.9-2.7.1-.4.3-.8.4-1.2.1-.4.1-.8,0-1.2-.1-.3,0-.6.2-.9.6-.6.9-1.2.9-1.8s0-1.2.2-2c.1-.7.3-1.1.4-1.1.3-.4.4-.9.3-1.4,0-.5,0-1,.1-1.4.3-.6.5-1.1.6-1.5s.1-1,.1-1.5c.1-.7.4-1.5.7-2.3.3-.8.5-1.6.7-2.3.1-.1.4-.2.7-.2.1.3.2.6.1.8,0,.2-.1.5-.1.8-.7,2.5-1.3,4.9-1.8,7.3v2.7c-.1.9-.4,1.5-.7,2l-.7.7c-.1,1.2-.3,2.3-.4,3.3-.1,1-.3,2.1-.4,3.3-.1.9-.1,1.5,0,2,.3.3.3.6,0,.9-1,1.5-1.2,3.3-.7,5.5.3.3.7.5,1.2.7.5.2.9.4,1.2.7l-2.2,2c0,.4,0,.9.1,1.3s.1.9.1,1.3c.1.3.2.6.2,1s-.3.7-.9,1c-.3.3-.4,1-.2,2,0,.2,0,.2.2.2s.3,0,.4.2c.3.3.4.5.4.7l.2.4c-.3.2-.6.3-.8.3-.2,0-.4.2-.6.3-.1.7-.3,1.4-.3,1.9,0,.5-.2,1.1-.3,1.7l.2,1.1c.1.4.2,1.1.2,2-.1.7-.2,1.5-.2,2.2s.2,1.5.7,2.2c.1.6.1,1,0,1.3,0,1.3,0,2.7-.1,4,0,1.3-.3,2.6-.6,4-.6,1.9-.9,4.1-.9,6.6.1.6.3,1.1.3,1.6,0,.5-.2,1.1-.8,1.6,0,.4,0,.9-.1,1.3,0,.4,0,.9.1,1.3.1.6.3,1.1.3,1.5,0,.4,0,1-.1,1.5-.1-.1-.6-.4-1.3-.7v3.3c-.1.4-.2.9-.1,1.3,0,.4,0,.9-.1,1.3-.1,1.3-.2,2.6-.1,4,0,1.3.1,2.6.1,4s-.3,3.2-.9,4.9c-.4,1.2-.7,2.3-.7,3.4s0,2.2.2,3.4c0,1,0,2-.1,3,0,1-.1,1.9-.1,3l-.2,2.6h1.3c0,.6,0,1.3-.2,2.2-.1.1-.3.3-.6.3-.2,0-.5.3-.8.6,0,.7,0,1.4.1,2,0,.6.2,1.2.3,2v2.6c-.3.7,0,1.1.7,1.1s.2-.1.3-.3c0-.2.2-.5.6-.8.4,1.2.7,2.1.7,2.6-.3.9-.7,1.4-1.3,1.5-.7.1-1.1.5-1.1,1.1s0,.5-.2.7c.4,1,.6,2,.3,3-.2,1-.3,1.9-.3,3-.1,1.3-.6,2.8-1.3,4.4-.1.3-.3.5-.4.7s-.4.3-.7.4c-.1.1-.4.2-.7.1-.3,0-.6-.1-.9-.1-.1.3-.3.6-.6,1-.2.4-.4.8-.6,1.2-.4.4-.8.7-1.1.7-.9,0-1.5.4-1.8,1.1,0,.1-.1.4-.4.9-.1-.3-.3-.6-.3-.8,0-.2-.2-.5-.3-.8-1,0-1.7.5-2,1.5v1.8h-.7l-.2.4h.7c.4-.6.9-.7,1.3-.4.3.3.6.5.9.7.3.1.6.4.9.7-.1.4-.4.8-.9,1.1-.4.1-1,.2-1.5.2-1,.3-1.7,1-2,2,.1.1,0,.4-.2.7-.4.6-.9.6-1.3,0-.9-.6-1.7-.4-2.4.7-.1.1-.3.3-.3.4,0,.1-.2.3-.3.4,0,.1-.2.2-.7.2s-.5-.2-.7-.7c.3-.3.4-.5.2-.7-.9,0-1.5,0-1.8-.2-.3-.1-.7,0-1.3.4l-.9.9c-.1,0-.3,0-.3-.1s-.2-.1-.3-.1v-.2c.1-.9,0-1.5-.2-1.8-.3-.3-.6-.5-1-.7-.4-.1-.7-.1-1,0-.6.1-1.2,0-1.8-.4-1.9-1.5-2.6-3.4-2-6,.1-.3.2-.5.1-.7,0-.1-.3,0-.6.2-.6-.1-1.1-.4-1.5-.9-.4-.4-.6-1-.4-1.5,0-.1.1-.4.4-.7h.4c.9-.4,1.2-1,.9-1.8-.1-.6-.3-1.1-.4-1.6-.1-.5-.4-1.1-.9-1.6-.1-.4-.4-.9-.7-1.3-.3-.4-.5-1-.7-1.5-.3-.7-.6-1.4-.8-2-.2-.6-.4-1.2-.6-2-.6-1.8-1.1-3.5-1.5-5.3-.4-1.8-1-3.6-1.5-5.5-.3-.1-.5-.2-.6-.3,0,0-.3-.2-.6-.3-.4-.1-.7-.5-.9-1.1.1-.9.3-1.5.4-1.8,0-1-.1-1.7-.4-2-.9-.9-1.1-1.8-.7-2.6,0-.4,0-.7-.2-.7-.6,0-.9.1-.9.4-.1.3-.2.5-.2.7s0,.4-.2.7l.4,2c-.4-.6-.8-1-1.1-1.3-.3-.3-.4-.7-.4-1.3.1-1,.5-1.8,1.1-2.4.3-.1.6-.4.9-.7v-.2c0-.3,0-.9.2-1.8,0-.9-.4-1.8-1.1-2.9-.1-.3-.3-.6-.6-1-.2-.4-.3-.7-.3-1,0-.7-.1-1.4-.3-1.9s-.6-1.1-1-1.6c-.9-1-1-2.1-.2-3.1,0-.3,0-1-.2-2,0-.9-.1-1.8-.3-2.6-.2-.9-.4-1.8-.6-2.6,0-.3,0-.5-.1-.7,0-.1-.1-.3-.1-.4-.7-.9-1.2-1.8-1.3-2.9-.1-1-.4-2.1-.7-3.1,0-.3,0-.7.2-1.3.1-.4,0-.8-.2-1.1-.7-.9-1.2-1.9-1.4-3s-.5-2.2-.8-3.4c0-.1,0-.3-.1-.3,0,0-.1-.2-.1-.3-1-.4-1.2-1.1-.7-2,0-.1,0-.3.1-.3,0,0,0-.2-.1-.3-.1-1.2-.1-2.4.1-3.8s.2-2.6-.1-3.8l-1.5-7.3-.4-1.1c-.1.7-.2,1.4-.1,1.9,0,.5,0,1-.3,1.4,0,.4,0,.9-.2,1.3-.1.4-.2.9-.2,1.3-.1.4-.1.9,0,1.3.1.4.1,1,0,1.8-.7-.9-1.1-1.7-1.2-2.4,0-.7-.2-1.5-.3-2.2-.1-.7-.3-1.4-.6-2.1-.2-.7-.4-1.4-.6-2.1-.1-.7-.3-1.5-.6-2.2-.2-.7-.3-1.5-.1-2.4h.9c.1-.4.3-.9.4-1.3.1-.4.3-.8.4-1.1.7-1.2.8-2.5.2-4h-.2c-.7,1.2-1.2,2-1.3,2.5-.1.5-.2,1.5-.2,3-.4-.4-.7-.8-.9-1.2-.1-.4-.4-.7-.7-1,.1-.1,0-.2-.2-.2-.4,0-.7.2-.7.4-.3.7-.4,1.4-.2,2-.1.9-.4,1.4-.9,1.5-.4,0-.6.3-.4.9.6.7.9,1.5,1,2.2,0,.7,0,1.5-.1,2.2-.1.6-.3,1.1-.3,1.7,0,.5,0,1.1.3,1.7,0,.3-.2.6-.7.9-1.6.6-2.1,1.4-1.3,2.4.1-.4.3-.9.6-1.3s.4-.9.6-1.3l-.7-1.5h0ZM130.4,186.2c0-.3,0-.5.2-.7-.4.3-.7.5-.7.7l.2.4c.3-.1.5-.4.7-.7l-.4.2ZM131.5,172.5c0-.1-.1-.4-.4-.7,0,.1,0,.3-.1.3s-.1.2-.1.3l.2.7.2-.2.2-.4ZM136.6,102.1c0-.3,0-.5-.2-.7,0,.2,0,.3-.2.3-.1,0-.2.2-.2.3l.2.7c0-.2,0-.4.2-.7h.2ZM136.8,99c.1.2.2.3.1.3,0,0-.1.2-.1.3,0-.2,0-.3.2-.3.1,0,.1-.2,0-.3v-.7c0,.2,0,.3-.1.3,0,0-.1.2-.1.3ZM145.4,195.2c-.6-.3-1-.4-1.1-.4-.3,0-.6.1-.9.4l.2.2h.7c.1,0,.4-.1.7-.4l.4.2ZM145.4,62.4c-.1.2-.1.3,0,.4.1,0,.2,0,.2-.1s0-.1.2-.1c0-.1-.1-.4-.4-.7h-.7s.7.4.7.4ZM153.6,136.6c.1-.6.1-1,0-1.1-.6-.1-1,0-1.3.4-.4.9-.7,1.5-.7,2-.3.7,0,1.2.7,1.3h.9v-.2c.6.3.9.2.9-.2l.2-2c0-.3,0-.5-.2-.6-.1,0-.3-.3-.4-.6v.9ZM153.6,146.9c.1-.3.4-.5.7-.7-.3.3-.4.4-.4.2s0-.2-.2-.2v.7ZM153.6,146.7c0,.6,0,.9.1,1,0,0,.5,0,1.2-.3-.1-.1-.6-.4-1.3-.7ZM153.6,158.2h.7c.1-.4.2-.9.2-1.3s0-.9.2-1.3c0-.1,0-.3-.2-.3-.1,0-.2-.2-.2-.3h-.4l-.2.2c.1.6.2,1.1.3,1.6,0,.5.2,1.1.3,1.6l-.7-.2h0ZM154.5,139.9h-.7c-.1.3-.1.7,0,1.3,0-.1.2,0,.7.4,0-.1.1-.4.4-.7-.3-.3-.4-.5-.4-.7s0-.4-.2-.7l.2.2ZM155.1,150l.4-.7-.2-.7c-.3,0-.6,0-.9.2v.3c0,0,0,.2-.2.3v.2h.7l.2.2ZM155.6,161.7v.7l-.7.7h-.2c-.3-.4-.1-.8.4-1.1h.2l.2-.2ZM155.4,130.4c.3.3.4.5.3.7,0,.1,0,.4.1.7h-.4c0-.1,0-.3-.2-.3-.1,0-.2-.2-.2-.3.1-.3.4-.7.7-1.1l-.2.4ZM157.3,114.7c-.1,0-.4,0-.7-.2l-.2.4c.1,0,.3,0,.4.2l.4-.4ZM156.9,112.7l1.5-.9c.3-.1.5-.3.6-.6s0-.3-.1-.3c-.3,0-.6,0-.9.2-.3.2-.5.3-.7.4s-.2.5-.2,1.1h-.2,0ZM159.1,48.8c.1.4.3.7.4.7l-.2-.7c.3-.3.3-.4,0-.4h-.4v.2h.7s-.4.2-.4.2ZM163.1,121.8c.4-.4.5-1.2.2-2.4-.1-.4-.4-.7-.9-.7s-.8.2-.7.7c0,.4.1.8.3,1.1.2.3.5.6.8.9l.2.4h0ZM163.5,52.5c-.1.7-.2,1.2-.1,1.4,0,.2.3.5.8,1-.1-.4-.3-.8-.4-1.2-.1-.4-.2-.8-.2-1.2ZM167.7,60.2h.2v-.2h-.2v.2ZM169.7,114.5c.1.2.3.2.3.2s0,0-.1-.2h-.2ZM170.6,63.3l-.2.2h.7l.2-.2h-.7ZM185.1,95.1c0,.2,0,.3-.2.4s0,.2.2.2l.4-.4c0-.1-.1-.2-.4-.2ZM187.3,99.9c-.3-.3-.4-.5-.4-.7l-.4.2.9.7h.2l-.2-.2ZM191.5,142.5h.7c-.6.9-.5,1.8.2,2.9.6-.6,1-.9,1.1-1.1.1-.1,0-.5-.4-1.1-.4.1-.7.4-.7.9-.3-.3-.4-.5-.4-.7s0-.4-.2-.7l-.2-.2h0ZM192.9,127.1c.3.4.2,1-.2,1.5-.6-.6-.6-1.1,0-1.5,0,0,.2,0,.2,0ZM194.2,137.6v.2h.2v-.2h-.2ZM194.4,134.8h.2c-.1.1-.1.4,0,.7-.1.1-.3.2-.3.2s0,0,.1-.2c-.1-.3-.1-.5,0-.7ZM202.1,126.6c-.4.7-.7,1.3-.7,1.8s0,.9.2,1.3c.1.4.4.5.7.2-.1-.6-.2-1.2-.2-1.8v-2,.4h0ZM204.5,112.1l-.2-.7-.4.7.2.7h.4c.1-.1.2-.4.2-.7h-.2ZM207,215.5l-.2-.2h-.7l.4.2c.1,0,.1,0,0-.2l.4.2ZM208.9,95.1c-.1.3-.3.5-.4.6-.1,0-.3.2-.4.3.1,0,.4,0,.7.2l.4-.7-.4-.4h.2ZM210.3,80.5c-.4-.1-.7-.3-.7-.3s0-.2-.2-.3c-.1-.1-.3-.1-.4,0s-.2.3-.2.4l.9.7c.3-.3.6-.6.9-.9,0,0-.2.4-.2.4ZM209.6,78.1c.1-.1.2-.4.2-.7l-.2.7ZM210.1,71c.1.7.1,1.5,0,2.4,0,.3.1.4.4.4l.2-.4c.3-1.2,0-2.1-.7-2.7v.2ZM211.2,112.3c-.1.4-.3.9-.3,1.3,0,.4,0,1,.1,1.8.1-.7.2-1.3.2-1.8v-1.3ZM213.6,89.3h-.7c-.1.3-.4.7-.7,1.3-.3,1.8-.6,3.5-.9,5.3-.3,1.8-.4,3.6-.2,5.5.4-.7.8-1.5,1.1-2.2.3-.7.4-1.5.4-2.2-.1-.3-.2-.6-.1-.9,0-.3.2-.6.3-.9,0-.4,0-.9.1-1.3,0-.4.1-.9.1-1.3.1-.6.3-1.5.4-2.7v-.7ZM212,81.6c-.1-.3-.2-.5-.1-.7,0-.1,0-.4-.1-.7.1.3.2.5.1.7,0,.2,0,.4.1.7h-.7.7ZM212.5,78.5v-2.7c.1.3,0,.7-.2,1.3.1.3.2.5.1.7,0,.2,0,.4.1.7h-.7.7ZM213.6,85.6c-.4.6-.7,1-.7,1.3s0,.3-.1.3-.1.2-.1.3l.2.7c.3,0,.4,0,.4-.2.1-.4.1-1.1,0-2h.2-.2l.2-.4ZM214.9,126c0-.1,0-.2.1-.3,0,0,.1-.2.1-.3h-.2c0,.2,0,.3-.1.3,0,0-.1.2-.1.3h.2ZM218.9,77.9c-.6-.1-1,0-1.3.6-.3.5-.7.6-1.1.3-.3-.3-.4-.7-.2-1.2.1-.5,0-.9-.7-1.2-.1.9-.2,1.4-.2,1.5-.1.6-.2,1-.2,1.3.4.3.8.5,1,.7.2.2.6.4,1,.7.4-.6.6-.9.4-.9.3-.1.7-.2,1.3-.2h.9c-.1-.3-.2-.5-.1-.7,0-.1,0-.4-.1-.7v-.7s-.7.4-.7.4ZM216.7,81.4c.4-.1.7-.3.9-.6.1-.2.3-.5.4-.8,0-.1,0-.2-.1-.3,0,0-.1-.2-.1-.3-.6-.4-1-.3-1.1.4-.1.3-.2.5-.1.7,0,.2,0,.4-.1.7,0,0,.2.2.2.2ZM216.7,59.6c.1-.1.2-.4.2-.7,0,.3,0,.5-.2.7ZM217.8,71c-.3.6-.4,1.1-.4,1.7s0,1.1-.2,1.9c.6-.7.9-1.2,1-1.5s0-1-.3-2ZM219.5,81.2c.1-.1.2-.4.2-.7s-.2-.6-.7-.9c-.1-.1-.3-.2-.6-.1-.2,0-.3.3-.3.6-.1.3,0,.6.4.9l.4.4.4-.2ZM218.7,49c0,.3,0,.5-.2.5-.1,0-.2.2-.2.3,0,.3.1.5.4.7-.1-.1-.1-.3,0-.3.1,0,.2-.2.2-.3s0-.3.1-.3,0-.3-.3-.5ZM220.6,62c-.7-.3-1.1-.2-1.1.2-.3,1.2-.5,2.1-.7,2.6v.6c0,.2.2.3.7.1.1-.7.4-1.4.7-2,.3-.6.6-1.2.9-2l-.4.4ZM219.8,109.8c-.3,1,0,1.9.7,2.7,0-.9-.3-1.7-.9-2.4l.2-.2ZM220,105c.7-.1,1.2-.4,1.3-.8.1-.4.2-.8.2-1.2-.1-.6-.2-.8-.2-.7-.3.2-.6.4-.9.7-.4.6-.5,1.4-.2,2.4l-.2-.4h0ZM220.6,99.3c-.1.4-.2.8-.2,1v.8c.1.3.4.4.9.4s.3-.1.4-.4c.3-.1.4-.4.4-.7,0-.6,0-1.1-.1-1.7,0-.5.1-1.1.6-1.7l-.4-.2c-.4,0-.6,0-.4.2-.3.4-.5.9-.7,1.3-.1.4-.3.8-.4,1.1v-.2h0ZM220.6,56h1.3c-.7,1.6-1,2.9-.7,4,.6-.7.9-1.3,1-1.7,0-.4,0-1.1-.3-2.3-.1,0-.3,0-.3-.1,0,0-.2-.1-.3-.1-.3-.1-.5,0-.7.4v-.2.2s0-.2,0-.2ZM221.5,68.4c0,.2,0,.3-.2.3-.1,0-.1.2,0,.3,0,.3,0,.4.2.4.4,0,.6-.3.4-.9l-.9-.7s.4.4.4.4ZM221.5,52.3c-.1.7,0,1.2.2,1.5,0,.3.1.4.4.4.4,0,.7-.1.7-.4.1-.4.2-.9.1-1.3,0-.4,0-.9.1-1.3.4-.4.6-1,.4-1.5,0-.3,0-.9.2-1.8,0-.3-.1-.4-.4-.4h-.4l-.7.7c-.7.3-1,1-.9,2,.1.3.1.9,0,1.8l.2.4h0ZM222.9,32.2c.1-1-.1-1.6-.9-1.8h-.2c-.1.3,0,.8.4,1.5h.2c.1,0,.3,0,.4-.1.1,0,.3-.1.4-.1,0,0-.4.4-.4.4ZM222.4,108.8v.2h-.2v-.2h.2ZM223.1,62.9c0,.3,0,.5-.2.7l.4-.2h-.2v-.4ZM223.5,125.7c.1-.1.2-.4.2-.7h.2c0,.3,0,.5-.2.7h-.2ZM228.1,38.4v-.2h-.2c.3-.4.5-.8.7-1.1-.1-.4-.4-.6-.7-.4-.3,0-.4.2-.2.4-.1.2-.2.4-.2.7-.9,0-1.2.4-1.1,1.1.1.3.2.5.1.7,0,.2,0,.4.1.7,0,.2,0,.2-.2.2h-.4c-1.2,0-1.5-.6-.9-1.8v-.7c.4-.1.7-.6.9-1.3,0-.3,0-.5-.2-.7-.1.2-.3.2-.3.2s-.2,0-.3.2c.1.3.2.5.1.7,0,.2-.1.4-.1.7h-1.3c0,1.3,0,2.6.1,3.9s.4,2.5,1,3.6c.1-.1.4-.3.8-.3.4,0,.7-.2,1-.3.4.4.5.9.2,1.4-.3.5-.2,1.1.2,1.7.1-.7.2-1.3.2-1.8v-1.3c0-.4.2-.8.6-1.2.4-.4.4-.8.1-1.4h-1.3c-.1-.7-.2-1.4-.1-1.9,0-.5.2-1.1.3-1.7.3,0,.3.2,0,.4l1.3-.4h0ZM224.2,58.2c.1.3,0,.7-.2,1.3.3-.6.4-1,.2-1.3ZM224.8,122.9c.1.3,0,.5-.4.7l-.2-.7c0-.1,0-.2.2-.3.1,0,.2-.2.2-.3v.7h.2ZM225.3,28.2c0,.3,0,.5-.2.7s0,.4.2.7c.1-.1.2-.4.2-.7l-.2-.7ZM226.2,61.3c.6.4.8.9.7,1.4-.1.5-.3,1-.4,1.4.1-.6.2-1.5.2-2.7-.3-.3-.4-.5-.2-.7v-.4l.2.7.2.7-.7-.4h0ZM227,49.6c.1-.1.1-.4,0-.7h-.2c.1.3.1.5,0,.7h.2ZM227.3,65.1c0,.3,0,.5-.2.7,0-.1,0-.3-.1-.3,0,0-.1-.2-.1-.3.1-.3.2-.5.2-.7v.7h.2ZM229.7,54.5c-.1-.7-.1-1.5,0-2.4,0-.7-.3-1.2-.9-1.3,0,1.5,0,2.3.2,2.7.1.3.4.7.9,1.1h-.2ZM230.1,51.6h.2v1.8c0,.6.3,1.1.9,1.5.4-.1.6-.4.4-.7.6-.7,1.1-1.4,1.4-2.1.4-.7.3-1.4-.1-2.1-.1-.2-.1-.3,0-.4s.1-.4,0-.7c.1-.3.2-.5.1-.7,0-.1,0-.4.1-.7-.1-.7-.4-.8-.9-.2-.3.3-.5.5-.7.8-.1.2-.4.3-.9.1-.6-.3-1-.1-1.1.4,0,.3.3.4.9.4s.5.2.7.4l-.3.7c0,.2-.2.4-.3.7l-.4.7h0ZM230.4,26.5c.3,0,.4,0,.4-.2l-.2-.2c-.1,0-.3,0-.4.2l.2.7v-.4ZM233,45.2v-1.7c0-.2-.2-.7-.7-1.4,0,.6,0,1.1-.2,1.5-.1.4,0,.9.2,1.3h.4l.2.2h0ZM235.2,43c.4-.6.8-1.1,1-1.5.2-.4.6-.9,1-1.3-.1-.1-.3-.3-.4-.4-.1-.1-.2-.3-.2-.4-.7-.3-1.2-.1-1.3.4,0,.7-.3,1.7-.9,2.9l.4.4h.4ZM235,6c.1.2.2.3.2.3s0,.2.2.3c.1,0,.4-.1.7-.4l-.2-.7c-.1.2-.4.4-.7.7l-.2-.2ZM235.6,7.5h.2v.2h-.2v-.2ZM238.9,36c-.1-.1-.2-.2-.1-.3,0,0,.1-.2.1-.3h-.2c0,.2,0,.3-.1.3,0,0,0,.2.1.3h.2ZM239.6,40.2l-.2-.2h.2v.2ZM246.7,28.7c0-.3,0-.5.2-.7.1-.1.2-.4.2-.7h-.4c.1.3.2.5.1.7,0,.1,0,.4.1.7,0,.6-.1,1-.4,1.3-.6.4-1,.8-1.1,1.1.1.9.4,1.4.7,1.5,1.2-.3,1.7-.8,1.6-1.4s-.1-1.4-.1-2.1h-.7l-.2-.4h0ZM248,8.8v-.7h.2v.7h-.2ZM251.3,28.5h.2v-.2.2h-.2Z"/>
  <path class="st0" d="M306.9,175.1c.3.3.5.5.5.7,0,.1.3.3.5.4.3.3.6.6.9.9.3.3.7.6,1.1.9.4.3,1,.9,1.8,1.8.6-1,1.2-1.3,1.8-.9l.9-2-.2-.2c-.9,0-1.5-.3-1.8-.9,0-.6-.4-.9-1.1-.9v-2.2c.4.3.7.5.9.7.1.1.4.3.9.4.3.1.5.3.5.6,0,.2.3.5.5.8.3.3.7.5,1.1.6.4,0,1,.3,1.5.6,0,.1,0,.3.1.3,0,0,.1.3.1.6-.6.9-.4,1.1.4.7s1.4-.2,1.5.7l.2.7c.3.3.6.6.9.8.3.2.7.2,1.3-.1h.7c.3,0,.5,0,.7.2.6.1.7.5.2,1.1v.7h.7c.7-.4,1-.3.9.4,0,1.5,0,2.6.2,3.3-.1.6-.4.9-.7.9s-.6.1-.9.3c-.3.2-.6.5-.9.8-.4-.3-.7-.5-.7-.7,0-.7-.3-1.4-.8-1.9-.5-.5-.9-1.1-1.2-1.9-.7,1.5-.7,2.6.2,3.3.3.6.5,1.2.7,1.8.1.6.3,1.2.4,2-.1.1-.2.3-.2.4s0,.3-.2.4c-.4.1-.8.1-1.1,0-.3-.1-.7-.4-1.1-.7-.3-.3-.5-.5-.8-.7-.2-.1-.5-.4-1-.7-.1,0-.4.1-.9.4-.4.4-.4.7,0,.7.1.1.6.4,1.3.7.6.4.8.8.7,1.1,0,.4.1.7.3.8.2,0,.5.2.8.3.9.3,1,1,.4,2.2-.3.6-.4,1-.4,1.1s.3.4.9.9c.1-.6.2-1,.2-1.3,0-.4.2-.7.7-.7s.7.1.9.4c.3.4.4.8.2,1.1-.3.3-.5.6-.5,1,0,.4-.2.7-.3,1-.6,0-.9.1-.9.4v1.1c.1.3.1.7,0,1.1-.1.4-.1.8,0,1.1.1.9.1,1.5,0,2-.6.3-1.1.3-1.4-.1-.4-.4-.8-.4-1.2-.1-.1-.1-.6-.4-1.3-.7-.4-.4-.9-.9-1.4-1.4-.5-.5-1.1-1-1.6-1.4-.7-.3-1.1-.1-1.1.4-.3.1-.5.2-.7.2-.1.1-.3.2-.4.2h-.2c-.1.4,0,.8.3,1s.5.5.3.8c-.3.3-.6.3-.9.1-.3-.2-.6-.1-.9.3h-.2c-.3,0-.4,0-.4-.2-.1-.3-.3-.5-.5-.7-.2-.1-.4-.4-.5-.7,0-.3,0-.5.2-.6.1,0,.3-.3.4-.6,0-.1-.2-.4-.7-.7-.1-.3-.4-.4-.7-.3-.3,0-.4.3-.4.6v1.3c-.1.4-.3.7-.5.8-.2,0-.5.2-.8.3.1,1.2.3,1.8.4,2,.1.1.4.4.9.7.1.3,0,.6-.2.8-.3.2-.2.5.2.8.3.1.4.3.2.6-.1.2-.4.4-.7.6-.6.3-.7.6-.2.9v-.2c-.4-.1-.7-.3-.8-.3,0,0-.3-.2-.5-.3-.4-.1-1-.4-1.8-.7-.3.6-.5,1.1-.8,1.5-.2.4,0,.8.8,1.1-.3.3-.6.5-.9.7-.4-.4-1-.9-1.6-1.3s-1.4-.9-2.3-1.3c-.4-.3-.6-.5-.4-.7,0-.7-.2-1.1-.5-1.2-.4,0-.9-.1-1.4-.1s-.6-.1-.9-.3c-.3-.2-.6-.4-.9-.6-.6-.1-1.1-.5-1.5-1.1-.7-.6-1.4-1.1-2-1.4-.6-.4-1.3-.6-2.2-.8-.6,0-1-.1-1.3-.4-.1-.7-.7-1.2-1.8-1.5-.3-.1-.5-.3-.8-.6s-.5-.5-.8-.8c-1-1.2-2.1-2.2-3.3-3.1-.4-.1-.8-.1-1.1,0v-.2h-.2l.4,2.6-.9-.4c-.6-.4-1.1-.9-1.7-1.3s-1-.9-1.4-1.3c-.6-.6-1.2-1.1-1.8-1.5-.6-.4-.8-1.2-.7-2.2-.9-.3-1.4-.7-1.4-1.3,0-.6-.2-1.1-.3-1.5h-1.3c-.3-.3-.4-.5-.4-.7s-.2-.4-.7-.7c.1.1.1.2,0,.2h-.7c-.9-.9-1.6-1.8-2.2-2.6-.6-.9-1.3-1.8-2.2-2.6s-1.6-1.8-2.2-2.8c-.6-.9-1.4-1.9-2.4-2.8-.1.4-.3,1-.4,1.5-.4,1.6-.8,3.3-1,5s-.5,3.4-.8,5c-.1,1.5-.3,2.9-.3,4.3,0,1.4-.1,2.8-.1,4.3-.1.6-.2,1.1-.2,1.6s-.1,1.1-.4,1.6c-.3.1-.4.3-.2.6.1.2.1.5,0,.8-.1.3-.1.5,0,.7.1.1.1.4,0,.7,0,.7-.1,1.4-.3,2-.2.6-.3,1.2-.1,2-.3.4-.5.9-.6,1.4,0,.5-.2,1.1-.3,1.6,0,.1,0,.4-.2.7.4,1.3.5,2.7.1,4.1-.4,1.4-.3,2.8.1,4.1.1.6.2,1.1.2,1.6s.2,1,.7,1.4c.1.3.3.6.4.9.1.3,0,.6-.7.9l.2.4c.4.6.6,1,.6,1.1,0,.1-.3.4-.8.9s-.6.8-.4,1.1c-.1.6-.3,1.1-.4,1.6-.1.5-.3,1.1-.4,1.7-.9.4-1.5,1.1-2,2-.4.6-1,.4-1.5-.4-.9.7-1.6,1.6-2.2,2.5-.6.9-.9,2-.9,3.2s-.2.9-.7,1.1v-1.3c-.1-.3-.3-.6-.3-.8,0-.2-.2-.5-.3-.8-.1.3-.3.5-.4.6-.1,0-.3.2-.4.3.6,1,1.2,1.5,1.8,1.5-.1.9-.2,1.5-.2,2-.4,0-.7-.1-.7-.4s-.2-.6-.7-.9c-.1-.3-.3-.5-.6-.7-.2-.1-.4-.4-.6-.7.1-.3.1-.7,0-1.3l-.2-.7c-.6.3-1,.3-1.1-.1-.1-.4-.4-.6-.7-.8l-.2.2c.3-.6.4-1,.2-1.3,0-.3,0-.4-.2-.4-.4,0-.7.1-.7.4.1.3,0,.7-.2,1.3l.2-.2c-.4,0-.7,0-.9.2.1.4.1,1,0,1.5,0,.1,0,.4-.2.7l-.4-.4c-.1-.1-.3-.4-.4-.7-.6,0-.8.2-.7.7l.2,1.3c-.1.3-.4.5-.9.7-.4.1-.7.4-.9.7-.3-.4-.5-.9-.6-1.2,0-.4-.2-.7-.3-1h-.2c-.4,0-.7.1-.7.4l.4,2c-.3.3-.3.6-.1,1,.2.4.2.7.1,1l.4.2c.3.3.1.6-.4.9l-.7.7c-.4-.7-.7-1.4-.8-2.1,0-.7-.2-1.4-.3-2.1h-1.3c0-.3,0-.5-.1-.7,0-.1-.2-.4-.3-.7h-.2v.4c-.1.7.2,1.1,1.1,1.1-.1.4-.2.9-.2,1.3s0,.9-.2,1.3c.1.3,0,.4-.4.4l-.4-.2c.1-.7,0-1.4-.2-2-.3-.6-.6-1.2-.9-1.8-.4-.4-.5-.9-.2-1.3,0-.7-.1-1.4-.3-2.1-.2-.7-.6-1.4-1.2-2.1v-.7c.1-.7.1-1.5,0-2.2-.1-.7-.2-1.5-.2-2.2-.9.6-1.4.9-1.5.9-.4.3-.7.2-.9-.2-.4-.3-.5-.7-.2-1.1.1-.1.3-.3.6-.3.2,0,.4-.2.6-.3v-.4c0-.1,0-.3.2-.4-.4-.3-.7-.6-.8-.9,0-.3-.1-.6-.1-.9.4-1,.5-1.9.2-2.6-.4-.4-.6-.7-.4-.7-.7-.1-1.1-.4-1.1-.9s.1-.8.4-1.1c.4-.6.7-1.1.7-1.5s0-.9-.2-1.5c0-.4,0-.9.1-1.4,0-.5.1-1.1.1-1.6.1-.1.2-.3.2-.4s.1-.3.4-.4c.4-.4.7-1.2.9-2.4,0-.1,0-.2-.2-.3-.1,0-.2-.2-.2-.3l-.9-.7c.4-.6.5-1.1.1-1.4-.4-.4-.6-.9-.6-1.6.6-1.9.9-3.9.9-5.9s0-.3.1-.4c0-.1,0-.3-.1-.4-.4-.4-.6-.9-.4-1.4.1-.5.1-1,0-1.4-.1-1,.1-1.8.9-2.4.1-.3.4-.7.7-1.3-.3-.9-.3-1.7.1-2.5s.6-1.7.8-2.5c-.1-.3-.1-.5,0-.7s0-.4-.2-.7c-.3-.9-.3-1.8-.1-2.6.2-.9.3-1.8.3-2.6.1-.3.4-.7.9-1.3.1-.3.2-.5.3-.7,0-.1.2-.4.3-.7-.1-.7-.2-1.4-.1-1.9,0-.5.1-1.1.1-1.9l.2-1.1c-.6-.7-.8-1.5-.6-2.4.2-.9.2-1.7-.1-2.4,1.3-.3,2.1-.6,2.3-.8s.3-.8.3-1.9c-.3-1.5-.3-2.8.1-4.1.4-1.2.8-2.5,1.4-3.9.3-.4.4-.9.2-1.3-.6-.6-.7-1.4-.2-2.4.1-.6.2-1.1.1-1.5,0-.4,0-.9.1-1.5,0-1.2,0-2.3.2-3.3.1-1,.2-2.1.2-3.3.3-2.1.6-4.1.8-6.3.2-2.1.5-4.2.8-6.3.1-1.8.3-3.5.4-5.3.1-1.8.4-3.5.9-5.3.1-.7.2-1.4.1-2.1,0-.7,0-1.4.1-2.1-.3-.1-.5-.3-.7-.3-.1,0-.4-.2-.7-.3-.3-.6-.2-1.5.2-2.7.1-.3.4-.4.7-.4s.6-.1.9-.4l-.2-.9c-.1-.1-.6-.4-1.3-.7v-2h.9c.3.3.5.3.7,0,.7,0,1.2-.4,1.3-1.3,0-.4-.4-.8-1.1-1.1h-.7c1,0,1.5-.3,1.3-.9,0-.6.1-1.1.4-1.7.3-.5.3-1.1,0-1.7-.1-.3-.2-.6-.1-.8,0-.2.2-.5.3-.8v-2.7c0-.6-.2-.7-.7-.4-.6-.9-.8-1.5-.7-2,0-.3.2-.7.7-1.3-.4-1.2-.7-2.4-.7-3.6v-3.6c0-.6.4-1,1.1-1.3.4-.3.8-.5,1.1-.7.3-.1.7-.4,1.1-.7-.1-.3,0-.7.2-1.3.1-1.5.7-1.9,1.8-1.3,1,.4,2.4.3,4-.4.1-.9.1-1.5,0-2,0-.4.4-.7,1.1-.7.3-.1.4-.3.3-.6,0-.2,0-.5.3-.8.3-.4.5-.7.7-.7.7,0,1.2-.5,1.3-1.5.4.4.6,1,.4,1.5-.1.6,0,1.1.4,1.5.7-.3,1.4-.5,2-.7l-.4-2.2,3.5.7c.3-.4.2-.9-.2-1.3,0-.3-.1-.4-.3-.3-.2,0-.5,0-.8-.1-.1,0-.2-.1-.2-.4l-.2-.4c.6-.7,1-1.5,1.1-2.4.1-.9.4-1.8.7-2.7.3-.7.5-1.2.7-1.3.7-.3,1.2-.7,1.3-1.3s.4-1.2.9-1.8c.1-.3.2-.5.3-.7,0-.1.2-.4.3-.7.7-1,1.5-1,2.4,0,.4.7.9,1.4,1.3,2.1.4.7.6,1.4.4,2.3,0,.4,0,1.1.2,2,.3.6.5,1.2.7,1.8.1.6.2,1.2.2,2s.3,1.7.9,2.4l-1.1,1.3v1.8c0,1.2-.1,2.1-.4,2.7.1.3.1.6,0,1-.1.4.1.6.9.8l.2.4c0,.2,0,.2-.1.2s-.1,0-.1.2v.2c-.6.7-.9,1.4-.8,2,0,.6.3,1.2.5,2,.1.6.1,1.1,0,1.5,0,.7-.1,1.5-.3,2.3s-.5,1.6-.8,2.3c-.1.3,0,.5.2.7.6.4.8,1.2.7,2.2-.3.7-.4,1.5-.4,2.3v2.3c0,.6,0,1.1-.2,1.7-.1.5,0,1.1.2,1.7.3.2.3.3.1.6s-.3.5-.1.8c-.1.7-.4,1.4-.7,2-.3.6-.4,1.2-.2,2,.1,1.5.1,2.6,0,3.3-.1.6-.2,1.1-.2,1.5s-.2.9-.7,1.3c-.4.6-.4,1.2.2,1.8.6-.3.9-.6,1-1,0-.4.3-.7.5-1,.3-.3.5-.6.8-.8.2-.2.3-.6.3-1,.1-1.2.6-1.9,1.3-2.2l.2.7c-.4.9-.7,1.5-.7,2-.1.2-.1.4,0,.9.4.3,1,.2,1.5-.2.6-.9,1-1.9,1.3-3.1-.1-.7-.1-1.4,0-2,.1-.6.2-1.2.2-2-.1-.6-.1-1.1.1-1.7.2-.5.5-1.1.8-1.7l3.8-6.6c.3-.7.6-1.2.9-1.3.6-.4,1-1,1.2-1.7s.4-1.4.5-2.1c.9-1.8,2.1-3.6,3.5-5.5.1-.4.4-.9.7-1.3s.5-1,.7-1.5c-.7-.1-1.5-.2-2.3-.1-.8,0-1.6-.3-2.3-1,.3-.4.5-.9.7-1.3.1-.4.4-.9.7-1.3.1-.7.7-1.1,1.5-1.1,1.2.3,1.9.8,2.2,1.5.1.6.3,1,.4,1.3h.7c.1-.9.5-1.6,1-2.2.5-.6.9-1.2,1.2-2,.6-.7,1-.7,1.3,0,.3,0,.6,0,1-.1.4,0,.7,0,1,.1l.4-.2c-.3-.4-.2-.8.2-1.2.4-.4.6-.8.4-1.2l-.9-.4c0,.3-.1.6-.3.8-.2.2-.4.6-.5,1,0-1.3.2-2.2.5-2.8.4-.5,1.1-1.1,2.1-1.7,0,.4.1.7.4.9.4.4.8.3,1.1-.4.3-.7.7-1.4,1.1-1.9.4-.5.9-1.1,1.3-1.9.1-.4.4-.8.9-1.1,0-.3,0-.5-.2-.7-.3-.4-.5-.9-.5-1.3,0-.4.2-.9.8-1.5.1-.1.2-.3.2-.4s.1-.4.4-.7c.1-.6.3-1,.4-1.1.9-.9,1.6-1.8,2.2-2.8.6-1,1.1-2,1.5-3,.6-.4,1.1-.9,1.4-1.3.4-.4.7-.9,1-1.3.1.2.2.3.2.4-.1,1,0,2,.7,2.9.4.4.6,1.2.4,2.4.3,0,.6,0,.9.2.4.2.8,0,1.1-.4l1.5-2.7-.2-.4c-.3-.1-.6-.3-1-.3-.4,0-.7-.3-1-.8-.4-.9-.3-1.8.4-2.7.3.3.5.2.7-.4.6-.7,1.1-1.4,1.5-2.1.4-.7,1-1.4,1.5-2.1h-.2c.1,1.2-.1,2.3-.9,3.5-.6.7-.8,1.4-.7,2,.3.4.4,1,.2,1.5h2.2c.3-.4.6-.9.9-1.3s.5-.9.7-1.3c.9-.9,1.7-1.8,2.5-2.7.8-.9,1.4-1.9,1.9-3.1.3-.6.6-1,1-1.3.4-.3.8-.6,1.4-.9,0,.3,0,.5-.2.7.1.3.1.5,0,.7.1-.1.1-.4,0-.7l.9-2c.7-.3,1.2-.8,1.5-1.5s.7-1.3,1.3-1.8c.7-.4,1.4-1,2-1.5s1-1.2,1.3-2,.9-1.4,1.8-2c.4-.1.9-.4,1.3-.7l.4-.2c0-1.2.1-1.9.3-2.1s.8-.5,1.9-.8c.4-.1.7-.1.9,0,.1.1.3.4.4.7h-.4.4c.3-.1.4-.3.3-.4,0-.1,0-.2.1-.2.4-.1,1-.2,1.5-.2s1-.3,1.3-.9l3.8-2.9h.7c.3,0,.4.2.4.7-.3.4-.6.9-.9,1.4-.3.5-.7.8-1.3.8-1,0-1.6.4-1.8,1.1-.3,1.2-1,1.9-2,2.2-.1.2-.4.5-.9,1.1-.3.3-.3.6,0,.9.1.4.4.4.7,0,.3-.1.5-.3.7-.4s.4-.3.7-.4c.1-.3.4-.4.9-.4.4.3.4.7,0,1.1-.7.9-1.3,1.5-1.8,2-.4.6-1,.5-1.5-.2l-1.3-1.1c-.4.9-.7,1.4-.9,1.7-.1.2-.6.5-1.3,1-.3.3-.7.5-1.1.8s-.8.5-1.1,1c.3.3.7.4,1.1.2.4-.1.7,0,.7.7.1.4,0,.8-.3,1.1-.4.3-.6.6-.8.9-.3.7-1,.8-2,.2.1,0,0-.1-.2-.4h-.2c-.9.6-1.4,1.2-1.6,2-.2.7-.5,1.5-.8,2.2-.4-.3-.7-.4-.9-.4-.3,0-.7.2-1.1.4-.7.6-.9,1-.4,1.3.3-.3,1-.7,2.2-1.3-.3.6-.4,1-.4,1.1-.6.7-.7,1.6-.2,2.7-.4.3-1,.7-1.8,1.3-.4-.1-.6-.3-.4-.4-.6-1.2-.9-2.1-.9-2.7-.3.3-.5.7-.7,1.1-.1.4-.3.8-.4,1.1-.7.9-1.2,1.5-1.3,2-.6.6-.7,1.2-.4,1.8.1.3.2.7.1,1.1,0,.4-.1.9-.1,1.3-.6.2-1.1.5-1.5,1-.4.5-1,.6-1.8.3-.7.3-1.3.8-1.8,1.4s-.7,1.4-.7,2.1c.1.9,0,1.7-.3,2.4s-.8,1.5-1.2,2.2c-.4-.1-.7-.4-.9-.7-.9.3-1.4.8-1.4,1.4,0,.7-.3,1.2-.8,1.7.3.7.2,1.3-.1,1.7s-.8.7-1.2,1c-.1-.1-.1-.3,0-.3.1,0,.2-.2.2-.3s0-.3.1-.3c0,0,0-.2-.1-.3h-.2l.2.7c.6.4.6.7,0,.7-1,.3-1.5.8-1.5,1.5s-.4,1.6-1.1,2.2c-.3.4-.4.8-.4,1.1,0,.4-.1.8-.4,1-.3.2-.6.5-.9.8l-.2-.7-.4.7-.2.2v-.2h.7c-.1.3-.2.6-.2,1s.3.7.9,1c.1,0,.3.1.3.3,0,.2,0,.4-.1.6l-2,3.3c-.4.6-.7,1-.9,1.3-.1.3-.2.5-.2.7s0,.4.2.7c.1.2.1.3,0,.4s-.1.4,0,.7c-.1,0-.4,0-.7-.2-.1.3-.2.6-.2.8s0,.5.2.8c.3.3.5.4.7.4.3,0,.6,0,.9-.1.3,0,.6-.1.9-.1v-3.1c.4-.2,1.2-.4,2.2-.7.4,0,.7-.2.7-.7-.1-.7,0-1.4.7-1.9s.7-1.1.2-1.9c.1-.1.2-.4.2-.7-.1-.4,0-.7.4-.7.7-.1,1.2-.5,1.4-1.1.2-.6.7-.9,1.4-1.1.6,0,1,.4,1.1,1.3h-1.3c-.1.9-.1,1.5,0,2-.3-.1-.7-.4-1.1-.7l-.2.4c0,.9-.2,1.7-.5,2.5-.4.8-.8,1.6-1.2,2.3-.3.7-.6,1.5-1,2.2-.4.7-.8,1.5-1.2,2.2,0,.3-.1.4-.4.4-.6.3-1,.7-1.2,1.3-.2.6-.5,1.2-.8,1.8-.4.9-.7,1.5-.9,1.8-.6.2-1,0-1.1-.4-.1-.4-.5-.4-1.1,0-.3-1.6.3-3.3,1.8-5.1-.3-.1-.4-.3-.4-.4s0-.3-.2-.4c-.3-.1-.5-.2-.7-.1-.1,0-.2.3-.2.6-.1.9-.4,1.4-.9,1.5-.6,0-.9.2-.9.7-.1.7-.6,1.6-1.3,2.7l-1.5,2.7h-1.3c-.1.4-.3.8-.4,1.2-.1.4,0,.8.4,1.2.1.3.2.6.1,1,0,.4,0,.7.1,1,0,.4.1.7.4.7.4,0,.8-.1,1.1-.4.3-.4.4-.7.4-.9-.1-.4,0-.8.2-1,.3-.2.5-.5.7-.8.3-.4.4-1.1.4-2,.1-.6.5-.7,1.1-.4.1.2.3.3.4.3.1,0,.4.3.7.6-.3.3-.4.6-.3,1,0,.4,0,.7-.1,1-.3.4-.6.9-.9,1.3-.3.4-.6.8-.9,1.1-.6.3-.9.7-.8,1.1,0,.4,0,.8-.3,1.1l-1.3,2.7c-.3.3-.6.5-.9.7-1.2,1.5-2.1,3-2.6,4.6-.1.7-.5,1.2-1.1,1.3-1.2.2-1.6.9-1.3,2.2.1.3.2.5.3.7,0,.2,0,.4-.1.7.1.3,0,.7-.2,1.1-.6.7-1.2,1.5-1.8,2.4-.6.9-1,1.7-1.1,2.4.1.3.4.7.7,1.3-.1.3-.3.5-.4.7-.1.2-.3.3-.4.4-.9.4-1.2,1.1-1.1,2,.1,1.8-.4,3.2-1.8,4.2l-.4.7c.3.4.4.9.2,1.3s-.3.9-.4,1.3c-.3.4-.4.9-.2,1.3s.1.9,0,1.3l.4,2c-.4-.1-1-.2-1.5-.2-.7.9-.7,2,0,3.3.3.3.5.6.7.9.1.3.2.7.2,1.1,0,1.2.5,1.8,1.5,2-.1,0,0,.2.7.7.3.4.5.7.7.7s.6-.2,1.3-.7c.1.1.2.3.2.3s.1.3.4.6c.4-.9.7-1.4.9-1.5.3-.1.5-.1.5,0,0,.1.3.3.5.4.4.3.7.5.7.7-.1.1-.2.3-.2.4-.6.1-1,.3-1.1.3-.1,0-.3.3-.4.8,0,.9.2,1.8.7,2.6.1.7.4.9.9.4.7.6,1.2,1,1.5,1.3,0,.7.4,1.2,1.3,1.5.3.1.8.5,1.5,1.1.1-.6.1-1.1,0-1.5-.1-.4,0-.9.2-1.3.3.9.6,1.7,1,2.5.4.8.5,1.6.5,2.5.1.3.3.6.4.8.1.2.4.5.7.8.9.7,1.7.4,2.4-.9.9,0,1.4.4,1.5,1.1.1.3.4.4.9.4s1,.4,1.1,1.3c-.1.7-.2,1.2-.1,1.3,0,.1.3.4.8.9.3.1.5,0,.7-.3.1-.4.4-.6.7-.6.4,0,.8.2,1,.6.2.4.6.4,1.2.1-.3.4-.5.9-.5,1.2,0,.4-.2.8-.3,1.2-.3.7,0,1.1.9,1.1.1-.3.3-.5.3-.7,0-.1.1-.4.1-.7,0-.4,0-1.1-.2-2-.3-.3-.4-.5-.4-.7v-.4h.2c.3.3.5.5.7.7.1.3.2.5.2.7s.1.4.4.7h.2-.2c.4-.3.7-.4.9-.4.6.3.9.7.9,1.1l-.2,1.3h-1.3c0,1.2.5,2.3,1.5,3.3.3.3.6.4,1,.4s.8.2,1.2.7c.3-.1.5-.4.7-.7.1-.1.3-.3.4-.3.1,0,.3-.2.4-.3l-4.4,5.3h0ZM233.2,162.8c-.1.3-.4.6-.7,1-.3.4-.1.7.4,1h.2c.3-.4.2-1.1-.2-2h.2ZM233.9,230.5c.1.3.2.5.1.6,0,0-.1.2-.1.3s.1.2.4.2c0-.1.1-.4.4-.7l-.7-.7-.2.2ZM237.4,108.5h-.2l-.2.2h.2l.2-.2ZM245.8,226.1c-.1.1-.3.3-.4.3-.1,0-.2.2-.2.3v.4c.3-.1.5-.4.7-.7v-.4ZM248.2,224.6c-.1.7-.2,1.2-.1,1.3,0,.1.3.4.8.9.4-.6.4-1,0-1.3-.3-.3-.4-.5-.4-.7l-.2-.2ZM248.9,227l-.2.2h.2l.2-.2h-.2ZM254.8,210.9h.2c-.1.1-.1.4,0,.7h-.2c-.1-.3-.1-.5,0-.7ZM262.1,114.7c-.1-.3-.1-.5,0-.7h-.2c-.1.2-.1.4,0,.7h.2ZM261.9,112.3c.4,0,.8-.2,1.1-.7-.1-.3-.2-.5-.1-.7,0-.1,0-.4-.1-.7.1-.4.2-.9.1-1.3,0-.4.1-.9.5-1.3.3-.4.4-.9.2-1.5-.1-.3-.3-.8-.4-1.5-.3.3-.5.6-.5.8,0,.2-.2.5-.3.8.4.4.4,1.1,0,2-.4,1.2-.6,2.3-.4,3.3v.9h0ZM263.4,91.8h.2v.2-.2h-.2ZM275.1,97.9l-.2.4c-.4-.3-.7-.5-.7-.7.1,0,.3,0,.3-.1s.2-.1.3-.1c.3,0,.4.2.4.4h-.2,0ZM276.2,102.8l-.4-.4c-.4,0-.7.2-.7.7.1.3.3.5.4.7l.3-.3.3-.3v-.2h0ZM278.7,186.2v-.7h-.2l-.4.2c0,.1.2.4.7.7l.2-.2h-.2ZM279.3,94c-.6.6-1,1.1-1.1,1.5-.1.2,0,.4.4.7v-.2c.6-.7.8-1.4.7-2h.2-.2ZM278.4,98.6h.2l-.2-.7c-.1.2-.2.4-.2.9,0,0,.2-.2.2-.2ZM281.1,92.2c.4.2.7-.1.9-.9,0-.3,0-.4-.2-.4h-.4c-.6.2-.8.5-.7,1.1l.4.2ZM281.5,95.1c-.1-.1-.4-.4-.7-.7,0,.2,0,.4-.2.7v.7c.3-.1.6-.4.9-.7ZM287.5,162.4c-.4-1-.8-1.9-1-2.8s-.5-1.6-.8-2.3c-.1-.6-.6-.7-1.3-.4-.4.3-.6.6-.4.9.3.7.6,1.5.9,2.2s.7,1.4,1.1,2l.9.4h.7,0ZM290.1,82.5c-.7-.3-1.3-.1-1.8.4-.1.4-.4.9-.8,1.3-.4.4-.3,1,.1,1.5.1.4-.1.8-.9,1.1h-.7c0,.6,0,1.1-.1,1.7,0,.5-.4.9-1,1.2.1,0,0,.2-.4.7h1.8c.3-.3.5-.6.7-1,.1-.4.2-.7.2-1,.1-1.5.5-2.7,1.1-3.5.3-.4.4-.9.2-1.3-.1-.7.2-1.4,1.1-2-.1-.3-.1-.5,0-.7-.1.2-.1.4,0,.7l.4.9h0ZM287.5,153.3l.7.9h.2v-.4c0-.3-.4-.4-1.3-.2l.4-.2ZM289.9,100.2c-.1-.3-.2-.5-.1-.7,0-.1,0-.4-.1-.7.3-.3.2-.4-.2-.4s-.7,0-.7.2c-.1.6-.3,1.1-.5,1.7-.2.5-.4,1.1-.5,1.7.1.4.4.7.7.7.4.3.7.2.9-.4l.4-2h.2,0ZM289.5,78.1h-.7c-.3,0-.4.2-.2.4-.1.2-.1.3.1.3.2,0,.5,0,.8-.1.1,0,.3-.1.4-.4l-.4-.2h0ZM290.8,167.2c.1-.1,0-.4-.2-.7,0-.3-.1-.2-.4.2.1-.6,0-1-.4-1.1-.1.3-.2.5-.1.6,0,0,.1.2.1.3.7.3,1.2.5,1.3.7h-.2ZM290.1,78.1h-.2v.2l.2-.2ZM291,191.2c.6.6,1.1,1.1,1.5,1.5.4.4,1,.7,1.8.7.4.7.8,1.2,1.2,1.4.4.2.9.4,1.7.6-.7-1.3-1.7-2-2.9-2-.6-1.3-1.7-2.1-3.3-2.2h0ZM294.3,73.5c.1-.1.1-.3,0-.4h-.2l-.4.7.2.2c.3-.3.6-.5.9-.7l-.4.2ZM295,73.5c.4-.1.7-.4.8-.7,0-.3.2-.6.3-.9.3-.3.5-.5.7-.6.1,0,.3-.3.4-.6.1,0,.3,0,.4-.2.1.2.2.3.2.3s.1.2.4.3c.4-.6.7-.9.7-1.1s0-.4-.2-.9c-.3-.3-.4-.7-.2-1.3.4-.3.5-.5.2-.7h-.7c-1.2.9-1.6,2.1-1.3,3.8-.7-.1-1.2-.2-1.3-.1-.1,0-.2.5-.2,1.2-.1.3-.2.5-.2.7v.7h-.7v.2c.1-.1.3-.3.4-.3.1,0,.2-.2.2-.3v.4h0ZM295,82.5h-.2l-.2.2h.2l.2-.2ZM297,196.1h-.7l-.2.2v.2l.4-.2.4-.2ZM299,76.1c-.1.3-.3.5-.3.7,0,.2-.3.3-.5.4-.1.3-.2.6-.2,1s0,.7-.2,1l.2.4c.4,0,.8,0,1.1-.2l2-2.7.2-.4h-1.3l-.9-.2h0ZM298.1,160.4h.2c0,.3,0,.5-.2.7.1-.1.2-.4.2-.7h.2-.4ZM298.7,57.3h.4c.1.3.1.5,0,.7h-.4c.1-.1.1-.4,0-.7ZM300.1,56.7h.2c0,.3,0,.5-.2.7h-.2c.1-.1.2-.4.2-.7ZM300.3,61.5h.2c.3-.3.3-.6,0-.9h-.2c-.3.3-.4.7-.2,1.1,0,0,.2-.2.2-.2ZM301.8,65.3c.7-.7,1.1-1.2,1.1-1.3s-.1-.4-.4-.9c-.4-.3-.7-.5-.7-.7-.6.4-.8.9-.7,1.3.1.4.3,1,.4,1.5h.2ZM301.6,197.9l-.2-.7h-.2l.2.7h.2ZM302,53.8h-.7v-.2h.7v.2ZM304.7,190.6l-.2-.2h.7c.4.7.7,1.1.8,1.2,0,0,.3,0,.8-.3,0-.4-.4-.7-1.3-.7h-.7,0ZM305.4,64.4h.7v-.2h-.2l-.4.2ZM306.9,59.6c.4-.3.8-.5,1.2-.5.4,0,.6-.3.8-.5.4-.4.7-.8.7-1.1.1-.1.1-.3,0-.4-.4,0-.7,0-.7.2-.4.4-.8.9-1.1,1.3-.3.4-.6.9-.9,1.3v-.2h0ZM307.3,192.6h-.2l.7.7.2-.2c-.3-.3-.5-.5-.7-.7v.2ZM309.3,52.7v.2h-.2v-.2h.2ZM310.6,56.9c-.4.4-.6.7-.4.9v.2c.3,0,.5,0,.7-.2-.1-.3-.1-.5,0-.7l-.4-.2h.2ZM313.5,192.6c.1-.4,0-.6-.4-.4h.7c0,.3.3.6.9.9h.2v-.4c-.1-.6-.4-.8-.9-.7l-.4.7ZM317.3,173.4h-.7c.1-.1.1-.4,0-.7h.7v.7ZM319.2,178.9c.1-.3.3-.7.5-1.1s0-.8-.5-1.1c-.3,0-.2-.2.2-.7s.7-1.3.4-2.2c-.3-.3-.4-.6-.3-.8,0-.2.2-.5.3-.8.1,0,.2,0,.3-.1,0,0,.2-.1.3-.1.7.3,1.2.6,1.3,1,.1.4,0,.9-.4,1.6-.1.3-.3.6-.5.9-.2.3-.5.6-.8.9.1.3.3.5.3.7,0,.1.2.4.3.7.3.9-.1,1.3-1.3,1.3l-.2-.2h0ZM321.9,190.1c0,.4.2.7.7.9.4.1.6.6.4,1.3-.4-.1-.9-.6-1.3-1.3.3-.3.4-.5.2-.7h-.2l.2-.2Z"/>
  <path class="st0" d="M391.9,69.4h-27.5v-26.2h84.2v26.2h-27.2v131.6h-29.5V69.4h0Z"/>
  <path class="st0" d="M458.2,43.2h74.1v26.2h-44.4v33.3h36.8v24.7h-36.8v47.7h44.4v26h-74.1V43.2h0Z"/>
  <path class="st0" d="M543.2,43.2h29.8v131.9h41.3v26h-71.1V43.2h0Z"/>
  <path class="st0" d="M623.8,43.2h29.8v131.9h41.3v26h-71.1V43.2h0Z"/>
  <path class="st0" d="M343.9,141c-5.2.5-8.4-1.1-9.9-4.3-.4-1-.3-1.7,1.1-1.7,6.7.1,15.2-3.1,21.9-3.5,5.1-.3,8.1,1.9,9.6,5.1.3,1.2.1,1.8-1.1,1.7-3.5-.4-7.2,0-10.8.6.8,3-.2,7-3.6,11.5-6.1,7.9-19.7,14-29.9,5.1-11.5-10-2.2-29,14.6-33.8-3.4-1.2-6.1-3.7-6.3-8.3-.5-10.4,11.4-19.7,18.6-22,5.4-1.7,10.2-2.6,15,1.6,4.6,3.9,4.9,7.2,2.4,12.6-1.5,3.2-3.4,7.7-4.4,10.3-.3.8-1,1.2-2.2.5-2.5-1.3-4.3-4.8-2.4-10.2,2-5.9,5.3-9.1,3.4-10.9-3.2-3.1-23.6,8.8-22.8,19.4.3,4.3,3.6,4.9,7.8,4.8,5.2-.1,7.2,2.7,7.9,4.5.4,1.1-.1,1.4-1.2,1.5-15.8,1.3-28.9,11-29.2,21.2-.1,4.4,2.5,7.7,7.1,8,5.2.3,14.5-4.3,19.3-14.7-1.8.3-3.4.8-4.9.9h0Z"/>
</svg>